<svg width="24" height="19" viewBox="0 0 24 19" fill="none" xmlns="http://www.w3.org/2000/svg">
<path d="M21.2415 0.479866C21.3904 0.327934 21.5681 0.207236 21.7643 0.124839C21.9604 0.0424413 22.171 0 22.3837 0C22.5964 0 22.807 0.0424413 23.0032 0.124839C23.1993 0.207236 23.377 0.327934 23.5259 0.479866C24.1499 1.11042 24.1587 2.12935 23.5477 2.77082L10.6464 18.022C10.4999 18.1829 10.3222 18.3122 10.124 18.402C9.92584 18.4917 9.71145 18.5402 9.49394 18.5443C9.27642 18.5483 9.06037 18.508 8.85898 18.4257C8.65759 18.3434 8.47511 18.2209 8.3227 18.0657L0.472356 10.1106C0.169594 9.80184 0 9.38666 0 8.95422C0 8.52179 0.169594 8.1066 0.472356 7.79783C0.621259 7.6459 0.798977 7.5252 0.995105 7.44281C1.19123 7.36041 1.40183 7.31797 1.61456 7.31797C1.82729 7.31797 2.03789 7.36041 2.23402 7.44281C2.43014 7.5252 2.60786 7.6459 2.75677 7.79783L9.41581 14.5463L21.1979 0.527867L21.2415 0.479866Z" fill="white"/>
</svg>
