<svg width="28" height="23" viewBox="0 0 28 23" fill="none" xmlns="http://www.w3.org/2000/svg">
<path d="M18.8825 19.7155L16.058 16.8893C14.9657 17.2798 13.785 17.3521 12.6532 17.0978C11.5215 16.8435 10.4852 16.2731 9.66493 15.4528C8.8447 14.6326 8.27425 13.5963 8.01995 12.4645C7.76566 11.3327 7.83798 10.152 8.2285 9.05976L4.6235 5.45476C1.6415 8.10601 0 11.1195 0 11.1195C0 11.1195 5.25 20.7445 14 20.7445C15.6809 20.7401 17.3428 20.3898 18.8825 19.7155ZM9.1175 2.52351C10.6572 1.84917 12.3191 1.4989 14 1.49451C22.75 1.49451 28 11.1195 28 11.1195C28 11.1195 26.3568 14.1313 23.3783 16.786L19.7698 13.1775C20.1603 12.0852 20.2326 10.9045 19.9783 9.77274C19.724 8.64097 19.1536 7.60468 18.3333 6.78444C17.5131 5.96421 16.4768 5.39375 15.345 5.13946C14.2132 4.88516 13.0325 4.95749 11.9403 5.34801L9.1175 2.52351Z" fill="#A6A6A6"/>
<path d="M9.66911 10.5C9.57285 11.1725 9.63454 11.8583 9.84929 12.5028C10.0641 13.1474 10.426 13.7331 10.9064 14.2135C11.3868 14.6939 11.9725 15.0558 12.617 15.2706C13.2616 15.4853 13.9473 15.547 14.6199 15.4508L9.66911 10.5ZM18.3316 11.739L13.3809 6.7865C14.0534 6.69024 14.7391 6.75193 15.3837 6.96669C16.0282 7.18144 16.6139 7.54336 17.0943 8.02377C17.5747 8.50418 17.9367 9.08986 18.1514 9.73443C18.3662 10.379 18.4279 11.0647 18.3316 11.7372V11.739ZM23.8809 22.239L2.88086 1.239L4.11986 0L25.1199 21L23.8809 22.239Z" fill="#A6A6A6"/>
</svg>
