<svg width="30" height="30" viewBox="0 0 30 30" fill="none" xmlns="http://www.w3.org/2000/svg">
<path d="M14.56 29.12C22.6013 29.12 29.12 22.6013 29.12 14.56C29.12 6.51873 22.6013 0 14.56 0C6.51873 0 0 6.51873 0 14.56C0 22.6013 6.51873 29.12 14.56 29.12Z" fill="white"/>
<path d="M19.0783 9.05374C18.8794 9.05375 18.6849 9.11286 18.5196 9.22356C18.3543 9.33427 18.2256 9.49158 18.1499 9.67554C18.0741 9.8595 18.0547 10.0618 18.0941 10.2568C18.1335 10.4518 18.23 10.6307 18.3713 10.7708C18.5125 10.9109 18.6922 11.0059 18.8875 11.0437C19.0828 11.0815 19.285 11.0605 19.4683 10.9832C19.6517 10.9059 19.8079 10.776 19.9173 10.6097C20.0266 10.4435 20.0841 10.2486 20.0825 10.0497C20.0825 9.91817 20.0564 9.78799 20.0059 9.66662C19.9553 9.54526 19.8812 9.4351 19.7879 9.34251C19.6945 9.24993 19.5837 9.17674 19.462 9.12718C19.3402 9.07762 19.2098 9.05266 19.0783 9.05374Z" fill="#272727"/>
<path d="M14.636 10.3377C13.8038 10.336 12.9898 10.5813 12.2971 11.0425C11.6043 11.5036 11.064 12.1599 10.7444 12.9283C10.4248 13.6967 10.3403 14.5426 10.5017 15.359C10.663 16.1754 11.063 16.9256 11.6508 17.5146C12.2387 18.1036 12.9881 18.505 13.8042 18.6679C14.6203 18.8309 15.4663 18.7481 16.2353 18.43C17.0043 18.1119 17.6617 17.5728 18.1242 16.881C18.5867 16.1892 18.8336 15.3757 18.8336 14.5435C18.8336 13.4295 18.3916 12.3609 17.6046 11.5724C16.8177 10.7839 15.75 10.3398 14.636 10.3377ZM14.636 17.2349C14.1013 17.2366 13.5782 17.0794 13.133 16.7834C12.6878 16.4874 12.3405 16.0658 12.1352 15.5722C11.9298 15.0786 11.8757 14.5351 11.9796 14.0106C12.0835 13.4862 12.3408 13.0044 12.7188 12.6264C13.0969 12.2483 13.5786 11.991 14.1031 11.8871C14.6275 11.7832 15.171 11.8374 15.6647 12.0427C16.1583 12.2481 16.5798 12.5954 16.8758 13.0406C17.1719 13.4858 17.329 14.0089 17.3274 14.5435C17.3252 15.2567 17.041 15.94 16.5367 16.4442C16.0324 16.9485 15.3491 17.2328 14.636 17.2349Z" fill="#272727"/>
<path d="M17.9661 23.0459H11.1511C9.79185 23.0437 8.48886 22.5028 7.52771 21.5416C6.56655 20.5805 6.02561 19.2775 6.02344 17.9182V11.1362C6.02344 9.77546 6.56341 8.47036 7.5248 7.50743C8.48619 6.54449 9.79042 6.00242 11.1511 6.00024H17.9661C19.3268 6.00242 20.631 6.54449 21.5924 7.50743C22.5538 8.47036 23.0938 9.77546 23.0938 11.1362V17.9511C23.0829 19.3047 22.5382 20.5992 21.578 21.5533C20.6177 22.5074 19.3197 23.0438 17.9661 23.0459ZM11.1511 7.61345C10.2168 7.61345 9.32083 7.98459 8.66019 8.64523C7.99955 9.30587 7.62841 10.2019 7.62841 11.1362V17.9511C7.62841 18.8854 7.99955 19.7814 8.66019 20.4421C9.32083 21.1027 10.2168 21.4738 11.1511 21.4738H17.9661C18.9004 21.4738 19.7964 21.1027 20.457 20.4421C21.1177 19.7814 21.4888 18.8854 21.4888 17.9511V11.1362C21.4888 10.2019 21.1177 9.30587 20.457 8.64523C19.7964 7.98459 18.9004 7.61345 17.9661 7.61345H11.1511Z" fill="#272727"/>
</svg>
