<svg width="30" height="30" viewBox="0 0 30 30" fill="none" xmlns="http://www.w3.org/2000/svg">
<path d="M14.56 29.12C22.6013 29.12 29.12 22.6013 29.12 14.56C29.12 6.51873 22.6013 0 14.56 0C6.51873 0 0 6.51873 0 14.56C0 22.6013 6.51873 29.12 14.56 29.12Z" fill="white"/>
<path d="M5.46031 6.35889L12.1006 15.7934L5.39844 23.6389H7.19844L12.9134 16.9479L17.6216 23.6389H23.3366L16.0466 13.2804L21.9584 6.35889H20.1584L15.2338 12.1259L11.1753 6.35889H5.46031ZM8.21656 7.79889H10.423L15.5016 14.9989L20.5803 22.1989H18.3739L8.21656 7.79889Z" fill="#272727" stroke="#272727" stroke-width="0.1"/>
</svg>
