<svg width="21" height="24" viewBox="0 0 21 24" fill="none" xmlns="http://www.w3.org/2000/svg">
<path fill-rule="evenodd" clip-rule="evenodd" d="M20.3314 5.93137C20.6314 5.63131 20.8 5.22435 20.8 4.8V3.2C20.8 2.77565 20.6314 2.36869 20.3314 2.06863C20.0313 1.76857 19.6243 1.6 19.2 1.6H13.6C13.6 1.17565 13.4314 0.768687 13.1314 0.468629C12.8313 0.168571 12.4243 0 12 0H8.8C8.37565 0 7.96869 0.168571 7.66863 0.468629C7.36857 0.768687 7.2 1.17565 7.2 1.6H1.6C1.17565 1.6 0.768687 1.76857 0.468629 2.06863C0.168571 2.36869 0 2.77565 0 3.2V4.8C0 5.22435 0.168571 5.63131 0.468629 5.93137C0.768687 6.23143 1.17565 6.4 1.6 6.4H2.4V20.8C2.4 21.6487 2.73714 22.4626 3.33726 23.0627C3.93737 23.6629 4.75131 24 5.6 24H15.2C16.0487 24 16.8626 23.6629 17.4627 23.0627C18.0629 22.4626 18.4 21.6487 18.4 20.8V6.4H19.2C19.6243 6.4 20.0313 6.23143 20.3314 5.93137ZM4 6.4944L4.1888 6.4H16.6112L16.8 6.4944V20.8C16.8 21.2243 16.6314 21.6313 16.3314 21.9314C16.0313 22.2314 15.6243 22.4 15.2 22.4H5.6C5.17565 22.4 4.76869 22.2314 4.46863 21.9314C4.16857 21.6313 4 21.2243 4 20.8V6.4944ZM19.2 4.8H1.6V3.2H19.2V4.8ZM6.96529 9.0351C6.81527 8.88507 6.61178 8.80078 6.39961 8.80078C6.18744 8.80078 5.98395 8.88507 5.83392 9.0351C5.6839 9.18513 5.59961 9.38861 5.59961 9.60078V19.2008C5.59961 19.413 5.6839 19.6164 5.83392 19.7665C5.98395 19.9165 6.18744 20.0008 6.39961 20.0008C6.61178 20.0008 6.81527 19.9165 6.96529 19.7665C7.11532 19.6164 7.19961 19.413 7.19961 19.2008V9.60078C7.19961 9.38861 7.11532 9.18513 6.96529 9.0351ZM14.9653 9.0351C15.1153 9.18513 15.1996 9.38861 15.1996 9.60078V19.2008C15.1996 19.413 15.1153 19.6164 14.9653 19.7665C14.8153 19.9165 14.6118 20.0008 14.3996 20.0008C14.1874 20.0008 13.984 19.9165 13.8339 19.7665C13.6839 19.6164 13.5996 19.413 13.5996 19.2008V9.60078C13.5996 9.38861 13.6839 9.18513 13.8339 9.0351C13.984 8.88507 14.1874 8.80078 14.3996 8.80078C14.6118 8.80078 14.8153 8.88507 14.9653 9.0351Z" fill="#EC2323"/>
</svg>
