<svg width="143" height="32" viewBox="0 0 143 32" fill="none" xmlns="http://www.w3.org/2000/svg">
<path d="M69.9987 11.9122C71.9576 9.95324 74.3633 9.1013 77.1838 9.32971C79.9972 9.55812 82.1635 10.8168 83.6279 13.0559C84.3051 12.4023 84.8936 11.7138 85.6063 11.1686C87.8205 9.47809 90.3892 9.00961 93.1583 9.44308C96.9999 10.0449 99.3914 13.0309 99.925 16.542C100.031 17.2422 100.076 17.9558 100.079 18.6627C100.093 22.4172 100.088 26.1717 100.085 29.9245C100.083 30.8765 99.7779 31.36 99.0705 31.5884C97.9289 31.9568 96.8528 31.25 96.8493 30.1046C96.8404 26.265 96.8457 22.4272 96.8439 18.5876C96.8439 17.2355 96.6507 15.9168 95.8973 14.7364C94.6315 12.7491 92.6974 11.9805 90.3166 12.2323C87.8506 12.4924 86.1807 13.7861 85.4113 16.0035C85.1613 16.727 85.0727 17.529 85.0656 18.2959C85.0319 22.1854 85.0532 26.075 85.0479 29.9645C85.0461 31.2366 84.0711 31.9535 82.8638 31.5934C82.1423 31.3783 81.77 30.8682 81.7647 30.0296C81.754 28.5924 81.7629 27.1553 81.7611 25.7165C81.7593 23.1291 81.7753 20.5416 81.7434 17.9541C81.7257 16.612 81.3622 15.3416 80.4936 14.2463C78.6853 11.9705 75.0955 11.4904 72.5214 13.1609C70.5997 14.4096 69.8799 16.2035 69.8764 18.3192C69.8711 22.0737 69.8746 25.8282 69.8746 29.5811C69.8746 29.7845 69.8764 29.9879 69.8675 30.1896C69.8285 31.0966 69.1921 31.6868 68.2649 31.6801C67.3183 31.6734 66.6464 31.0549 66.6446 30.1413C66.6393 23.7993 66.6393 17.4589 66.6446 11.1169C66.6464 10.1583 67.3076 9.51477 68.2543 9.5031C69.2045 9.49143 69.8303 10.1083 69.8675 11.1003C69.8764 11.3487 69.8693 11.5971 69.8693 11.8455C69.9118 11.8672 69.9562 11.8888 69.9987 11.9122Z" fill="white"/>
<path d="M110.835 13.2943C111.603 12.6324 112.273 11.9455 113.055 11.397C118.889 7.30072 127.257 9.32635 130.306 15.5516C132.669 20.3748 131.43 26.1417 127.154 29.3693C123.238 32.3253 118.8 32.7521 114.29 30.8415C109.926 28.9926 107.614 25.5781 107.525 21.0901C107.396 14.583 107.499 8.07263 107.513 1.56558C107.515 0.605274 108.185 -0.00825207 109.16 8.38896e-05C110.165 0.00841985 110.823 0.616945 110.832 1.61226C110.849 3.87797 110.839 6.14369 110.839 8.4094C110.835 10.0282 110.835 11.6488 110.835 13.2943ZM128.217 21.0784C128.216 18.926 127.758 17.3072 126.957 16.0818C125.36 13.6394 123.025 12.3673 120.001 12.1823C116.873 11.9905 114.287 13.0309 112.479 15.4283C110.298 18.3225 110.124 21.4902 111.773 24.6395C113.982 28.8608 119.118 30.0479 123.131 28.3057C126.578 26.8102 128.093 24.0743 128.217 21.0784Z" fill="#EC2323"/>
<path d="M22.2132 21.6136C22.5802 24.6346 23.9984 26.952 26.8703 28.2424C30.2155 29.7462 33.4863 29.4194 36.5639 27.4538C36.8705 27.2571 37.2074 27.067 37.5602 26.9786C38.2037 26.8186 38.9234 27.2037 39.2017 27.7789C39.4801 28.3574 39.3312 28.9126 38.7373 29.3461C36.9556 30.6465 34.9382 31.4651 32.7063 31.7351C28.675 32.2236 25.0957 31.28 22.238 28.4758C19.9423 26.2217 19.0718 23.4192 19.1232 20.3482C19.1605 18.0975 19.6905 15.9518 21.0148 14.0446C22.9507 11.2587 25.6719 9.67152 29.2263 9.37143C32.6407 9.083 35.6509 9.91159 38.0583 12.259C40.3682 14.5114 41.2316 17.3006 41.1607 20.3799C41.1465 20.9918 40.7263 21.4286 40.0881 21.5403C39.7903 21.5919 39.4819 21.6086 39.1787 21.6086C33.77 21.6119 28.3612 21.6119 22.9524 21.6119C22.7291 21.6136 22.5022 21.6136 22.2132 21.6136ZM38.1115 19.0328C37.8544 15.45 35.0889 11.7572 29.6447 12.0823C25.8988 12.3057 22.2965 15.6567 22.3674 19.0328C27.6024 19.0328 32.8375 19.0328 38.1115 19.0328Z" fill="white"/>
<path d="M7.59111 10.3117C9.1547 10.3117 10.6421 10.3084 12.1294 10.315C12.3794 10.3167 12.6347 10.3234 12.8758 10.3767C13.5547 10.5251 13.9855 11.0653 13.9678 11.7055C13.9501 12.334 13.5282 12.8192 12.8527 12.9559C12.6276 13.0025 12.39 13.0075 12.1578 13.0075C10.6687 13.0125 9.17775 13.0092 7.6567 13.0092C7.63188 13.1443 7.59288 13.2543 7.59288 13.3627C7.59998 17.0321 7.57516 20.7016 7.63188 24.3711C7.66557 26.5068 9.48444 28.6308 12.0816 28.5958C12.5478 28.5891 13.0176 28.5841 13.4821 28.6241C14.3117 28.6958 14.8347 29.231 14.8985 30.0229C14.9588 30.7731 14.4624 31.42 13.6647 31.5817C12.5336 31.8101 11.4097 31.6668 10.3017 31.435C7.1036 30.7665 4.69439 28.139 4.41783 24.958C4.30615 23.6809 4.32565 22.3905 4.31856 21.1068C4.30438 18.4359 4.31501 15.7651 4.31501 13.0075C3.7619 13.0075 3.23184 13.0075 2.70001 13.0075C2.26922 13.0075 1.83666 13.0242 1.40588 12.9992C0.560263 12.9509 0.00715508 12.419 6.39541e-05 11.6805C-0.00702717 10.9269 0.576217 10.3484 1.42715 10.3184C2.19831 10.2917 2.97302 10.31 3.74595 10.31C3.9055 10.31 4.06682 10.31 4.31324 10.31C4.31324 10.1033 4.31324 9.92657 4.31324 9.74818C4.31324 7.87093 4.30615 5.99367 4.31678 4.11641C4.3221 3.03107 4.99221 2.42254 6.09134 2.47589C6.804 2.5109 7.39079 2.97772 7.51665 3.64126C7.56984 3.92135 7.58579 4.21311 7.58756 4.4982C7.59288 6.41213 7.59111 8.32107 7.59111 10.3117Z" fill="white"/>
<path d="M50.0373 12.7642C50.8297 12.069 51.4449 11.3988 52.1912 10.8987C54.6199 9.26647 57.3039 8.85634 60.1669 9.66493C61.1437 9.94169 61.5426 10.6069 61.3246 11.3855C61.1367 12.0557 60.4825 12.3374 59.4401 12.2507C57.8269 12.1157 56.2101 12.0223 54.6376 12.5125C52.2479 13.2561 50.601 14.6648 50.1631 17.0973C50.0887 17.5107 50.1011 17.9392 50.1011 18.361C50.0975 22.1472 50.0993 25.9351 50.0975 29.7213C50.0975 29.9063 50.1029 30.0947 50.0816 30.2781C49.9717 31.2234 49.3725 31.7185 48.3974 31.6785C47.4384 31.6402 46.8994 31.1334 46.8959 30.1764C46.8817 26.2718 46.887 22.3673 46.8853 18.461C46.8853 15.9936 46.8764 13.5245 46.8924 11.057C46.8995 9.85833 47.8053 9.2548 49.0339 9.58324C49.6153 9.73829 49.9859 10.0984 50.0284 10.6519C50.0763 11.3238 50.0373 11.999 50.0373 12.7642Z" fill="white"/>
<path d="M138.693 20.5899C138.693 17.4605 138.688 14.3329 138.695 11.2036C138.699 9.99318 139.64 9.27128 140.805 9.56804C141.399 9.71976 141.76 10.0965 141.884 10.6501C141.952 10.9451 141.962 11.2552 141.962 11.557C141.966 17.5939 141.966 23.6325 141.964 29.6694C141.964 29.8711 141.957 30.0762 141.934 30.2762C141.826 31.1565 141.147 31.7234 140.275 31.67C139.332 31.6117 138.699 31.0115 138.697 30.1262C138.688 26.9502 138.693 23.7692 138.693 20.5899Z" fill="white"/>
<path d="M138.027 3.01635C138.033 1.78262 139.057 0.848995 140.371 0.877337C141.66 0.90568 142.66 1.86598 142.644 3.05469C142.628 4.26841 141.596 5.21704 140.295 5.21537C138.972 5.2137 138.022 4.29341 138.027 3.01635Z" fill="white"/>
<path d="M116.848 20.5865C116.853 19.1994 118.005 18.1491 119.484 18.1824C120.932 18.2158 122.058 19.2928 122.038 20.6299C122.019 21.9953 120.859 23.0606 119.397 23.0589C117.91 23.0573 116.841 22.022 116.848 20.5865Z" fill="#A6A6A6"/>
</svg>
