<svg width="179" height="40" viewBox="0 0 179 40" fill="none" xmlns="http://www.w3.org/2000/svg">
<path d="M87.4984 14.8902C89.9471 12.4415 92.9541 11.3766 96.4797 11.6621C99.9965 11.9476 102.704 13.5211 104.535 16.3199C105.381 15.5029 106.117 14.6422 107.008 13.9608C109.776 11.8476 112.987 11.262 116.448 11.8038C121.25 12.5562 124.239 16.2886 124.906 20.6775C125.039 21.5528 125.095 22.4447 125.099 23.3283C125.117 28.0215 125.11 32.7146 125.106 37.4057C125.104 38.5956 124.722 39.2 123.838 39.4855C122.411 39.9461 121.066 39.0624 121.062 37.6307C121.05 32.8313 121.057 28.034 121.055 23.2345C121.055 21.5444 120.813 19.896 119.872 18.4205C118.289 15.9364 115.872 14.9757 112.896 15.2904C109.813 15.6155 107.726 17.2326 106.764 20.0043C106.452 20.9088 106.341 21.9112 106.332 22.8698C106.29 27.7318 106.316 32.5937 106.31 37.4557C106.308 39.0458 105.089 39.9419 103.58 39.4917C102.678 39.2229 102.212 38.5852 102.206 37.537C102.193 35.7406 102.204 33.9442 102.201 32.1457C102.199 28.9113 102.219 25.677 102.179 22.4426C102.157 20.765 101.703 19.177 100.617 17.8078C98.3567 14.9632 93.8693 14.363 90.6517 16.4511C88.2496 18.0121 87.3499 20.2544 87.3455 22.899C87.3388 27.5922 87.3433 32.2853 87.3433 36.9764C87.3433 37.2306 87.3455 37.4849 87.3344 37.737C87.2857 38.8707 86.4901 39.6084 85.3312 39.6001C84.1478 39.5918 83.308 38.8186 83.3058 37.6766C83.2991 29.7491 83.2991 21.8237 83.3058 13.8962C83.308 12.6979 84.1345 11.8935 85.3179 11.8789C86.5056 11.8643 87.2879 12.6354 87.3344 13.8753C87.3455 14.1858 87.3366 14.4964 87.3366 14.8069C87.3898 14.834 87.4452 14.8611 87.4984 14.8902Z" fill="#272727"/>
<path d="M138.544 16.6178C139.504 15.7905 140.341 14.9319 141.318 14.2463C148.611 9.1259 159.071 11.6579 162.882 19.4396C165.836 25.4685 164.287 32.6771 158.942 36.7117C154.047 40.4066 148.5 40.9401 142.863 38.5518C137.407 36.2407 134.518 31.9727 134.407 26.3626C134.245 18.2288 134.374 10.0908 134.391 1.95697C134.394 0.756593 135.231 -0.0103151 136.45 0.000104862C137.706 0.0105248 138.529 0.771181 138.54 2.01532C138.562 4.84747 138.549 7.67961 138.549 10.5117C138.544 12.5353 138.544 14.5609 138.544 16.6178ZM160.272 26.348C160.27 23.6576 159.698 21.634 158.696 20.1023C156.7 17.0492 153.781 15.4591 150.001 15.2278C146.092 14.9882 142.859 16.2886 140.598 19.2853C137.873 22.9032 137.655 26.8627 139.716 30.7994C142.477 36.0761 148.897 37.5599 153.914 35.3821C158.222 33.5127 160.117 30.0929 160.272 26.348Z" fill="#EC2323"/>
<path d="M27.7675 27.017C28.2262 30.7932 29.999 33.69 33.5888 35.303C37.7704 37.1827 41.8589 36.7743 45.7058 34.3172C46.0892 34.0713 46.5102 33.8337 46.9512 33.7233C47.7556 33.5232 48.6553 34.0046 49.0032 34.7236C49.3511 35.4468 49.1649 36.1407 48.4226 36.6826C46.1955 38.3081 43.6737 39.3313 40.8838 39.6689C35.8447 40.2795 31.3706 39.1 27.7985 35.5947C24.9288 32.7772 23.8408 29.274 23.905 25.4353C23.9516 22.6219 24.6141 19.9398 26.2695 17.5557C28.6893 14.0734 32.0908 12.0894 36.5339 11.7143C40.8018 11.3538 44.5646 12.3895 47.5739 15.3238C50.4613 18.1392 51.5405 21.6257 51.4518 25.4749C51.4341 26.2397 50.9089 26.7857 50.1111 26.9253C49.7389 26.9899 49.3533 27.0108 48.9744 27.0108C42.2134 27.0149 35.4525 27.0149 28.6915 27.0149C28.4123 27.017 28.1287 27.017 27.7675 27.017ZM47.6403 23.791C47.319 19.3125 43.8621 14.6965 37.0568 15.1028C32.3745 15.3821 27.8716 19.5709 27.9603 23.791C34.504 23.791 41.0478 23.791 47.6403 23.791Z" fill="#272727"/>
<path d="M9.48889 12.8896C11.4434 12.8896 13.3026 12.8855 15.1618 12.8938C15.4742 12.8959 15.7933 12.9042 16.0947 12.9709C16.9434 13.1564 17.4819 13.8316 17.4598 14.6318C17.4376 15.4175 16.9102 16.0239 16.0659 16.1948C15.7845 16.2532 15.4875 16.2594 15.1972 16.2594C13.3358 16.2657 11.4722 16.2615 9.57088 16.2615C9.53986 16.4303 9.49111 16.5679 9.49111 16.7033C9.49997 21.2902 9.46894 25.8771 9.53986 30.4639C9.58196 33.1335 11.8556 35.7885 15.102 35.7447C15.6848 35.7364 16.272 35.7302 16.8526 35.7802C17.8897 35.8698 18.5434 36.5387 18.6231 37.5286C18.6985 38.4664 18.078 39.275 17.0808 39.4772C15.667 39.7627 14.2621 39.5835 12.8771 39.2938C8.8795 38.4581 5.86798 35.1737 5.52229 31.1975C5.38269 29.6011 5.40706 27.9881 5.3982 26.3835C5.38047 23.0449 5.39376 19.7064 5.39376 16.2594C4.70238 16.2594 4.0398 16.2594 3.37501 16.2594C2.83653 16.2594 2.29583 16.2803 1.75735 16.249C0.700328 16.1886 0.00894385 15.5238 7.99427e-05 14.6006C-0.00878396 13.6586 0.720271 12.9355 1.78394 12.898C2.74789 12.8646 3.71627 12.8875 4.68244 12.8875C4.88187 12.8875 5.08353 12.8875 5.39155 12.8875C5.39155 12.6291 5.39155 12.4082 5.39155 12.1852C5.39155 9.83866 5.38269 7.49209 5.39598 5.14551C5.40263 3.78884 6.24027 3.02818 7.61417 3.09487C8.505 3.13863 9.23848 3.72215 9.39582 4.55158C9.4623 4.90169 9.48224 5.26639 9.48446 5.62275C9.4911 8.01517 9.48889 10.4013 9.48889 12.8896Z" fill="#272727"/>
<path d="M62.5466 15.9553C63.5371 15.0863 64.3061 14.2485 65.239 13.6233C68.2749 11.5831 71.6299 11.0704 75.2087 12.0812C76.4297 12.4271 76.9283 13.2586 76.6557 14.2318C76.4208 15.0696 75.6031 15.4218 74.3001 15.3134C72.2836 15.1446 70.2626 15.0279 68.297 15.6406C65.3099 16.5701 63.2513 18.3311 62.7039 21.3716C62.6109 21.8884 62.6264 22.424 62.6264 22.9513C62.6219 27.684 62.6241 32.4188 62.6219 37.1516C62.6219 37.3829 62.6286 37.6184 62.602 37.8476C62.4646 39.0292 61.7156 39.6482 60.4968 39.5982C59.298 39.5502 58.6243 38.9167 58.6199 37.7205C58.6022 32.8398 58.6088 27.9591 58.6066 23.0763C58.6066 19.992 58.5955 16.9056 58.6154 13.8213C58.6243 12.3229 59.7567 11.5685 61.2923 11.9791C62.0192 12.1729 62.4823 12.623 62.5355 13.3149C62.5953 14.1547 62.5466 14.9987 62.5466 15.9553Z" fill="#272727"/>
<path d="M173.366 25.7373C173.366 21.8257 173.359 17.9161 173.368 14.0044C173.372 12.4915 174.549 11.5891 176.005 11.9601C176.747 12.1497 177.199 12.6207 177.354 13.3126C177.439 13.6814 177.452 14.0691 177.452 14.4463C177.456 21.9924 177.456 29.5406 177.454 37.0867C177.454 37.3389 177.445 37.5952 177.416 37.8453C177.281 38.9456 176.433 39.6542 175.342 39.5875C174.163 39.5146 173.372 38.7643 173.37 37.6577C173.359 33.6877 173.366 29.7115 173.366 25.7373Z" fill="#272727"/>
<path d="M172.535 3.77049C172.542 2.22834 173.823 1.0613 175.465 1.09673C177.076 1.13216 178.326 2.33254 178.306 3.81842C178.286 5.33557 176.996 6.52136 175.369 6.51927C173.716 6.51719 172.529 5.36683 172.535 3.77049Z" fill="#272727"/>
<path d="M146.059 25.7331C146.065 23.9993 147.506 22.6863 149.354 22.728C151.164 22.7697 152.571 24.116 152.547 25.7873C152.523 27.4941 151.073 28.8258 149.245 28.8237C147.386 28.8216 146.05 27.5274 146.059 25.7331Z" fill="#A6A6A6"/>
</svg>
