<svg width="36" height="36" viewBox="0 0 36 36" fill="none" xmlns="http://www.w3.org/2000/svg">
<g clip-path="url(#clip0_926_4008)">
<path d="M20.2539 12.375C20.2539 12.0766 20.1354 11.7905 19.9244 11.5795C19.7134 11.3685 19.4273 11.25 19.1289 11.25C18.8305 11.25 18.5444 11.3685 18.3334 11.5795C18.1224 11.7905 18.0039 12.0766 18.0039 12.375V15.75H14.6289C14.3305 15.75 14.0444 15.8685 13.8334 16.0795C13.6224 16.2905 13.5039 16.5766 13.5039 16.875C13.5039 17.1734 13.6224 17.4595 13.8334 17.6705C14.0444 17.8815 14.3305 18 14.6289 18H18.0039V21.375C18.0039 21.6734 18.1224 21.9595 18.3334 22.1705C18.5444 22.3815 18.8305 22.5 19.1289 22.5C19.4273 22.5 19.7134 22.3815 19.9244 22.1705C20.1354 21.9595 20.2539 21.6734 20.2539 21.375V18H23.6289C23.9273 18 24.2134 17.8815 24.4244 17.6705C24.6354 17.4595 24.7539 17.1734 24.7539 16.875C24.7539 16.5766 24.6354 16.2905 24.4244 16.0795C24.2134 15.8685 23.9273 15.75 23.6289 15.75H20.2539V12.375Z" fill="#E87808"/>
<path d="M1.125 2.25C0.826631 2.25 0.540483 2.36853 0.329505 2.5795C0.118526 2.79048 0 3.07663 0 3.375C0 3.67337 0.118526 3.95952 0.329505 4.1705C0.540483 4.38147 0.826631 4.5 1.125 4.5H3.6225L4.52475 8.11575L7.89525 26.082C7.94351 26.3398 8.08033 26.5726 8.28205 26.7403C8.48377 26.9079 8.73772 26.9998 9 27H11.25C10.0565 27 8.91193 27.4741 8.06802 28.318C7.22411 29.1619 6.75 30.3065 6.75 31.5C6.75 32.6935 7.22411 33.8381 8.06802 34.682C8.91193 35.5259 10.0565 36 11.25 36C12.4435 36 13.5881 35.5259 14.432 34.682C15.2759 33.8381 15.75 32.6935 15.75 31.5C15.75 30.3065 15.2759 29.1619 14.432 28.318C13.5881 27.4741 12.4435 27 11.25 27H27C25.8065 27 24.6619 27.4741 23.818 28.318C22.9741 29.1619 22.5 30.3065 22.5 31.5C22.5 32.6935 22.9741 33.8381 23.818 34.682C24.6619 35.5259 25.8065 36 27 36C28.1935 36 29.3381 35.5259 30.182 34.682C31.0259 33.8381 31.5 32.6935 31.5 31.5C31.5 30.3065 31.0259 29.1619 30.182 28.318C29.3381 27.4741 28.1935 27 27 27H29.25C29.5123 26.9998 29.7662 26.9079 29.968 26.7403C30.1697 26.5726 30.3065 26.3398 30.3547 26.082L33.7298 8.082C33.7601 7.91963 33.7544 7.75257 33.713 7.59267C33.6715 7.43276 33.5953 7.28396 33.4899 7.15681C33.3844 7.02966 33.2523 6.9273 33.1028 6.85699C32.9533 6.78668 32.7902 6.75015 32.625 6.75H6.5025L5.59125 3.10275C5.53052 2.85926 5.39013 2.64307 5.1924 2.48856C4.99466 2.33404 4.75095 2.25007 4.5 2.25H1.125ZM9.93375 24.75L6.9795 9H31.2705L28.3162 24.75H9.93375ZM13.5 31.5C13.5 32.0967 13.2629 32.669 12.841 33.091C12.419 33.513 11.8467 33.75 11.25 33.75C10.6533 33.75 10.081 33.513 9.65901 33.091C9.23705 32.669 9 32.0967 9 31.5C9 30.9033 9.23705 30.331 9.65901 29.909C10.081 29.4871 10.6533 29.25 11.25 29.25C11.8467 29.25 12.419 29.4871 12.841 29.909C13.2629 30.331 13.5 30.9033 13.5 31.5ZM29.25 31.5C29.25 32.0967 29.0129 32.669 28.591 33.091C28.169 33.513 27.5967 33.75 27 33.75C26.4033 33.75 25.831 33.513 25.409 33.091C24.9871 32.669 24.75 32.0967 24.75 31.5C24.75 30.9033 24.9871 30.331 25.409 29.909C25.831 29.4871 26.4033 29.25 27 29.25C27.5967 29.25 28.169 29.4871 28.591 29.909C29.0129 30.331 29.25 30.9033 29.25 31.5Z" fill="#E87808"/>
</g>
<defs>
<clipPath id="clip0_926_4008">
<rect width="36" height="36" fill="white"/>
</clipPath>
</defs>
</svg>
