<svg width="48" height="48" viewBox="0 0 48 48" fill="none" xmlns="http://www.w3.org/2000/svg">
<path d="M24 48C24 48 42 30.942 42 18C42 13.2261 40.1036 8.64773 36.7279 5.27208C33.3523 1.89642 28.7739 0 24 0C19.2261 0 14.6477 1.89642 11.2721 5.27208C7.89642 8.64773 6 13.2261 6 18C6 30.942 24 48 24 48ZM24 27C21.6131 27 19.3239 26.0518 17.636 24.364C15.9482 22.6761 15 20.3869 15 18C15 15.6131 15.9482 13.3239 17.636 11.636C19.3239 9.94821 21.6131 9 24 9C26.3869 9 28.6761 9.94821 30.364 11.636C32.0518 13.3239 33 15.6131 33 18C33 20.3869 32.0518 22.6761 30.364 24.364C28.6761 26.0518 26.3869 27 24 27Z" fill="#E87808"/>
</svg>
