<svg width="23" height="23" viewBox="0 0 23 23" fill="none" xmlns="http://www.w3.org/2000/svg">
<path d="M11.0727 20.7614C8.50314 20.7614 6.0388 19.7406 4.22183 17.9236C2.40485 16.1067 1.38409 13.6423 1.38409 11.0727C1.38409 8.50314 2.40485 6.0388 4.22183 4.22183C6.0388 2.40485 8.50314 1.38409 11.0727 1.38409C13.6423 1.38409 16.1067 2.40485 17.9236 4.22183C19.7406 6.0388 20.7614 8.50314 20.7614 11.0727C20.7614 13.6423 19.7406 16.1067 17.9236 17.9236C16.1067 19.7406 13.6423 20.7614 11.0727 20.7614ZM11.0727 22.1455C14.0094 22.1455 16.8258 20.9789 18.9023 18.9023C20.9789 16.8258 22.1455 14.0094 22.1455 11.0727C22.1455 8.13606 20.9789 5.31967 18.9023 3.24313C16.8258 1.16659 14.0094 0 11.0727 0C8.13606 0 5.31967 1.16659 3.24313 3.24313C1.16659 5.31967 0 8.13606 0 11.0727C0 14.0094 1.16659 16.8258 3.24313 18.9023C5.31967 20.9789 8.13606 22.1455 11.0727 22.1455Z" fill="#F44D4D"/>
<path d="M15.0144 6.94451L14.9867 6.97496L12.7098 9.87603C11.3645 11.5901 8.82326 11.7424 7.28285 10.2013C7.08607 10.0179 6.8258 9.91809 6.55686 9.92283C6.28793 9.92758 6.03134 10.0365 5.84115 10.2267C5.65096 10.4169 5.54202 10.6735 5.53727 10.9424C5.53253 11.2114 5.63235 11.4716 5.81572 11.6684L9.47802 15.3321C9.57668 15.4306 9.69417 15.5082 9.82347 15.5603C9.95277 15.6124 10.0912 15.6379 10.2306 15.6353C10.37 15.6327 10.5074 15.6021 10.6347 15.5452C10.762 15.4884 10.8765 15.4065 10.9715 15.3044L16.4967 8.39781C16.6849 8.20034 16.7877 7.93676 16.7831 7.66405C16.7785 7.39135 16.6667 7.13143 16.4719 6.94049C16.2771 6.74955 16.0151 6.64293 15.7423 6.64368C15.4696 6.64443 15.2081 6.7525 15.0144 6.94451Z" fill="#F44D4D"/>
</svg>
