<svg width="43" height="43" viewBox="0 0 43 43" fill="none" xmlns="http://www.w3.org/2000/svg">
<g clip-path="url(#clip0_926_1854)">
<path fill-rule="evenodd" clip-rule="evenodd" d="M31.9811 13.6083C31.8326 13.4597 31.6311 13.3763 31.421 13.3763H10.8256C10.6155 13.3763 10.414 13.4597 10.2655 13.6083C10.1169 13.7568 10.0335 13.9583 10.0335 14.1684V28.4267C10.0335 28.6368 10.1169 28.8383 10.2655 28.9868C10.414 29.1354 10.6155 29.2189 10.8256 29.2189H31.421C31.6311 29.2189 31.8326 29.1354 31.9811 28.9868C32.1297 28.8383 32.2131 28.6368 32.2131 28.4267V14.1684C32.2131 13.9583 32.1297 13.7568 31.9811 13.6083ZM9.14525 12.488C9.59091 12.0424 10.1954 11.792 10.8256 11.792H31.421C32.0513 11.792 32.6557 12.0424 33.1014 12.488C33.547 12.9337 33.7974 13.5381 33.7974 14.1684V28.4267C33.7974 29.057 33.547 29.6614 33.1014 30.1071C32.6557 30.5527 32.0513 30.8031 31.421 30.8031H10.8256C10.1954 30.8031 9.59091 30.5527 9.14525 30.1071C8.69959 29.6614 8.44922 29.057 8.44922 28.4267V14.1684C8.44922 13.5381 8.69959 12.9337 9.14525 12.488ZM16.6027 20.7374C16.4541 20.886 16.3707 21.0875 16.3707 21.2975C16.3707 21.5076 16.4541 21.7091 16.6027 21.8577C16.7513 22.0062 16.9527 22.0897 17.1628 22.0897H28.2526C28.4627 22.0897 28.6642 22.0062 28.8128 21.8577C28.9613 21.7091 29.0448 21.5076 29.0448 21.2975C29.0448 21.0875 28.9613 20.886 28.8128 20.7374C28.6642 20.5889 28.4627 20.5054 28.2526 20.5054H17.1628C16.9527 20.5054 16.7513 20.5889 16.6027 20.7374ZM16.6027 16.7768C16.4541 16.9253 16.3707 17.1268 16.3707 17.3369C16.3707 17.547 16.4541 17.7485 16.6027 17.897C16.7513 18.0456 16.9527 18.129 17.1628 18.129H28.2526C28.4627 18.129 28.6642 18.0456 28.8128 17.897C28.9613 17.7485 29.0448 17.547 29.0448 17.3369C29.0448 17.1268 28.9613 16.9253 28.8128 16.7768C28.6642 16.6282 28.4627 16.5448 28.2526 16.5448H17.1628C16.9527 16.5448 16.7513 16.6282 16.6027 16.7768ZM16.6027 24.6981C16.4541 24.8466 16.3707 25.0481 16.3707 25.2582C16.3707 25.4683 16.4541 25.6698 16.6027 25.8183C16.7513 25.9669 16.9527 26.0503 17.1628 26.0503H28.2526C28.4627 26.0503 28.6642 25.9669 28.8128 25.8183C28.9613 25.6698 29.0448 25.4683 29.0448 25.2582C29.0448 25.0481 28.9613 24.8466 28.8128 24.6981C28.6642 24.5495 28.4627 24.4661 28.2526 24.4661H17.1628C16.9527 24.4661 16.7513 24.5495 16.6027 24.6981ZM14.5544 17.897C14.703 17.7485 14.7864 17.547 14.7864 17.3369C14.7864 17.1268 14.703 16.9253 14.5544 16.7768C14.4059 16.6282 14.2044 16.5448 13.9943 16.5448C13.7842 16.5448 13.5827 16.6282 13.4342 16.7768C13.2856 16.9253 13.2022 17.1268 13.2022 17.3369C13.2022 17.547 13.2856 17.7485 13.4342 17.897C13.5827 18.0456 13.7842 18.129 13.9943 18.129C14.2044 18.129 14.4059 18.0456 14.5544 17.897ZM14.5544 21.8577C14.703 21.7091 14.7864 21.5076 14.7864 21.2975C14.7864 21.0875 14.703 20.886 14.5544 20.7374C14.4059 20.5889 14.2044 20.5054 13.9943 20.5054C13.7842 20.5054 13.5827 20.5889 13.4342 20.7374C13.2856 20.886 13.2022 21.0875 13.2022 21.2975C13.2022 21.5076 13.2856 21.7091 13.4342 21.8577C13.5827 22.0062 13.7842 22.0897 13.9943 22.0897C14.2044 22.0897 14.4059 22.0062 14.5544 21.8577ZM14.5544 25.8183C14.703 25.6698 14.7864 25.4683 14.7864 25.2582C14.7864 25.0481 14.703 24.8466 14.5544 24.6981C14.4059 24.5495 14.2044 24.4661 13.9943 24.4661C13.7842 24.4661 13.5827 24.5495 13.4342 24.6981C13.2856 24.8466 13.2022 25.0481 13.2022 25.2582C13.2022 25.4683 13.2856 25.6698 13.4342 25.8183C13.5827 25.9669 13.7842 26.0503 13.9943 26.0503C14.2044 26.0503 14.4059 25.9669 14.5544 25.8183Z" fill="#A6A6A6"/>
</g>
<defs>
<clipPath id="clip0_926_1854">
<rect width="25.3482" height="35.9099" fill="white" transform="translate(8.44922 3.34277)"/>
</clipPath>
</defs>
</svg>
