<svg width="43" height="43" viewBox="0 0 43 43" fill="none" xmlns="http://www.w3.org/2000/svg">
<path d="M21.1233 21.1233C22.804 21.1233 24.4158 20.4556 25.6043 19.2672C26.7927 18.0788 27.4603 16.4669 27.4603 14.7863C27.4603 13.1056 26.7927 11.4937 25.6043 10.3053C24.4158 9.11687 22.804 8.44922 21.1233 8.44922C19.4426 8.44922 17.8308 9.11687 16.6423 10.3053C15.4539 11.4937 14.7863 13.1056 14.7863 14.7863C14.7863 16.4669 15.4539 18.0788 16.6423 19.2672C17.8308 20.4556 19.4426 21.1233 21.1233 21.1233ZM25.348 14.7863C25.348 15.9067 24.9029 16.9813 24.1106 17.7736C23.3183 18.5659 22.2438 19.011 21.1233 19.011C20.0028 19.011 18.9283 18.5659 18.136 17.7736C17.3437 16.9813 16.8986 15.9067 16.8986 14.7863C16.8986 13.6658 17.3437 12.5912 18.136 11.7989C18.9283 11.0067 20.0028 10.5616 21.1233 10.5616C22.2438 10.5616 23.3183 11.0067 24.1106 11.7989C24.9029 12.5912 25.348 13.6658 25.348 14.7863ZM33.7974 31.685C33.7974 33.7974 31.685 33.7974 31.685 33.7974H10.5616C10.5616 33.7974 8.44922 33.7974 8.44922 31.685C8.44922 29.5727 10.5616 23.2356 21.1233 23.2356C31.685 23.2356 33.7974 29.5727 33.7974 31.685ZM31.685 31.6766C31.6829 31.1569 31.3597 29.5938 29.9276 28.1616C28.5503 26.7844 25.9585 25.348 21.1233 25.348C16.2881 25.348 13.6963 26.7844 12.319 28.1616C10.8869 29.5938 10.5658 31.1569 10.5616 31.6766H31.685Z" fill="#A6A6A6"/>
</svg>
