<svg width="28" height="28" viewBox="0 0 28 28" fill="none" xmlns="http://www.w3.org/2000/svg">
<g clip-path="url(#clip0_926_1867)">
<path d="M5.01558 25.9875C4.87908 26.7645 5.64559 27.3718 6.32108 27.0253L14.0036 23.0773L21.6843 27.0253C22.3598 27.3718 23.1263 26.7645 22.9898 25.9893L21.5373 17.7118L27.7008 11.8388C28.2783 11.2893 27.9808 10.2848 27.2073 10.1763L18.6358 8.9583L14.8138 1.38605C14.741 1.23255 14.6262 1.10287 14.4826 1.01206C14.339 0.921251 14.1726 0.873047 14.0027 0.873047C13.8328 0.873047 13.6664 0.921251 13.5228 1.01206C13.3793 1.10287 13.2644 1.23255 13.1916 1.38605L9.36959 8.96005L0.798085 10.178C0.0263349 10.2865 -0.272915 11.291 0.302835 11.8405L6.46809 17.7135L5.01558 25.991V25.9875ZM13.5993 21.1453L7.14884 24.4598L8.36333 17.535C8.39257 17.3756 8.38181 17.2115 8.33203 17.0572C8.28225 16.903 8.195 16.7635 8.07808 16.6513L2.99258 11.8038L10.0836 10.7958C10.2302 10.7729 10.3691 10.7152 10.4888 10.6275C10.6085 10.5398 10.7054 10.4247 10.7713 10.2918L14.0001 3.8903L17.2323 10.2918C17.2983 10.4247 17.3952 10.5398 17.5149 10.6275C17.6345 10.7152 17.7735 10.7729 17.9201 10.7958L25.0111 11.802L19.9256 16.6495C19.8084 16.762 19.721 16.9017 19.6712 17.0563C19.6214 17.2109 19.6108 17.3754 19.6403 17.535L20.8548 24.4598L14.4043 21.1453C14.2797 21.0806 14.1414 21.0468 14.001 21.0468C13.8605 21.0468 13.7239 21.0806 13.5993 21.1453Z" fill="#A6A6A6"/>
</g>
<defs>
<clipPath id="clip0_926_1867">
<rect width="28" height="28" fill="white"/>
</clipPath>
</defs>
</svg>
