<svg width="190" height="160" viewBox="0 0 190 160" fill="none" xmlns="http://www.w3.org/2000/svg">
<g clip-path="url(#clip0_649_16312)">
<path d="M123.687 157.735L88.0945 93.4967C88.0845 93.3395 88.0359 93.1872 87.953 93.0533C87.8702 92.9194 87.7556 92.8079 87.6195 92.7289C87.4634 92.6394 87.285 92.5962 87.1053 92.6046C87.0996 92.6041 87.0938 92.6045 87.088 92.6041C87.0822 92.6045 87.0764 92.6041 87.0707 92.6046C86.8272 92.5931 86.5887 92.6764 86.4051 92.837C86.2215 92.9975 86.1071 93.2229 86.0857 93.466L48.3628 157.735C48.2999 157.844 48.2591 157.964 48.2426 158.089C48.2262 158.214 48.2344 158.341 48.2669 158.462C48.2994 158.584 48.3555 158.698 48.432 158.797C48.5085 158.897 48.6039 158.981 48.7127 159.044C48.8216 159.107 48.9417 159.148 49.0663 159.164C49.1909 159.18 49.3175 159.172 49.4389 159.14C49.5603 159.107 49.6741 159.051 49.7738 158.974C49.8734 158.897 49.9571 158.802 50.0198 158.693L87.0626 95.5826L122.03 158.693C122.093 158.802 122.177 158.897 122.276 158.974C122.376 159.051 122.49 159.107 122.611 159.14C122.732 159.172 122.859 159.18 122.984 159.164C123.108 159.148 123.228 159.107 123.337 159.044C123.446 158.981 123.541 158.897 123.618 158.797C123.694 158.698 123.751 158.584 123.783 158.462C123.816 158.341 123.824 158.214 123.807 158.089C123.791 157.964 123.75 157.844 123.687 157.735Z" fill="#3F3D56"/>
<path d="M81.1853 146.714L85.2084 145.79L83.5626 129.816L77.625 131.18L81.1853 146.714Z" fill="#FFB6B6"/>
<path d="M84.2993 138.997L78.574 140.312L76.7434 136.731L76.6398 136.604C75.8277 135.606 75.3769 134.362 75.3609 133.075L70.6023 120.475L70.2132 120.289C69.9122 120.146 69.6452 119.94 69.43 119.685C69.2148 119.43 69.0565 119.133 68.9655 118.812C68.8744 118.491 68.8529 118.154 68.9022 117.824C68.9516 117.494 69.0707 117.178 69.2516 116.898L68.7478 115.564L54.5327 115.59L54.5185 115.586L37.0625 110.684L38.8954 99.7471L43.8057 102.839C45.4237 102.734 73.1409 101.03 75.7014 107.248C77.9816 112.786 81.2674 122.246 83.6223 129.206C83.7397 129.519 83.8857 129.82 84.0584 130.106C84.4247 130.671 84.6397 131.32 84.6827 131.992C84.7105 132.285 84.7662 132.574 84.8491 132.856C85.8279 135.785 84.3367 138.92 84.3216 138.951L84.2993 138.997Z" fill="#2F2E41"/>
<path d="M79.8281 145.378L81.1361 145.078L85.7665 141.826L88.9798 143.276L88.9802 143.276C90.527 142.921 92.1513 143.196 93.496 144.039C94.8406 144.883 95.7954 146.227 96.1503 147.775L96.1938 147.965L81.2098 151.406L79.8281 145.378Z" fill="#2F2E41"/>
<path d="M20.4288 145.737C20.8378 141.28 23.4457 136.818 27.6284 135.237C26.1072 139.86 26.2684 144.872 28.0835 149.387C28.7898 151.126 29.7563 152.986 29.2019 154.779C28.857 155.895 27.9537 156.769 26.9306 157.331C25.9075 157.892 24.7613 158.181 23.6293 158.464L23.411 158.657C21.4703 154.625 20.0198 150.194 20.4288 145.737Z" fill="#F0F0F0"/>
<path d="M27.6748 135.319C25.3006 138.161 23.8812 141.679 23.6182 145.374C23.5475 146.169 23.6023 146.969 23.7806 147.747C23.9788 148.498 24.3744 149.183 24.9264 149.73C25.4308 150.25 26.0069 150.724 26.3763 151.358C26.5605 151.685 26.6735 152.048 26.708 152.422C26.7424 152.796 26.6975 153.173 26.5761 153.529C26.2966 154.422 25.7131 155.162 25.1173 155.866C24.4559 156.647 23.7564 157.448 23.4972 158.464C23.4658 158.587 23.2768 158.531 23.3082 158.408C23.7592 156.64 25.4254 155.591 26.1846 153.988C26.5389 153.24 26.6701 152.38 26.2909 151.615C25.9593 150.945 25.3656 150.457 24.8503 149.934C24.304 149.409 23.8946 148.757 23.6578 148.037C23.4405 147.271 23.355 146.474 23.4049 145.679C23.4887 143.889 23.8532 142.123 24.4851 140.446C25.1957 138.527 26.2288 136.745 27.5397 135.176C27.6209 135.079 27.7555 135.223 27.6748 135.319Z" fill="white"/>
<path d="M23.6323 144.18C23.019 144.052 22.4712 143.71 22.0868 143.214C21.7024 142.719 21.5064 142.103 21.5338 141.476C21.5351 141.451 21.5463 141.427 21.565 141.409C21.5837 141.392 21.6085 141.382 21.634 141.383C21.6596 141.383 21.6839 141.394 21.702 141.412C21.7201 141.43 21.7304 141.454 21.7308 141.48C21.7043 142.063 21.8869 142.637 22.2458 143.098C22.6047 143.558 23.1163 143.875 23.6881 143.991C23.8123 144.016 23.7559 144.205 23.6323 144.18Z" fill="white"/>
<path d="M24.6329 149.501C25.7109 148.808 26.4887 147.735 26.8112 146.494C26.843 146.371 27.032 146.427 27.0002 146.549C26.6622 147.84 25.8506 148.956 24.7271 149.674C24.62 149.742 24.5263 149.569 24.6329 149.501Z" fill="white"/>
<path d="M25.3835 138.709C25.6104 138.808 25.8585 138.849 26.1052 138.829C26.352 138.808 26.5899 138.727 26.7974 138.591C26.9036 138.522 26.9972 138.695 26.8916 138.765C26.6617 138.913 26.3989 139.003 26.1263 139.026C25.8536 139.049 25.5795 139.005 25.3277 138.898C25.3032 138.89 25.2826 138.873 25.2702 138.85C25.2578 138.827 25.2546 138.801 25.2611 138.776C25.2686 138.751 25.2857 138.73 25.3086 138.717C25.3315 138.705 25.3584 138.702 25.3835 138.709Z" fill="white"/>
<path d="M40.7721 142.752C40.707 142.797 40.6419 142.842 40.5768 142.889C39.7049 143.504 38.8844 144.189 38.1234 144.937C38.0636 144.994 38.0039 145.053 37.9459 145.111C36.1316 146.933 34.6708 149.075 33.6379 151.431C33.2277 152.368 32.8894 153.336 32.6259 154.325C32.262 155.691 31.9761 157.201 31.2054 158.333C31.1263 158.452 31.0399 158.566 30.9468 158.675L23.6613 158.909C23.6445 158.901 23.6277 158.895 23.6108 158.887L23.3203 158.91C23.3303 158.858 23.3419 158.804 23.3519 158.752C23.3576 158.722 23.3649 158.692 23.3706 158.662C23.3749 158.642 23.3793 158.621 23.382 158.603C23.3835 158.596 23.3849 158.59 23.3864 158.585C23.3891 158.566 23.3936 158.549 23.3964 158.533C23.46 158.232 23.5258 157.932 23.5938 157.632C23.5938 157.63 23.5938 157.63 23.5953 157.628C24.0917 155.335 24.858 153.108 25.8784 150.996C25.9097 150.933 25.9408 150.869 25.9755 150.806C26.4493 149.87 26.9988 148.974 27.6184 148.128C27.9591 147.666 28.323 147.221 28.7087 146.796C29.7074 145.698 30.8723 144.765 32.1607 144.03C34.7294 142.564 37.7376 141.938 40.5572 142.692C40.6293 142.711 40.6999 142.731 40.7721 142.752Z" fill="#F0F0F0"/>
<path d="M40.762 142.844C37.1573 143.682 33.9079 145.636 31.4755 148.428C30.9412 149.02 30.5035 149.692 30.1783 150.42C29.8844 151.14 29.7885 151.925 29.9003 152.694C29.9902 153.414 30.1653 154.139 30.0789 154.868C30.0292 155.24 29.9014 155.598 29.7039 155.917C29.5064 156.237 29.2437 156.511 28.9329 156.721C28.1724 157.266 27.2615 157.505 26.3626 157.708C25.3646 157.933 24.3244 158.151 23.5064 158.806C23.4073 158.885 23.2901 158.727 23.3891 158.648C24.8122 157.508 26.7736 157.675 28.3441 156.852C29.0769 156.468 29.6986 155.861 29.8562 155.021C29.9941 154.287 29.8141 153.539 29.7168 152.811C29.5967 152.062 29.6616 151.295 29.9059 150.578C30.1929 149.835 30.6041 149.147 31.1218 148.543C32.2656 147.164 33.6189 145.973 35.1321 145.015C36.8531 143.912 38.7499 143.111 40.7405 142.648C40.8638 142.62 40.8844 142.816 40.762 142.844Z" fill="white"/>
<path d="M32.2001 147.483C31.7876 147.011 31.5562 146.408 31.5471 145.78C31.5381 145.153 31.7521 144.543 32.1508 144.059C32.2319 143.962 32.3872 144.083 32.3061 144.181C31.9339 144.631 31.7347 145.199 31.7443 145.783C31.7539 146.367 31.9717 146.928 32.3584 147.366C32.4424 147.461 32.2836 147.578 32.2001 147.483Z" fill="white"/>
<path d="M29.8058 152.335C31.083 152.432 32.3497 152.044 33.3535 151.247C33.4529 151.168 33.5701 151.327 33.4709 151.406C32.4248 152.232 31.1057 152.634 29.7768 152.53C29.6502 152.52 29.6798 152.325 29.8058 152.335Z" fill="white"/>
<path d="M36.8952 144.17C37.0168 144.386 37.19 144.568 37.3994 144.7C37.6088 144.833 37.8478 144.911 38.0948 144.928C38.2215 144.936 38.1918 145.131 38.0659 145.123C37.793 145.103 37.5292 145.016 37.2975 144.87C37.0659 144.725 36.8734 144.524 36.7369 144.287C36.7221 144.266 36.7161 144.24 36.7199 144.214C36.7237 144.188 36.7371 144.165 36.7574 144.149C36.7784 144.134 36.8047 144.127 36.8305 144.131C36.8563 144.135 36.8795 144.149 36.8952 144.17Z" fill="white"/>
<path d="M139.625 145.737C139.216 141.28 136.608 136.818 132.426 135.237C133.947 139.86 133.786 144.872 131.97 149.387C131.264 151.126 130.298 152.986 130.852 154.779C131.197 155.895 132.1 156.769 133.123 157.331C134.147 157.892 135.293 158.181 136.425 158.464L136.643 158.657C138.584 154.625 140.034 150.194 139.625 145.737Z" fill="#F0F0F0"/>
<path d="M132.376 135.319C134.751 138.161 136.17 141.679 136.433 145.374C136.504 146.169 136.449 146.969 136.271 147.747C136.072 148.498 135.677 149.183 135.125 149.73C134.62 150.25 134.044 150.724 133.675 151.358C133.491 151.685 133.378 152.048 133.343 152.422C133.309 152.796 133.354 153.173 133.475 153.529C133.755 154.422 134.338 155.162 134.934 155.866C135.595 156.647 136.295 157.448 136.554 158.464C136.585 158.587 136.774 158.531 136.743 158.408C136.292 156.64 134.626 155.591 133.867 153.988C133.512 153.24 133.381 152.38 133.76 151.615C134.092 150.945 134.686 150.457 135.201 149.934C135.747 149.409 136.157 148.757 136.393 148.037C136.611 147.271 136.696 146.474 136.646 145.679C136.563 143.889 136.198 142.123 135.566 140.446C134.856 138.527 133.822 136.745 132.511 135.176C132.43 135.079 132.296 135.223 132.376 135.319Z" fill="white"/>
<path d="M136.422 144.18C137.036 144.052 137.583 143.71 137.968 143.214C138.352 142.719 138.548 142.103 138.521 141.476C138.519 141.451 138.508 141.427 138.49 141.409C138.471 141.392 138.446 141.382 138.421 141.383C138.395 141.383 138.371 141.394 138.353 141.412C138.335 141.43 138.324 141.454 138.324 141.48C138.35 142.063 138.168 142.637 137.809 143.098C137.45 143.558 136.938 143.875 136.367 143.991C136.242 144.016 136.299 144.206 136.422 144.18Z" fill="white"/>
<path d="M135.418 149.501C134.34 148.808 133.562 147.735 133.239 146.494C133.208 146.371 133.019 146.427 133.05 146.549C133.388 147.84 134.2 148.956 135.324 149.674C135.431 149.742 135.524 149.569 135.418 149.501Z" fill="white"/>
<path d="M134.672 138.709C134.445 138.808 134.197 138.849 133.95 138.829C133.703 138.808 133.465 138.727 133.258 138.591C133.152 138.522 133.058 138.695 133.163 138.765C133.393 138.913 133.656 139.003 133.929 139.026C134.201 139.049 134.476 139.005 134.727 138.898C134.752 138.89 134.773 138.873 134.785 138.85C134.797 138.827 134.801 138.801 134.794 138.776C134.787 138.751 134.769 138.73 134.747 138.717C134.724 138.705 134.697 138.702 134.672 138.709Z" fill="white"/>
<path d="M119.281 142.752C119.346 142.797 119.411 142.842 119.477 142.889C120.348 143.504 121.169 144.189 121.93 144.937C121.99 144.994 122.049 145.053 122.107 145.111C123.922 146.933 125.383 149.075 126.415 151.431C126.826 152.368 127.164 153.336 127.427 154.325C127.791 155.691 128.077 157.201 128.848 158.333C128.927 158.452 129.013 158.566 129.107 158.675L136.392 158.909C136.409 158.901 136.426 158.895 136.443 158.887L136.733 158.91C136.723 158.858 136.711 158.804 136.701 158.752C136.696 158.722 136.688 158.692 136.683 158.662C136.678 158.642 136.674 158.621 136.671 158.603C136.67 158.596 136.668 158.59 136.667 158.585C136.664 158.566 136.66 158.549 136.657 158.533C136.593 158.232 136.528 157.932 136.46 157.632C136.46 157.63 136.46 157.63 136.458 157.628C135.962 155.335 135.195 153.108 134.175 150.996C134.144 150.933 134.112 150.869 134.078 150.806C133.604 149.87 133.055 148.974 132.435 148.128C132.094 147.666 131.73 147.221 131.345 146.796C130.346 145.698 129.181 144.765 127.893 144.03C125.324 142.564 122.316 141.938 119.496 142.692C119.424 142.711 119.353 142.731 119.281 142.752Z" fill="#F0F0F0"/>
<path d="M119.293 142.844C122.898 143.682 126.147 145.636 128.579 148.428C129.114 149.02 129.552 149.692 129.877 150.42C130.171 151.14 130.267 151.925 130.155 152.694C130.065 153.413 129.89 154.139 129.976 154.868C130.026 155.24 130.154 155.598 130.351 155.917C130.549 156.237 130.811 156.511 131.122 156.721C131.883 157.266 132.793 157.505 133.692 157.708C134.69 157.933 135.731 158.151 136.549 158.806C136.648 158.885 136.765 158.727 136.666 158.648C135.243 157.508 133.281 157.675 131.711 156.852C130.978 156.468 130.356 155.861 130.199 155.021C130.061 154.287 130.241 153.539 130.338 152.811C130.458 152.062 130.393 151.295 130.149 150.578C129.862 149.835 129.451 149.147 128.933 148.543C127.789 147.164 126.436 145.973 124.923 145.015C123.202 143.912 121.305 143.111 119.314 142.648C119.191 142.62 119.171 142.816 119.293 142.844Z" fill="white"/>
<path d="M127.846 147.483C128.259 147.011 128.49 146.408 128.499 145.78C128.508 145.153 128.294 144.543 127.895 144.059C127.814 143.962 127.659 144.083 127.74 144.181C128.112 144.631 128.312 145.199 128.302 145.783C128.292 146.367 128.075 146.928 127.688 147.366C127.604 147.461 127.763 147.578 127.846 147.483Z" fill="white"/>
<path d="M130.25 152.335C128.972 152.432 127.706 152.044 126.702 151.247C126.603 151.168 126.485 151.327 126.585 151.406C127.631 152.232 128.95 152.634 130.279 152.53C130.405 152.52 130.376 152.325 130.25 152.335Z" fill="white"/>
<path d="M123.156 144.17C123.035 144.386 122.861 144.568 122.652 144.7C122.443 144.833 122.204 144.911 121.957 144.928C121.83 144.936 121.86 145.131 121.985 145.123C122.258 145.103 122.522 145.016 122.754 144.87C122.985 144.725 123.178 144.524 123.314 144.287C123.329 144.266 123.335 144.24 123.331 144.214C123.328 144.188 123.314 144.165 123.294 144.149C123.273 144.134 123.247 144.127 123.221 144.131C123.195 144.135 123.172 144.149 123.156 144.17Z" fill="white"/>
<path d="M190 159.265C190 159.332 189.973 159.396 189.926 159.444C189.878 159.491 189.814 159.518 189.747 159.518H0.252999C0.1859 159.518 0.121548 159.492 0.0741013 159.444C0.0266548 159.397 0 159.332 0 159.265C0 159.198 0.0266548 159.133 0.0741013 159.086C0.121548 159.038 0.1859 159.012 0.252999 159.012H189.747C189.814 159.012 189.878 159.039 189.926 159.086C189.973 159.134 190 159.198 190 159.265Z" fill="#3F3D56"/>
<path d="M122.058 61.2934C122.587 61.2934 123.015 60.8646 123.015 60.3356C123.015 59.8067 122.587 59.3779 122.058 59.3779C121.53 59.3779 121.102 59.8067 121.102 60.3356C121.102 60.8646 121.53 61.2934 122.058 61.2934Z" fill="#3F3D56"/>
<path d="M110.076 67.7125L122.974 59.6008C123.09 59.5274 123.221 59.4785 123.357 59.4569C123.493 59.4353 123.632 59.4416 123.766 59.4753C123.899 59.5091 124.025 59.5696 124.134 59.6532C124.244 59.7368 124.335 59.8418 124.403 59.9618C124.471 60.0818 124.514 60.2143 124.529 60.3514C124.545 60.4885 124.532 60.6273 124.493 60.7593C124.453 60.8914 124.387 61.0141 124.298 61.1199C124.21 61.2257 124.101 61.3125 123.978 61.375L110.399 68.2844C110.324 68.3227 110.237 68.3305 110.156 68.3061C110.075 68.2817 110.006 68.2269 109.965 68.1533C109.923 68.0796 109.911 67.9927 109.932 67.9106C109.953 67.8285 110.004 67.7576 110.076 67.7125Z" fill="#E4E4E4"/>
<path d="M84.199 85.1789C84.0974 85.0277 84.0443 84.8491 84.047 84.6669C84.0496 84.4847 84.1078 84.3076 84.2137 84.1594C84.432 83.8669 84.7226 83.6362 85.0569 83.4901C85.7471 83.1385 86.4904 82.9033 87.2571 82.7941C87.8397 82.7113 88.4756 82.6849 88.9275 82.3076C89.3765 81.9328 89.6268 81.232 90.2084 81.1735C90.7708 81.117 91.2031 81.7332 91.767 81.7714C92.4621 81.8186 92.9172 81.0042 93.5936 80.8372C94.0463 80.7254 94.5118 80.9227 94.9365 81.1155L97.485 82.2729L98.7913 82.8662C99.2476 83.0734 99.7621 83.3524 99.8483 83.8465C99.9666 84.5254 99.2125 85.0044 98.5675 85.2455C93.9624 86.9468 88.902 86.9474 84.2965 85.2473" fill="#F50057"/>
<path d="M88.0398 97.6865C106.533 97.6865 121.525 95.5426 121.525 92.8979C121.525 90.2533 106.533 88.1094 88.0398 88.1094C69.5465 88.1094 54.5547 90.2533 54.5547 92.8979C54.5547 95.5426 69.5465 97.6865 88.0398 97.6865Z" fill="#3F3D56"/>
<path d="M155.968 122.587H133.007C131.95 122.587 131.094 123.444 131.094 124.502C131.094 125.56 131.95 126.418 133.007 126.418H155.968C157.025 126.418 157.882 125.56 157.882 124.502C157.882 123.444 157.025 122.587 155.968 122.587Z" fill="#3F3D56"/>
<path d="M167.095 88.4371L159.511 124.5L161.486 133.731L165.215 151.15V158.98C165.216 158.991 165.215 159.001 165.213 159.012C165.212 159.185 165.18 159.356 165.12 159.519H162.122C162.062 159.356 162.03 159.185 162.029 159.012C162.027 159.001 162.026 158.991 162.026 158.98V151.487L158.642 135.676L157.957 132.483L156.633 126.297L156.25 124.505V124.502L156.628 122.706L156.92 121.321L163.974 87.7816C164.017 87.5763 164.1 87.3814 164.218 87.2082C164.336 87.035 164.487 86.8867 164.662 86.7719C164.838 86.6572 165.034 86.5781 165.24 86.5393C165.446 86.5005 165.657 86.5027 165.862 86.5457C166.067 86.5888 166.262 86.6719 166.435 86.7903C166.608 86.9087 166.756 87.06 166.87 87.2357C166.985 87.4113 167.063 87.6078 167.102 87.814C167.141 88.0201 167.138 88.2319 167.095 88.4371Z" fill="#3F3D56"/>
<path d="M134.603 124.502V158.98C134.604 158.991 134.603 159.001 134.601 159.012C134.6 159.185 134.568 159.357 134.507 159.519H131.51C131.449 159.357 131.418 159.185 131.416 159.012C131.414 159.001 131.414 158.991 131.414 158.98V124.502C131.414 124.079 131.582 123.673 131.881 123.374C132.18 123.074 132.586 122.906 133.009 122.906C133.432 122.906 133.837 123.074 134.136 123.374C134.435 123.673 134.603 124.079 134.603 124.502Z" fill="#3F3D56"/>
<path d="M136.834 118.756H152.142C153.664 118.756 155.124 119.361 156.201 120.439C157.277 121.517 157.882 122.978 157.882 124.502H131.094C131.094 122.978 131.699 121.517 132.775 120.439C133.852 119.361 135.312 118.756 136.834 118.756Z" fill="#3F3D56"/>
<path d="M159.797 135.676H133.009C132.586 135.676 132.18 135.508 131.881 135.208C131.582 134.909 131.414 134.503 131.414 134.08C131.414 133.656 131.582 133.25 131.881 132.951C132.18 132.652 132.586 132.483 133.009 132.483H159.797C160.22 132.483 160.625 132.652 160.924 132.951C161.223 133.25 161.391 133.656 161.391 134.08C161.391 134.503 161.223 134.909 160.924 135.208C160.625 135.508 160.22 135.676 159.797 135.676Z" fill="#3F3D56"/>
<path d="M35.1915 126.477H62.2116C63.2683 126.477 64.125 125.619 64.125 124.561V123.981C64.125 122.923 63.2683 122.065 62.2116 122.065H35.1915C34.1348 122.065 33.2781 122.923 33.2781 123.981V124.561C33.2781 125.619 34.1348 126.477 35.1915 126.477Z" fill="#3F3D56"/>
<path d="M34.9094 124.296L34.4204 126.314L32.626 133.703L31.8522 136.896L28.2591 151.704V158.129C28.26 158.444 28.1668 158.751 27.9913 159.012C27.8533 159.223 27.6657 159.397 27.4449 159.519H25.8843C25.6635 159.397 25.4759 159.223 25.338 159.012C25.1625 158.751 25.0691 158.444 25.07 158.129V151.321L29.0628 134.869L31.6396 124.245L22.9015 82.6911C22.8583 82.486 22.8559 82.2744 22.8944 82.0684C22.9329 81.8623 23.0116 81.6659 23.126 81.4903C23.2403 81.3148 23.3882 81.1635 23.561 81.0451C23.7339 80.9268 23.9283 80.8437 24.1332 80.8006C24.3382 80.7576 24.5496 80.7554 24.7553 80.7941C24.9611 80.8329 25.1573 80.9119 25.3325 81.0266C25.5078 81.1413 25.6588 81.2894 25.7768 81.4626C25.8948 81.6357 25.9776 81.8304 26.0204 82.0356L34.0973 120.436L34.4694 122.206L34.903 124.271L34.9094 124.296Z" fill="#3F3D56"/>
<path d="M63.5172 124.271V158.129C63.5182 158.444 63.4248 158.752 63.2493 159.013C63.1113 159.224 62.9237 159.398 62.7029 159.519H61.1402C60.9205 159.397 60.7337 159.223 60.596 159.013C60.4205 158.752 60.3272 158.444 60.3281 158.129V124.271C60.3281 123.848 60.4961 123.442 60.7952 123.142C61.0942 122.843 61.4998 122.675 61.9227 122.675C62.3456 122.675 62.7511 122.843 63.0502 123.142C63.3492 123.442 63.5172 123.848 63.5172 124.271Z" fill="#3F3D56"/>
<path d="M64.125 124.271H33.2781V123.4C33.2781 122.645 33.4265 121.898 33.715 121.201C34.0035 120.504 34.4263 119.87 34.9594 119.337C35.4924 118.803 36.1252 118.38 36.8217 118.091C37.5181 117.802 38.2646 117.654 39.0184 117.654H58.3847C59.9071 117.654 61.3672 118.259 62.4437 119.337C63.5202 120.414 64.125 121.876 64.125 123.4L64.125 124.271Z" fill="#3F3D56"/>
<path d="M61.918 136.895H31.0711C30.6482 136.895 30.2426 136.726 29.9436 136.427C29.6446 136.128 29.4766 135.722 29.4766 135.298C29.4766 134.875 29.6446 134.469 29.9436 134.17C30.2426 133.87 30.6482 133.702 31.0711 133.702H61.918C62.3409 133.702 62.7465 133.87 63.0455 134.17C63.3446 134.469 63.5126 134.875 63.5126 135.298C63.5126 135.722 63.3446 136.128 63.0455 136.427C62.7465 136.726 62.3409 136.895 61.918 136.895Z" fill="#3F3D56"/>
<path d="M101.562 150.819L98.2109 149.214L102.814 135.191L107.761 137.559L101.562 150.819Z" fill="#9E616A"/>
<path d="M124.278 149.549L120.674 150.439L115.453 136.638L120.772 135.324L124.278 149.549Z" fill="#9E616A"/>
<path d="M110.467 89.8686C110.945 90.6457 111.707 91.205 112.591 91.4271C113.476 91.6491 114.412 91.5164 115.2 91.0572C115.358 90.9612 115.508 90.8522 115.649 90.7314L126.244 96.8181L125.784 90.5699L115.793 85.7478C115.249 85.2011 114.54 84.8505 113.776 84.7509C113.012 84.6512 112.236 84.8082 111.571 85.1973C111.188 85.4275 110.854 85.7322 110.591 86.0933C110.327 86.4545 110.138 86.8647 110.035 87.3C109.932 87.7353 109.918 88.1868 109.992 88.6279C110.066 89.0691 110.227 89.4909 110.467 89.8686Z" fill="#9E616A"/>
<path d="M121.688 94.5269L123.56 95.6695L131.972 100.804C132.524 101.15 133.14 101.384 133.782 101.492C134.425 101.6 135.083 101.58 135.718 101.433C136.353 101.286 136.953 101.016 137.483 100.637C138.014 100.258 138.465 99.7777 138.81 99.2242C139.432 98.197 139.653 96.9753 139.428 95.7949L135.69 77.0978C135.552 76.3638 135.257 75.6683 134.825 75.0589C134.394 74.4494 133.836 73.9404 133.19 73.5666C132.545 73.1928 131.826 72.963 131.083 72.893C130.34 72.8229 129.591 72.9143 128.886 73.1608C127.703 73.5772 126.722 74.4295 126.143 75.5443C125.565 76.659 125.432 77.9525 125.773 79.1615L129.682 92.4305L123.69 89.6339L121.688 94.5269Z" fill="#E6E6E6"/>
<path d="M117.259 145.681L111.492 134.104L111.493 134.077L112.062 112.842C112.069 112.654 112.085 112.464 112.108 112.277C112.208 111.426 112.477 110.603 112.899 109.856C113.32 109.11 113.886 108.455 114.563 107.93C115.211 107.422 115.954 107.049 116.748 106.831C117.542 106.614 118.372 106.557 119.188 106.664L135.677 108.8L136.249 106.459L136.356 106.42L152.155 100.624L152.246 100.772C154.315 104.143 155.762 110.875 156.156 112.858L156.162 112.887C156.17 112.929 156.175 112.954 156.177 112.961C156.99 116.345 153.629 121.951 150.281 122.794C143.229 124.593 136.922 123.19 129.619 121.564C127.001 120.981 124.294 120.379 121.313 119.858L121.402 121.614C121.474 122.966 121.755 124.298 122.234 125.565C122.765 127.123 123.185 128.354 122.297 130.92L121.868 132.162C122.09 132.778 122.167 133.438 122.092 134.089C122.016 134.74 121.791 135.365 121.433 135.914L121.347 136.046L125.15 145.679L117.259 145.681Z" fill="#2F2E41"/>
<path d="M107.783 140.561L100.906 139.921L103.342 132.122C103.845 127.029 105.112 122.041 107.1 117.327L110.423 109.443C110.431 109.268 110.446 109.091 110.467 108.918C110.568 108.067 110.836 107.244 111.258 106.498C111.679 105.751 112.245 105.096 112.922 104.571C113.571 104.064 114.314 103.69 115.108 103.473C115.902 103.256 116.731 103.199 117.547 103.305L134.012 105.438L134.729 99.4129L150.533 97.2959L150.606 97.4137C153.368 101.913 155.122 105.435 156.125 108.498C156.175 108.655 156.22 108.814 156.258 108.973C157.077 112.38 155.033 115.834 151.701 116.673C143.211 118.839 133.001 118.779 119.577 116.482L113.081 131.959C112.46 133.437 111.691 134.849 110.786 136.172L107.783 140.561Z" fill="#2F2E41"/>
<path d="M131.77 62.4304C136.17 62.4304 139.736 58.7807 139.736 54.2787C139.736 49.7766 136.17 46.127 131.77 46.127C127.371 46.127 123.805 49.7766 123.805 54.2787C123.805 58.7807 127.371 62.4304 131.77 62.4304Z" fill="#9E616A"/>
<path d="M134.071 105.723L132.928 101.624L132.647 99.6026L131.004 99.6574L127.78 92.2078L126.528 90.2435C126.272 89.9743 126.041 89.7155 125.833 89.467C124.529 87.9906 123.482 86.3042 122.739 84.4789C122.218 83.1674 121.912 81.7803 121.833 80.3712C121.599 76.2088 123.352 71.8051 127.192 66.9091C127.129 66.7358 127.087 66.5555 127.067 66.3722C126.998 65.7775 127.167 65.1796 127.536 64.7088C127.906 64.2379 128.446 63.9321 129.039 63.8579L132.743 63.4416C133.031 63.409 133.322 63.434 133.601 63.5152C133.879 63.5964 134.138 63.7322 134.364 63.9147C134.599 64.1034 134.794 64.3372 134.938 64.6023C135.082 64.8674 135.172 65.1585 135.203 65.4588C135.253 65.9233 135.161 66.3919 134.941 66.8037C136.829 67.0436 138.607 67.8236 140.063 69.05C141.519 70.2764 142.591 71.8973 143.15 73.7181C145.366 77.8593 147.132 82.2263 148.418 86.7443C148.672 87.6293 148.559 88.5411 148.45 89.4228C148.349 90.2373 148.245 91.0796 148.42 91.919C148.598 92.7728 149.027 93.6293 149.482 94.5361C150.002 95.5747 150.54 96.6486 150.685 97.7433L150.696 97.8202L134.071 105.723Z" fill="#E4E4E4"/>
<path opacity="0.2" d="M122.836 84.4378C123.576 86.2525 124.617 87.9293 125.914 89.3978C126.136 89.6633 126.37 89.9241 126.616 90.1855L127.876 92.1647C132.521 88.6793 136.284 74.9561 136.284 74.9561L131.043 73.9355L122.836 84.4378Z" fill="black"/>
<path d="M119.661 63.1912C120.119 63.9803 120.253 64.9175 120.032 65.8035C119.811 66.6895 119.254 67.4542 118.478 67.935C118.319 68.0302 118.152 68.1121 117.979 68.1798L118.35 80.4034L113.062 77.0711L113.521 65.9743C113.296 65.2358 113.321 64.4436 113.594 63.7212C113.866 62.9988 114.369 62.3869 115.025 61.981C115.407 61.7496 115.832 61.5973 116.274 61.5329C116.716 61.4685 117.166 61.4935 117.598 61.6063C118.03 61.7191 118.435 61.9175 118.79 62.1897C119.144 62.4619 119.44 62.8024 119.661 63.1912Z" fill="#9E616A"/>
<path d="M118.815 75.7899L113 76.6177L113.25 88.6724C113.265 89.5324 113.498 90.3744 113.93 91.1183C114.361 91.8623 114.975 92.4835 115.713 92.923C116.616 93.4544 117.666 93.6779 118.706 93.5597C119.746 93.4414 120.72 92.988 121.48 92.2676L135.209 79.0486C136.175 78.1313 136.753 76.8783 136.824 75.5474C136.896 74.2165 136.455 72.9088 135.593 71.8933C135.166 71.3877 134.642 70.973 134.052 70.6739C133.462 70.3748 132.818 70.1974 132.159 70.1522C131.499 70.107 130.837 70.1949 130.212 70.4107C129.587 70.6265 129.011 70.9658 128.52 71.4085C128.384 71.5299 128.255 71.6586 128.133 71.7939L119.068 82.2335L118.815 75.7899Z" fill="#E6E6E6"/>
<path d="M70.1803 154.419L74.3078 154.419L76.2714 138.481L70.1797 138.482L70.1803 154.419Z" fill="#FFB6B6"/>
<path d="M46.7849 62.6661C51.3347 62.6661 55.023 58.974 55.023 54.4195C55.023 49.865 51.3347 46.1729 46.7849 46.1729C42.2352 46.1729 38.5469 49.865 38.5469 54.4195C38.5469 58.974 42.2352 62.6661 46.7849 62.6661Z" fill="#FFB6B6"/>
<path d="M75.6556 149.51H69.8107L68.3206 147.51L67.9172 145.626L67.5701 145.29C67.0991 144.837 66.7947 144.239 66.706 143.592C66.6173 142.944 66.7496 142.286 67.0815 141.723L62.8454 121.938C61.736 121.841 49.224 120.721 40.5266 119.18C38.3007 118.786 36.5629 117.703 35.3613 115.961C32.4087 111.681 33.6735 104.755 33.6866 104.686L33.7012 104.609L33.7792 104.6L54.0945 102.317L54.1219 102.33C54.796 102.65 70.6627 110.19 73.2556 112.786C74.4265 113.958 77.0387 120.922 77.6235 128.325C77.7282 129.651 77.3512 131.002 76.9867 132.308C76.6455 133.53 76.2928 134.794 76.3625 135.989C76.47 137.832 76.5719 139.766 76.6655 141.736C76.6804 142.05 76.9167 142.375 77.1452 142.689C77.3839 143.018 77.6094 143.328 77.6237 143.652C77.7626 146.799 75.7083 149.443 75.6875 149.469L75.6556 149.51Z" fill="#2F2E41"/>
<path d="M76.9854 76.3846C76.5428 76.2635 76.0791 76.241 75.627 76.3187C75.1748 76.3964 74.7451 76.5724 74.3682 76.8343C73.9914 77.0962 73.6764 77.4376 73.4456 77.8345C73.2148 78.2314 73.0737 78.6742 73.0324 79.1316L66.1875 81.2731L66.4731 85.7545L76.0969 82.5943C76.8691 82.6129 77.6213 82.3474 78.211 81.848C78.8007 81.3485 79.1869 80.6499 79.2964 79.8845C79.4059 79.1191 79.2311 78.3401 78.8052 77.695C78.3793 77.05 77.7318 76.5837 76.9854 76.3846Z" fill="#FFB6B6"/>
<path d="M72.5206 83.8005L67.4048 85.7387L67.274 85.9927C66.9604 86.6018 66.4179 87.0612 65.7659 87.2699C65.1139 87.4786 64.4058 87.4194 63.7974 87.1055L52.2988 91.462C52.2988 91.462 47.1638 86.318 43.5078 81.7272L44.7538 74.0553C45.0424 72.2753 45.6558 70.5636 46.5633 69.0059C54.061 70.6517 58.3649 81.1437 58.3649 81.1437L71.8777 78.5627L72.5206 83.8005Z" fill="#F50057"/>
<path d="M45.6187 62.2256C43.5563 62.7832 41.2826 62.0419 39.6731 60.6357C38.0636 59.2295 37.0568 57.237 36.4767 55.1788C36.0518 53.6715 35.8504 51.9983 36.5208 50.5832C37.1913 49.1681 38.9957 48.2133 40.3879 48.9281C39.5291 47.9265 39.9581 46.2699 40.9611 45.4131C41.9641 44.5563 43.3414 44.3106 44.6531 44.1763C46.5568 43.9815 48.5232 43.9596 50.3347 44.577C52.1462 45.1944 53.7921 46.5442 54.3591 48.3738C54.9381 48.6437 55.5902 48.7137 56.2133 48.5729C56.8363 48.432 57.3951 48.0883 57.8022 47.5956C57.9071 48.1615 57.8228 48.7463 57.5623 49.2594C57.3018 49.7726 56.8797 50.1855 56.3612 50.4343L59.1368 49.5334C59.6141 50.5449 58.7777 51.7967 57.7081 52.1206C56.6385 52.4445 55.4839 52.0904 54.4689 51.6225C53.4539 51.1546 52.4703 50.563 51.3678 50.3805C50.2653 50.1979 48.9703 50.5526 48.4603 51.5479C48.1932 52.0693 48.1793 52.6798 48.0242 53.2448C47.8691 53.8097 47.4763 54.3955 46.8928 54.4417C46.5242 54.4709 46.1633 54.2744 45.7957 54.3145C45.34 54.3644 44.9912 54.7776 44.8698 55.2202C44.7783 55.6711 44.7772 56.1358 44.8665 56.5872L45.5715 61.9819" fill="#2F2E41"/>
<path d="M35.4124 116.946C35.4109 116.946 35.4093 116.946 35.4078 116.945L35.3426 116.934L35.3238 116.871C35.0869 116.073 34.7856 115.257 34.4941 114.468C34.0648 113.374 33.7024 112.256 33.4087 111.119C33.1776 110.031 33.0174 108.93 32.9291 107.822C32.8477 107.017 32.7637 106.185 32.6207 105.366C32.5572 105.003 32.7978 104.658 33.0305 104.325C33.2462 104.016 33.45 103.725 33.4072 103.449C33.3635 103.167 33.0509 102.857 32.7486 102.557C32.4173 102.229 32.0747 101.889 32.0261 101.531C31.3658 96.6535 31.0584 91.7341 31.1064 86.8117C31.1747 80.0012 31.4822 75.3591 32.0203 73.0141C33.4672 66.7087 40.1521 65.558 41.1985 65.416C41.3099 65.1188 41.4813 64.8478 41.7019 64.6198C41.9225 64.3918 42.1876 64.2117 42.4807 64.0907C42.7738 63.9697 43.0887 63.9104 43.4057 63.9164C43.7227 63.9225 44.0351 63.9938 44.3234 64.1259L49.0731 66.3025C50.0366 66.7456 50.8988 67.3822 51.606 68.1729C52.3133 68.9637 52.8506 69.8915 53.1844 70.8989L53.89 73.0522L54.2435 87.5072L52.2849 97.6863L56.1117 103.433C35.7159 114.642 35.4781 116.946 35.4124 116.946Z" fill="#F50057"/>
<path d="M67.9609 152.813L69.3029 152.813L74.5423 150.68L77.3505 152.812H77.3508C78.9378 152.812 80.4597 153.443 81.5818 154.567C82.704 155.69 83.3344 157.214 83.3346 158.802V158.997L67.9612 158.997L67.9609 152.813Z" fill="#2F2E41"/>
<path d="M78.7026 86.6999C78.3069 86.4674 77.8652 86.3245 77.4084 86.2814C76.9516 86.2383 76.491 86.296 76.0589 86.4504C75.6268 86.6048 75.2338 86.8522 74.9075 87.1751C74.5813 87.4979 74.3297 87.8885 74.1706 88.3193L67.0046 88.599L66.0391 91.9404L76.2265 92.4624C76.9671 92.6821 77.7624 92.6222 78.4619 92.2941C79.1613 91.9659 79.7162 91.3924 80.0214 90.6821C80.3266 89.9718 80.3609 89.1741 80.1179 88.4401C79.8748 87.7062 79.3712 87.087 78.7026 86.6999Z" fill="#FFB6B6"/>
<path d="M72.8143 92.8227L65.4534 92.7308L64.5216 92.7182L49.5456 92.5293C49.5456 92.5293 45.4787 88.6454 41.9375 84.6467L42.4338 81.0529C42.918 77.5259 44.6658 74.2952 47.3519 71.9619C52.4238 75.3544 55.3651 82.0696 55.3651 82.0696L60.2967 84.2786C63.7674 84.434 67.1494 85.4255 70.1555 87.1689L71.7773 88.1095L72.8143 92.8227Z" fill="#F50057"/>
<path d="M126.905 156.346L124.456 156.951L123.448 154.744L122.899 157.336L116.404 158.94C116.092 159.017 115.764 158.993 115.468 158.87C115.172 158.747 114.922 158.533 114.756 158.258C114.59 157.983 114.516 157.663 114.545 157.343C114.574 157.023 114.704 156.721 114.917 156.481L119.22 151.613L118.643 149.273L124.18 148.251L126.905 156.346Z" fill="#2F2E41"/>
<path d="M100.958 157.103L98.6227 156.149L99.1059 153.771L97.1381 155.542L90.9435 153.011C90.6466 152.89 90.3962 152.677 90.2288 152.403C90.0615 152.129 89.9859 151.809 90.0133 151.489C90.0406 151.169 90.1694 150.866 90.3808 150.625C90.5922 150.383 90.8752 150.216 91.1884 150.147L97.5297 148.748L98.4396 146.517L103.516 148.954L100.958 157.103Z" fill="#2F2E41"/>
<path d="M92.8219 92.0464H90.9085C88.8511 92.0441 86.8787 91.2249 85.4239 89.7686C83.9691 88.3123 83.1508 86.3378 83.1484 84.2783V84.1719H100.582V84.2783C100.58 86.3378 99.7613 88.3123 98.3065 89.7686C96.8517 91.2249 94.8793 92.0441 92.8219 92.0464Z" fill="#E4E4E4"/>
<path d="M90.9134 81.406C90.9134 81.9349 89.9567 82.3637 89.9567 82.3637C89.9567 82.3637 89 81.9349 89 81.406C89 80.877 89.9567 80.4482 89.9567 80.4482C89.9567 80.4482 90.9134 80.877 90.9134 81.406Z" fill="#3F3D56"/>
<path d="M96.6556 81.406C96.6556 81.9349 95.6989 82.3637 95.6989 82.3637C95.6989 82.3637 94.7422 81.9349 94.7422 81.406C94.7422 80.877 95.6989 80.4482 95.6989 80.4482C95.6989 80.4482 96.6556 80.877 96.6556 81.406Z" fill="#3F3D56"/>
<path d="M92.8275 83.321C92.8275 83.8499 91.8708 84.2787 91.8708 84.2787C91.8708 84.2787 90.9141 83.8499 90.9141 83.321C90.9141 82.7921 91.8708 82.3633 91.8708 82.3633C91.8708 82.3633 92.8275 82.7921 92.8275 83.321Z" fill="#3F3D56"/>
<path d="M86.1286 79.3842C86.657 79.3842 87.0853 78.9554 87.0853 78.4265C87.0853 77.8975 86.657 77.4688 86.1286 77.4688C85.6002 77.4688 85.1719 77.8975 85.1719 78.4265C85.1719 78.9554 85.6002 79.3842 86.1286 79.3842Z" fill="#3F3D56"/>
<path d="M72.2174 76.3683L87.3065 78.4544C87.443 78.4733 87.5742 78.5196 87.6924 78.5907C87.8105 78.6618 87.913 78.7561 87.9936 78.8679C88.0743 78.9797 88.1315 79.1067 88.1618 79.2413C88.1921 79.3759 88.1948 79.5152 88.1698 79.6509C88.1448 79.7865 88.0925 79.9157 88.0163 80.0305C87.94 80.1454 87.8412 80.2436 87.726 80.3193C87.6107 80.3949 87.4814 80.4463 87.3457 80.4705C87.21 80.4946 87.0709 80.491 86.9366 80.4598L72.0982 77.0148C72.0158 76.9956 71.9439 76.9454 71.8975 76.8746C71.8512 76.8038 71.8339 76.7178 71.8492 76.6345C71.8646 76.5512 71.9114 76.4771 71.98 76.4275C72.0486 76.3779 72.1336 76.3567 72.2174 76.3683Z" fill="#E4E4E4"/>
<path d="M90.5509 28.7767V0H88.6375V28.7767C86.0231 29.0155 83.5923 30.2238 81.8223 32.1646C80.0522 34.1053 79.0706 36.6382 79.0703 39.2662V42.1393H85.7673C85.7673 43.1553 86.1705 44.1297 86.8882 44.8482C87.6059 45.5666 88.5793 45.9702 89.5942 45.9702C90.6092 45.9702 91.5825 45.5666 92.3002 44.8482C93.0179 44.1297 93.4211 43.1553 93.4211 42.1393H100.118V39.2662C100.118 36.6382 99.1363 34.1053 97.3662 32.1646C95.5961 30.2238 93.1653 29.0155 90.5509 28.7767Z" fill="#F0F0F0"/>
<path d="M115.189 21.5825V0H113.754V21.5825C111.793 21.7616 109.97 22.6679 108.642 24.1234C107.315 25.579 106.578 27.4787 106.578 29.4496V31.6045H111.601C111.601 32.3665 111.903 33.0973 112.442 33.6361C112.98 34.1749 113.71 34.4776 114.471 34.4776C115.232 34.4776 115.962 34.1749 116.501 33.6361C117.039 33.0973 117.341 32.3665 117.341 31.6045H122.364V29.4496C122.364 27.4787 121.628 25.579 120.3 24.1234C118.972 22.6679 117.149 21.7616 115.189 21.5825Z" fill="#F0F0F0"/>
<path d="M66.712 21.5825V0H65.2769V21.5825C63.3162 21.7616 61.4931 22.6679 60.1655 24.1234C58.8379 25.579 58.1018 27.4787 58.1016 29.4496V31.6045H63.1243C63.1243 32.3665 63.4267 33.0973 63.965 33.6361C64.5032 34.1749 65.2333 34.4776 65.9945 34.4776C66.7557 34.4776 67.4857 34.1749 68.024 33.6361C68.5622 33.0973 68.8646 32.3665 68.8646 31.6045H73.8874V29.4496C73.8872 27.4787 73.151 25.579 71.8235 24.1234C70.4959 22.6679 68.6728 21.7616 66.712 21.5825Z" fill="#F0F0F0"/>
<path d="M153.085 50.7428C151.731 49.1622 151.087 47.0651 150.005 45.2702C148.923 43.4753 147.039 41.8689 145.049 42.2865C143.677 42.5745 142.617 43.7862 142.08 45.1371C141.544 46.488 141.443 47.9778 141.349 49.4373C141.382 46.438 139.408 43.5304 136.689 42.5734C133.97 41.6163 130.716 42.6838 129.007 45.0934C128.262 44.4016 127.289 44.0077 126.272 43.9863C125.256 43.965 124.267 44.3177 123.493 44.9775C121.965 46.3449 121.626 48.9474 122.75 50.6915C123.874 52.4356 126.308 53.0854 128.095 52.1181L128.726 52.6996C128.371 53.944 129.06 55.4141 130.219 55.8826C131.158 56.2625 132.485 56.1992 132.836 57.1863C133.082 57.876 132.623 58.6122 132.134 59.1421C131.646 59.6721 131.066 60.2194 131.007 60.9528C130.918 62.0594 132.061 62.8345 133.099 63.068C135.603 63.6309 138.381 62.4702 139.825 60.2582C139.852 60.2155 139.883 60.1728 139.915 60.1301C140.725 59.0935 141.315 57.9026 141.649 56.6301C141.984 55.3576 142.056 54.0302 141.86 52.729C141.779 52.2178 141.861 51.8375 142.213 51.7164C143.735 51.1931 147.999 52.2915 149.29 53.2841C150.58 54.2768 151.614 55.5906 152.857 56.6473C154.1 57.7041 155.684 58.5193 157.262 58.2315C158.526 58.001 159.602 57.0823 160.325 55.9742C161.048 54.8661 161.464 53.5745 161.837 52.2908C159.042 53.9073 155.216 53.2306 153.085 50.7428Z" fill="#2F2E41"/>
</g>
<defs>
<clipPath id="clip0_649_16312">
<rect width="190" height="159.519" fill="white"/>
</clipPath>
</defs>
</svg>
