<svg width="230" height="183" viewBox="0 0 230 183" fill="none" xmlns="http://www.w3.org/2000/svg">
<path d="M71.0709 32.107H67.1772C66.8158 32.107 66.4692 31.9577 66.2136 31.692C65.958 31.4263 65.8145 31.066 65.8145 30.6902C65.8145 30.3145 65.958 29.9541 66.2136 29.6884C66.4692 29.4227 66.8158 29.2734 67.1772 29.2734H71.0709C71.4323 29.2734 71.779 29.4227 72.0345 29.6884C72.2901 29.9541 72.4337 30.3145 72.4337 30.6902C72.4337 31.066 72.2901 31.4263 72.0345 31.692C71.779 31.9577 71.4323 32.107 71.0709 32.107Z" fill="#FFEADA"/>
<path d="M72.437 31.2969H65.8178C65.6113 31.2969 65.4132 31.2116 65.2672 31.0598C65.1211 30.908 65.0391 30.702 65.0391 30.4873C65.0391 30.2726 65.1211 30.0667 65.2672 29.9149C65.4132 29.763 65.6113 29.6777 65.8178 29.6777H72.437C72.6435 29.6777 72.8416 29.763 72.9877 29.9149C73.1337 30.0667 73.2157 30.2726 73.2157 30.4873C73.2157 30.702 73.1337 30.908 72.9877 31.0598C72.8416 31.2116 72.6435 31.2969 72.437 31.2969Z" fill="#CACACA"/>
<path d="M71.6447 34.7487H66.4868C65.9228 34.7479 65.3822 34.5145 64.9837 34.0996C64.5852 33.6847 64.3613 33.1223 64.3613 32.536C64.3613 31.9496 64.5852 31.3873 64.9837 30.9724C65.3822 30.5575 65.9228 30.324 66.4868 30.3232H71.6447C72.2092 30.3232 72.7506 30.5564 73.1497 30.9713C73.5489 31.3863 73.7731 31.9491 73.7731 32.536C73.7731 33.1228 73.5489 33.6857 73.1497 34.1006C72.7506 34.5156 72.2092 34.7487 71.6447 34.7487Z" fill="#FFEADA"/>
<path d="M59.3781 42.7585C58.373 49.5495 109.283 49.5495 108.274 42.7574C109.279 35.9674 58.369 35.9674 59.3781 42.7585Z" fill="#2F2E41"/>
<path d="M85.2629 45.3535H82.3867V84.9161H85.2629V45.3535Z" fill="#2F2E41"/>
<path d="M67.018 40.2551C66.8491 39.913 66.6077 39.6153 66.3119 39.3845C66.0161 39.1538 65.6737 38.9959 65.3106 38.923C64.9474 38.8501 64.5731 38.8639 64.2159 38.9635C63.8587 39.0631 63.528 39.2459 63.2487 39.498L52.69 36.8984L51.9113 34.2119L47.6992 34.9308C48.2695 36.7582 48.0403 41.4404 50.7518 41.4884L62.6973 42.5825C64.1174 45.4947 68.4766 43.131 67.018 40.2551Z" fill="#FFCFCF"/>
<path d="M44.1263 59.3646H54.7484C54.7484 59.682 65.6957 59.9396 65.6957 59.9396C67.798 61.5398 66.8095 65.6564 64.0385 65.5749L44.1263 65.575C40.4642 65.6293 40.4567 59.3111 44.1263 59.3646Z" fill="#DFDFDF"/>
<path d="M55.6809 65.4609H52.8047V84.7822H55.6809V65.4609Z" fill="#DFDFDF"/>
<path d="M63.8702 84.6775C63.8702 85.0006 59.5117 84.8025 54.1353 84.8025C48.7588 84.8025 44.4004 85.0006 44.4004 84.6775C48.0972 81.0076 60.226 81.0408 63.8702 84.6775Z" fill="#DFDFDF"/>
<path d="M61.0453 82.182L63.7576 82.1816L65.048 74.8682H61.0449L61.0453 82.182Z" fill="#FFCFCF"/>
<path d="M60.3439 84.9156L69.0899 84.9152C69.2191 80.1431 63.2199 81.3955 60.3438 81.2614L60.3439 84.9156Z" fill="#2F2E41"/>
<path d="M65.106 77.6468L70.5134 65.0402C70.9649 63.9777 71.0148 62.7773 70.6533 61.6783C70.2917 60.5792 69.5452 59.662 68.5624 59.1095L56.8333 52.5707C54.2737 52.3552 49.0937 51.8763 46.544 51.6309C41.9088 60.3388 61.257 62.3089 63.9966 63.8024C64.1001 63.8311 64.1967 63.8817 64.2804 63.9511C64.3641 64.0205 64.4332 64.1071 64.4832 64.2055C64.5332 64.3039 64.5631 64.4119 64.5711 64.5229C64.5791 64.6339 64.5649 64.7454 64.5294 64.8504L59.5057 76.5846C59.454 76.7334 59.4356 76.8926 59.4521 77.0499C59.4686 77.2073 59.5194 77.3586 59.6007 77.4924C59.682 77.6262 59.7917 77.7389 59.9213 77.8219C60.0509 77.9049 60.197 77.9561 60.3485 77.9714C61.1426 77.7795 64.7613 78.9203 65.106 77.6468Z" fill="#2F2E41"/>
<path d="M59.2738 82.182L61.9862 82.1816L63.2769 74.8682H59.2734L59.2738 82.182Z" fill="#FFCFCF"/>
<path d="M58.5881 84.9156L67.3341 84.9152C67.4632 80.1431 61.464 81.3955 58.5879 81.2614L58.5881 84.9156Z" fill="#2F2E41"/>
<path d="M63.1073 78.3371L68.5148 65.7305C68.9663 64.668 69.0162 63.4676 68.6546 62.3685C68.2931 61.2695 67.5465 60.3523 66.5637 59.7998L54.8347 53.261C52.6011 53.0747 47.8206 52.6329 45.6155 52.4389L45.616 52.3838C44.4543 53.8655 44.8879 59.2297 48.3283 60.1406C53.5749 62.1408 59.6359 63.8502 61.9982 64.4922C62.1016 64.521 62.1982 64.5717 62.2819 64.6411C62.3656 64.7105 62.4346 64.7972 62.4846 64.8956C62.5346 64.994 62.5645 65.1021 62.5725 65.2131C62.5804 65.3242 62.5663 65.4357 62.5308 65.5407L57.5071 77.2749C57.4554 77.4237 57.437 77.5829 57.4535 77.7402C57.47 77.8975 57.5208 78.0489 57.6021 78.1827C57.6834 78.3165 57.7931 78.4292 57.9227 78.5122C58.0523 78.5952 58.1984 78.6463 58.3499 78.6617C59.1495 78.4763 62.7587 79.6059 63.1073 78.3371Z" fill="#2F2E41"/>
<path d="M52.9313 52.6684C53.1905 52.4777 56.9137 54.5085 57.5774 52.8984C54.48 44.8478 56.6145 41.3715 54.7171 36.7549C53.4683 33.0787 49.1273 33.3319 46.1289 33.2354C45.0111 33.7975 44.0983 34.7204 43.5267 35.8664C42.9551 37.0124 42.7555 38.3199 42.9576 39.5936C42.9751 44.6178 45.8667 48.4498 44.8556 52.094C44.8134 52.2434 44.8007 52.4001 44.8181 52.5548C44.8356 52.7094 44.883 52.8588 44.9573 52.994C45.0317 53.1292 45.1316 53.2473 45.251 53.3414C45.3703 53.4354 45.5068 53.5035 45.652 53.5414C46.1987 53.4038 52.7737 52.6933 53.0406 52.4612L52.9313 52.6684Z" fill="#CACACA"/>
<path d="M47.7613 20.0254C40.6547 20.0586 40.6553 31.2921 47.7616 31.3242C54.8679 31.291 54.8673 20.0575 47.7613 20.0254Z" fill="#FFCFCF"/>
<path d="M46.0298 30.8599C46.3186 30.9913 46.9098 28.5995 46.645 28.1211C46.2511 27.4097 46.2744 27.4148 46.0129 26.9441C45.2312 25.9579 46.5828 24.3229 47.3082 25.5751C47.3519 21.8116 54.3889 25.0646 53.7016 20.8752C45.6606 12.7015 34.4347 25.5707 46.0298 30.8599Z" fill="#2F2E41"/>
<path d="M58.0268 44.8184L67.4684 37.0747C70.4136 38.1788 72.0442 33.3541 69.077 32.3001C68.7284 32.1716 68.3564 32.1272 67.9889 32.1702C67.6214 32.2132 67.2681 32.3426 66.9558 32.5484C66.6435 32.7542 66.3802 33.0312 66.186 33.3584C65.9918 33.6856 65.8717 34.0544 65.8348 34.4369L56.4359 40.074L54.0969 38.674L51.5059 42.2006C53.1028 43.1054 56.0487 46.6976 58.0268 44.8184Z" fill="#FFCFCF"/>
<path d="M50.3489 43.2994L55.736 39.491C54.4617 37.9697 52.745 33.4405 50.1226 34.9259C47.127 36.1837 50.0575 41.2314 50.3489 43.2994Z" fill="#CACACA"/>
<path d="M90.5586 85.7884H34.3623C34.3232 85.7884 34.2857 85.7175 34.258 85.5914C34.2304 85.4653 34.2148 85.2942 34.2148 85.1159C34.2148 84.9375 34.2304 84.7665 34.258 84.6403C34.2857 84.5142 34.3232 84.4434 34.3623 84.4434H90.5586C90.5977 84.4434 90.6352 84.5142 90.6629 84.6403C90.6905 84.7665 90.7061 84.9375 90.7061 85.1159C90.7061 85.2942 90.6905 85.4653 90.6629 85.5914C90.6352 85.7175 90.5977 85.7884 90.5586 85.7884Z" fill="#CACACA"/>
<path d="M167.105 33.1529H170.999C171.36 33.1529 171.707 33.0036 171.962 32.7379C172.218 32.4722 172.361 32.1119 172.361 31.7361C172.361 31.3604 172.218 31 171.962 30.7343C171.707 30.4686 171.36 30.3193 170.999 30.3193H167.105C166.743 30.3193 166.397 30.4686 166.141 30.7343C165.886 31 165.742 31.3604 165.742 31.7361C165.742 32.1119 165.886 32.4722 166.141 32.7379C166.397 33.0036 166.743 33.1529 167.105 33.1529Z" fill="#FFEADA"/>
<path d="M165.739 32.3438H172.358C172.565 32.3438 172.763 32.2585 172.909 32.1067C173.055 31.9548 173.137 31.7489 173.137 31.5342C173.137 31.3195 173.055 31.1136 172.909 30.9617C172.763 30.8099 172.565 30.7246 172.358 30.7246H165.739C165.532 30.7246 165.334 30.8099 165.188 30.9617C165.042 31.1136 164.96 31.3195 164.96 31.5342C164.96 31.7489 165.042 31.9548 165.188 32.1067C165.334 32.2585 165.532 32.3438 165.739 32.3438Z" fill="#CACACA"/>
<path d="M166.523 35.7946H171.681C172.245 35.7938 172.786 35.5603 173.184 35.1455C173.583 34.7306 173.807 34.1682 173.807 33.5819C173.807 32.9955 173.583 32.4332 173.184 32.0183C172.786 31.6034 172.245 31.3699 171.681 31.3691H166.523C165.959 31.3691 165.417 31.6023 165.018 32.0172C164.619 32.4322 164.395 32.995 164.395 33.5819C164.395 34.1687 164.619 34.7316 165.018 35.1465C165.417 35.5615 165.959 35.7946 166.523 35.7946Z" fill="#FFEADA"/>
<path d="M178.792 43.8044C179.797 50.5954 128.887 50.5954 129.896 43.8033C128.891 37.0133 179.801 37.0133 178.792 43.8044Z" fill="#2F2E41"/>
<path d="M152.897 46.3994H155.773V85.962H152.897V46.3994Z" fill="#2F2E41"/>
<path d="M171.15 41.301C171.319 40.9589 171.56 40.6612 171.856 40.4304C172.152 40.1997 172.494 40.0418 172.857 39.9689C173.221 39.896 173.595 39.9098 173.952 40.0094C174.309 40.109 174.64 40.2918 174.919 40.5439L185.478 37.9443L186.257 35.2578L190.469 35.9767C189.898 37.8041 190.128 42.4863 187.416 42.5343L175.471 43.6284C174.051 46.5406 169.691 44.1769 171.15 41.301Z" fill="#FFB6B6"/>
<path d="M194.049 60.4105H183.427C183.427 60.7279 172.48 60.9855 172.48 60.9855C170.378 62.5857 171.366 66.7023 174.137 66.6208L194.049 66.6209C197.712 66.6752 197.719 60.357 194.049 60.4105Z" fill="#DFDFDF"/>
<path d="M182.489 66.5068H185.365V85.8281H182.489V66.5068Z" fill="#DFDFDF"/>
<path d="M174.3 85.7224C174.3 86.0455 178.658 85.8474 184.035 85.8474C189.411 85.8474 193.77 86.0455 193.77 85.7224C190.073 82.0525 177.944 82.0857 174.3 85.7224Z" fill="#DFDFDF"/>
<path d="M177.123 83.2279L174.41 83.2275L173.12 75.9141H177.123L177.123 83.2279Z" fill="#FFB6B6"/>
<path d="M177.826 85.9615L169.08 85.9611C168.951 81.189 174.95 82.4414 177.826 82.3073L177.826 85.9615Z" fill="#2F2E41"/>
<path d="M173.064 78.6927L167.656 66.0861C167.205 65.0236 167.155 63.8232 167.517 62.7242C167.878 61.6251 168.625 60.7079 169.608 60.1554L181.337 53.6166C183.896 53.4011 189.076 52.9222 191.626 52.6768C196.261 61.3847 176.913 63.3548 174.173 64.8483C174.07 64.877 173.973 64.9276 173.89 64.997C173.806 65.0664 173.737 65.1529 173.687 65.2514C173.637 65.3498 173.607 65.4578 173.599 65.5688C173.591 65.6798 173.605 65.7913 173.64 65.8963L178.664 77.6305C178.716 77.7793 178.734 77.9385 178.718 78.0958C178.701 78.2532 178.651 78.4045 178.569 78.5383C178.488 78.6721 178.378 78.7848 178.249 78.8678C178.119 78.9508 177.973 79.002 177.821 79.0173C177.027 78.8254 173.409 79.9662 173.064 78.6927Z" fill="#2F2E41"/>
<path d="M178.896 83.2279L176.184 83.2275L174.893 75.9141H178.896L178.896 83.2279Z" fill="#FFB6B6"/>
<path d="M179.582 85.9615L170.836 85.9611C170.707 81.189 176.706 82.4414 179.582 82.3073L179.582 85.9615Z" fill="#2F2E41"/>
<path d="M175.061 79.383L169.653 66.7764C169.202 65.7139 169.152 64.5135 169.513 63.4144C169.875 62.3154 170.621 61.3982 171.604 60.8457L183.333 54.3069C185.567 54.1206 190.347 53.6788 192.552 53.4848L192.552 53.4297C193.714 54.9114 193.28 60.2756 189.84 61.1865C184.593 63.1867 178.532 64.8961 176.17 65.5381C176.066 65.5669 175.97 65.6176 175.886 65.687C175.802 65.7564 175.733 65.8431 175.683 65.9415C175.633 66.0399 175.603 66.148 175.595 66.259C175.588 66.3701 175.602 66.4816 175.637 66.5866L180.661 78.3208C180.713 78.4696 180.731 78.6288 180.714 78.7861C180.698 78.9434 180.647 79.0948 180.566 79.2286C180.485 79.3624 180.375 79.4751 180.245 79.5581C180.116 79.6411 179.97 79.6922 179.818 79.7076C179.018 79.5222 175.409 80.6518 175.061 79.383Z" fill="#2F2E41"/>
<path d="M185.246 53.7143C184.987 53.5236 181.264 55.5544 180.6 53.9443C183.698 45.8937 181.563 42.4174 183.461 37.8008C184.709 34.1246 189.05 34.3778 192.049 34.2812C193.167 34.8434 194.079 35.7663 194.651 36.9123C195.223 38.0583 195.422 39.3658 195.22 40.6395C195.203 45.6637 192.311 49.4957 193.322 53.1399C193.364 53.2893 193.377 53.446 193.36 53.6007C193.342 53.7553 193.295 53.9047 193.22 54.0399C193.146 54.1751 193.046 54.2932 192.927 54.3873C192.807 54.4813 192.671 54.5494 192.526 54.5873C191.979 54.4497 185.404 53.7392 185.137 53.5071L185.246 53.7143Z" fill="#8E8E8E"/>
<path d="M190.407 21.0713C197.513 21.1045 197.513 32.338 190.406 32.3701C183.3 32.3369 183.301 21.1034 190.407 21.0713Z" fill="#FFB6B6"/>
<path d="M192.138 31.9058C191.849 32.0372 191.258 29.6454 191.523 29.167C191.917 28.4556 191.894 28.4607 192.155 27.99C192.937 27.0038 191.585 25.3688 190.86 26.621C190.816 22.8575 183.779 26.1105 184.466 21.921C192.507 13.7474 203.733 26.6166 192.138 31.9058Z" fill="#2F2E41"/>
<path d="M180.151 45.8643L170.709 38.1206C167.764 39.2247 166.134 34.4 169.101 33.346C169.449 33.2175 169.821 33.1731 170.189 33.2161C170.556 33.2591 170.91 33.3885 171.222 33.5943C171.534 33.8001 171.798 34.0771 171.992 34.4043C172.186 34.7315 172.306 35.1003 172.343 35.4828L181.742 41.1199L184.081 39.7199L186.672 43.2465C185.075 44.1513 182.129 47.7435 180.151 45.8643Z" fill="#FFB6B6"/>
<path d="M187.819 44.3453L182.432 40.5369C183.706 39.0156 185.423 34.4863 188.045 35.9718C191.041 37.2296 188.11 42.2773 187.819 44.3453Z" fill="#8E8E8E"/>
<path d="M150.218 86.8343H210.428C210.47 86.8343 210.51 86.7634 210.54 86.6373C210.569 86.5112 210.586 86.3401 210.586 86.1618C210.586 85.9834 210.569 85.8124 210.54 85.6862C210.51 85.5601 210.47 85.4893 210.428 85.4893H150.218C150.176 85.4893 150.136 85.5601 150.106 85.6862C150.076 85.8124 150.06 85.9834 150.06 86.1618C150.06 86.3401 150.076 86.5112 150.106 86.6373C150.136 86.7634 150.176 86.8343 150.218 86.8343Z" fill="#CACACA"/>
<path d="M62.1729 168.625C62.0308 168.632 61.8901 168.593 61.7699 168.514C61.6496 168.435 61.5557 168.32 61.5008 168.184C61.4459 168.047 61.4327 167.897 61.463 167.753C61.4932 167.608 61.5655 167.477 61.67 167.377C61.6875 167.305 61.7 167.253 61.7175 167.181C61.7113 167.165 61.705 167.149 61.6986 167.133C61.5555 166.782 61.3155 166.483 61.0089 166.273C60.7024 166.063 60.3429 165.952 59.9756 165.953C59.6083 165.954 59.2496 166.069 58.9446 166.281C58.6395 166.493 58.4017 166.794 58.2611 167.147C57.6988 168.552 56.983 169.961 56.8068 171.447C56.7291 172.104 56.7619 172.77 56.9035 173.415C55.583 170.425 54.8973 167.175 54.8929 163.885C54.8926 163.06 54.9368 162.235 55.0252 161.414C55.0983 160.742 55.1997 160.074 55.3294 159.411C56.0372 155.814 57.5568 152.442 59.7635 149.573C60.8315 148.968 61.6952 148.038 62.2383 146.908C62.435 146.502 62.574 146.068 62.6511 145.62C62.5306 145.637 62.4081 145.647 62.2877 145.655C62.2501 145.657 62.2106 145.659 62.1731 145.661L62.1589 145.662C62.0265 145.668 61.8952 145.634 61.7808 145.565C61.6664 145.495 61.5738 145.393 61.5142 145.27C61.4545 145.147 61.4303 145.009 61.4445 144.872C61.4587 144.736 61.5107 144.606 61.5943 144.499C61.6463 144.433 61.6983 144.366 61.7504 144.3C61.8294 144.197 61.9104 144.097 61.9894 143.994C61.9985 143.985 62.0071 143.974 62.0151 143.964C62.1059 143.847 62.1968 143.732 62.2876 143.615C62.1218 143.348 61.8987 143.124 61.6359 142.961C60.7253 142.407 59.4692 142.791 58.8115 143.646C58.1518 144.501 58.0273 145.7 58.2564 146.769C58.4818 147.678 58.8544 148.54 59.3586 149.319C59.3092 149.385 59.2578 149.448 59.2085 149.514C58.3058 150.719 57.5191 152.013 56.8596 153.377C57.02 151.849 56.8286 150.303 56.3011 148.866C55.7665 147.527 54.7645 146.4 53.8821 145.242C52.8222 143.852 50.6488 144.459 50.4621 146.221C50.4603 146.238 50.4585 146.255 50.4568 146.272C50.5878 146.349 50.7161 146.431 50.8417 146.517C50.9994 146.626 51.1216 146.782 51.1922 146.965C51.2629 147.148 51.2788 147.348 51.2378 147.541C51.1967 147.733 51.1007 147.908 50.9623 148.042C50.8239 148.177 50.6496 148.265 50.4622 148.295L50.443 148.298C50.4897 148.788 50.5722 149.274 50.6898 149.752C51.0308 151.085 51.6333 152.33 52.4595 153.409C53.2857 154.489 54.3179 155.38 55.4913 156.026C55.5683 156.067 55.6434 156.108 55.7204 156.147C55.0578 158.096 54.6422 160.127 54.484 162.187C54.3945 163.403 54.3997 164.624 54.4998 165.839L54.4939 165.796C54.2411 164.445 53.5469 163.226 52.5287 162.345C51.0163 161.056 48.8796 160.581 47.2481 159.544C47.0747 159.428 46.8731 159.367 46.667 159.366C46.4609 159.366 46.259 159.426 46.0851 159.541C45.9112 159.656 45.7725 159.82 45.6853 160.013C45.5982 160.207 45.5663 160.423 45.5933 160.635C45.5955 160.65 45.5978 160.665 45.6 160.68C45.8432 160.783 46.08 160.902 46.3091 161.035C46.4401 161.112 46.5684 161.193 46.694 161.279C46.8517 161.389 46.9738 161.545 47.0445 161.728C47.1152 161.91 47.1311 162.111 47.09 162.303C47.049 162.496 46.953 162.67 46.8146 162.805C46.6762 162.94 46.5019 163.028 46.3144 163.058L46.2952 163.061C46.2814 163.063 46.2696 163.065 46.2558 163.067C46.6713 164.097 47.2546 165.045 47.98 165.87C48.8761 166.868 49.9592 167.666 51.1629 168.214C52.3665 168.762 53.6654 169.049 54.9798 169.058H54.9818C55.3385 170.668 55.8555 172.234 56.5243 173.733H62.0348C62.0546 173.669 62.0724 173.604 62.0901 173.54C61.5801 173.574 61.068 173.542 60.5653 173.446C60.9742 172.925 61.383 172.4 61.7919 171.879C61.801 171.87 61.8096 171.859 61.8176 171.849C62.025 171.582 62.2343 171.318 62.4417 171.051L62.4418 171.051C62.4529 170.234 62.3624 169.419 62.1729 168.625Z" fill="#FFDBDB"/>
<path d="M143.54 142.382L142.109 142.968L153.761 173.66L155.192 173.075L143.54 142.382Z" fill="#E6E6E6"/>
<path d="M134.079 173.075L135.51 173.66L147.162 142.968L145.731 142.382L134.079 173.075Z" fill="#E6E6E6"/>
<path d="M144.043 147.992C149.657 147.992 154.209 146.165 154.209 143.912C154.209 141.659 149.657 139.833 144.043 139.833C138.428 139.833 133.877 141.659 133.877 143.912C133.877 146.165 138.428 147.992 144.043 147.992Z" fill="#E6E6E6"/>
<path d="M152.512 145.647L136.248 143.622C135.496 143.529 134.77 143.283 134.111 142.898C133.451 142.513 132.871 141.997 132.403 141.379C131.936 140.762 131.59 140.054 131.386 139.298C131.182 138.542 131.123 137.751 131.213 136.971C131.303 136.191 131.54 135.437 131.911 134.753C132.282 134.068 132.779 133.466 133.374 132.98C133.969 132.495 134.65 132.136 135.378 131.924C136.107 131.712 136.868 131.651 137.62 131.745L153.885 133.77C155.402 133.959 156.785 134.766 157.729 136.013C158.673 137.26 159.101 138.846 158.919 140.421C158.737 141.996 157.96 143.431 156.759 144.412C155.557 145.392 154.03 145.836 152.512 145.647Z" fill="#2F2E41"/>
<path d="M149.334 103.184L151.718 105.584L154.765 106.987C154.499 107.179 153.096 126.804 154.904 127.621C156.443 128.316 154.874 128.891 154.928 130.51C154.981 132.129 155.18 135.459 155.18 135.459C146.719 138.84 143.435 139.168 138.517 133.366C138.483 133.041 138.558 132.713 138.728 132.438C138.897 132.163 139.153 131.956 139.452 131.852C140.542 131.414 138.876 128.533 139.765 128.197C140.654 127.86 139.917 123.89 139.917 123.89L138.024 114.945L137.561 113.594L139.953 105.976L142.652 105.318L143.984 102.862L149.334 103.184Z" fill="#E6E6E6"/>
<path d="M117.456 121.311C117.715 121.091 118.017 120.932 118.342 120.846C118.666 120.76 119.005 120.749 119.334 120.814C119.663 120.878 119.974 121.017 120.246 121.22C120.518 121.423 120.743 121.685 120.907 121.989L128.921 120.507L127.247 124.54L119.894 125.329C119.385 125.58 118.805 125.629 118.263 125.466C117.722 125.303 117.257 124.94 116.956 124.444C116.656 123.949 116.54 123.357 116.633 122.779C116.725 122.202 117.018 121.68 117.456 121.311Z" fill="#A0616A"/>
<path d="M125.742 124.841C126.445 125.596 127.136 125.505 127.817 124.722L137.354 124.175L137.383 124.117C137.417 124.051 139.426 120.099 141.209 116.4C141.483 115.831 141.752 115.267 142.008 114.725C142.118 114.49 142.226 114.261 142.331 114.035C143.039 112.514 143.602 111.228 143.823 110.553C144.332 109.041 144.328 107.394 143.812 105.885L143.797 105.848L143.764 105.828C143.087 105.426 142.298 105.275 141.527 105.4C140.757 105.526 140.05 105.92 139.524 106.518C137.001 109.421 135.161 112.892 134.151 116.658L133.579 118.802L127.677 120.319C127.075 119.982 126.555 120.066 126.147 120.713L125.742 124.841Z" fill="#E6E6E6"/>
<path d="M135.012 165.432L137.037 167.35L145.129 160.154L142.14 157.322L135.012 165.432Z" fill="#FFB6B6"/>
<path d="M135.104 164.256L135.674 164.796L138.725 165.965L139.092 168.034L139.092 168.034C139.767 168.673 140.169 169.563 140.21 170.51C140.252 171.456 139.93 172.381 139.315 173.081L139.239 173.166L132.709 166.98L135.104 164.256Z" fill="#2F2E41"/>
<path d="M150.354 143.042L148.606 139.538C148.752 135.99 151.717 133.218 155.121 133.571C157.017 133.768 158.756 134.94 159.374 138.248C160.964 146.752 141.789 163.585 141.789 163.585L138.459 161.268L138.385 158.952L140.337 157.804L140.409 155.834L142.261 155.008L150.354 143.042Z" fill="#2F2E41"/>
<path d="M150.394 96.9959C150.67 94.0131 148.564 91.3626 145.691 91.0759C142.818 90.7892 140.265 92.9747 139.988 95.9576C139.712 98.9404 141.818 101.591 144.691 101.878C147.564 102.164 150.117 99.9788 150.394 96.9959Z" fill="#A0616A"/>
<path d="M149.409 164.9L147.12 166.467L140.207 158.05L143.585 155.736L149.409 164.9Z" fill="#FFB6B6"/>
<path d="M151.451 166.802L144.072 171.856L144.01 171.76C143.508 170.969 143.328 170.003 143.511 169.075C143.695 168.147 144.225 167.333 144.987 166.811L144.987 166.811L145.66 164.826L148.85 164.165L149.494 163.724L151.451 166.802Z" fill="#2F2E41"/>
<path d="M138.959 142.702L141.122 139.05C141.511 135.522 138.998 132.304 135.583 132.103C133.68 131.991 131.786 132.867 130.679 136.034C127.833 144.178 144.247 163.906 144.247 163.906L147.885 162.155L148.306 159.88L146.55 158.43L146.774 156.473L145.069 155.357L138.959 142.702Z" fill="#2F2E41"/>
<path d="M147.001 97.77C147.006 97.7 147.011 97.6299 147.015 97.5596C146.993 97.6272 146.988 97.6998 147.001 97.77Z" fill="#2F2E41"/>
<path d="M151.486 95.2585C151.298 94.3679 150.881 93.5471 150.278 92.8844C149.675 92.2216 148.909 91.742 148.064 91.4972C147.832 91.0941 147.516 90.75 147.139 90.4903C146.762 90.2305 146.334 90.0618 145.886 89.9963C145.045 89.8801 144.202 90.139 143.393 90.4059C142.893 90.5708 142.395 90.7399 141.898 90.9131C141.493 91.0541 140.995 91.3762 141.13 91.7969C141.028 91.7416 140.911 91.7229 140.797 91.7438C140.684 91.7646 140.58 91.8237 140.502 91.912C140.425 92.0003 140.377 92.1128 140.367 92.232C140.358 92.3511 140.386 92.4703 140.448 92.5709C140.261 92.3197 139.827 92.4808 139.722 92.7797C139.618 93.0786 139.741 93.4099 139.894 93.6855C140.353 94.4694 141.05 95.073 141.875 95.4017C142.701 95.7304 143.608 95.7656 144.454 95.5019C144.949 95.3337 145.455 95.0575 145.963 95.1809C146.441 95.2974 146.786 95.7582 146.922 96.2486C147.022 96.6776 147.049 97.1211 147.003 97.5597C147.067 97.404 147.189 97.2812 147.34 97.2183C147.492 97.1553 147.661 97.1574 147.812 97.2239C148.173 97.4111 148.303 97.9046 148.213 98.3137C148.124 98.7227 147.184 100.309 146.935 100.64C146.663 100.952 146.463 101.324 146.35 101.728C147.241 101.586 148.133 101.444 149.024 101.302L149.072 101.352C150.454 100.237 151.835 97.0385 151.486 95.2585Z" fill="#2F2E41"/>
<path d="M138.683 133.472C138.806 133.148 138.996 132.857 139.24 132.618C139.483 132.38 139.774 132.199 140.092 132.09C140.41 131.981 140.747 131.945 141.08 131.986C141.412 132.026 141.732 132.142 142.017 132.325L148.331 126.991L148.753 131.36L142.693 135.755C142.366 136.232 141.881 136.567 141.331 136.697C140.782 136.827 140.205 136.744 139.711 136.462C139.217 136.181 138.839 135.721 138.65 135.17C138.46 134.618 138.472 134.014 138.683 133.472Z" fill="#A0616A"/>
<path d="M148.675 132.171C149.436 132.453 150.024 132.243 150.264 131.041L157.421 125.95L157.42 125.885C158.353 125.81 158.14 111.482 156.708 110.781C156.447 109.202 155.673 107.764 154.516 106.705L154.486 106.681L154.448 106.68C153.668 106.669 152.907 106.935 152.292 107.433C151.677 107.931 151.244 108.631 151.064 109.419C150.214 113.228 150.229 117.19 151.107 120.992L151.609 123.154L148.485 125.9C147.621 125.665 147.238 126.026 147.302 126.939L148.675 132.171Z" fill="#E6E6E6"/>
<path d="M94.0712 144.476L92.7363 145.022L103.608 173.66L104.943 173.114L94.0712 144.476Z" fill="#E6E6E6"/>
<path d="M85.2511 173.114L86.5859 173.66L97.458 145.022L96.1231 144.476L85.2511 173.114Z" fill="#E6E6E6"/>
<path d="M94.5517 149.71C99.7903 149.71 104.037 148.006 104.037 145.904C104.037 143.802 99.7903 142.098 94.5517 142.098C89.3131 142.098 85.0664 143.802 85.0664 145.904C85.0664 148.006 89.3131 149.71 94.5517 149.71Z" fill="#E6E6E6"/>
<path d="M88.7907 102.04C89.0057 103.436 89.7458 104.686 90.8484 105.515C91.951 106.345 93.3258 106.686 94.6705 106.463C94.8228 106.438 94.973 106.406 95.121 106.367C96.3637 106.04 97.4438 105.243 98.1489 104.132C98.854 103.02 99.1331 101.675 98.9313 100.361C98.8675 99.9429 98.7553 99.534 98.5974 99.1435C98.1127 97.9404 97.2199 96.9636 96.0881 96.3978C94.9563 95.8321 93.664 95.7167 92.4557 96.0736C91.2475 96.4304 90.2072 97.2348 89.5318 98.3343C88.8564 99.4338 88.5928 100.752 88.7907 102.04Z" fill="#FFB6B6"/>
<path d="M116.465 169.429L118.771 168.717L117.245 158.932L113.842 159.982L116.465 169.429Z" fill="#FFB6B6"/>
<path d="M102.324 165.567C102.465 165.694 102.605 165.819 102.748 165.945C103.03 166.196 103.317 166.444 103.604 166.689C103.748 166.812 103.894 166.934 104.039 167.055L104.038 167.06L104.047 167.063L104.05 167.066L104.283 167.168L104.777 166.27L105.004 165.857L105.326 165.271L105.916 164.2L109.02 158.562L105.75 157.131L105.54 157.651L105.538 157.651L105.434 157.908L103.482 162.718L103.083 163.701L103.071 163.731L102.831 164.318L102.624 164.827L102.394 165.396L102.324 165.567Z" fill="#FFB6B6"/>
<path d="M85.2479 141.163C85.4088 141.558 85.5746 141.952 85.7425 142.343C86.0543 143.072 86.3786 143.792 86.7154 144.504C86.7151 144.506 86.7167 144.506 86.718 144.508C86.9344 144.793 87.182 145.052 87.456 145.278C87.4671 145.289 87.4803 145.298 87.4916 145.309C87.6938 145.472 87.9147 145.609 88.1493 145.717C88.2339 145.754 88.3202 145.792 88.4049 145.829C88.711 145.96 89.0157 146.079 89.32 146.189C89.8617 146.383 90.4025 146.548 90.9425 146.684C90.9859 146.696 91.0294 146.706 91.073 146.717C93.3 147.259 95.5355 147.343 97.894 147.267C99.0584 147.23 100.253 147.154 101.49 147.074C101.895 147.047 102.301 147.021 102.711 146.997C102.742 146.995 102.775 146.992 102.807 146.991C103.394 146.955 103.99 146.922 104.599 146.893C105.367 146.857 106.157 146.829 106.976 146.815L106.741 147.971C106.557 148.86 106.243 149.714 105.809 150.504C105.312 151.481 104.918 152.254 105.226 154.049L105.375 154.918C105.17 155.303 105.055 155.733 105.037 156.173C105.02 156.613 105.101 157.051 105.274 157.453L105.315 157.549L102.115 163.173L101.908 163.538L103.078 163.73L104.517 163.969L106.956 164.37L111.593 157.619L111.815 157.297L111.818 157.279L113.603 143.134C113.617 143.009 113.627 142.882 113.63 142.755C113.652 142.18 113.564 141.606 113.37 141.066C113.176 140.527 112.88 140.033 112.5 139.613C112.137 139.209 111.699 138.883 111.213 138.655C110.727 138.427 110.203 138.302 109.67 138.287L108.441 138.251L105.929 138.176L104.16 138.125L104.125 138.124L98.9073 137.97L98.7773 136.357L98.7136 136.32L96.6862 135.147L89.6739 131.09L89.656 131.08L89.1948 130.813L89.1215 130.902C89.0997 130.929 89.0779 130.955 89.0577 130.982C88.4363 131.803 87.8973 132.688 87.4491 133.623C86.7026 135.148 86.0404 136.715 85.4656 138.318C85.4405 138.388 85.4179 138.451 85.3979 138.508L85.3904 138.526C85.3815 138.553 85.3756 138.57 85.3733 138.575C85.0884 139.289 85.0699 140.214 85.2479 141.163Z" fill="#2F2E41"/>
<path d="M85.7133 135.92C85.7529 135.819 85.799 135.718 85.8462 135.62C86.2152 134.881 86.6231 134.164 87.0682 133.472C87.5694 132.683 88.1539 131.846 88.8349 130.947C89.1644 130.512 89.5162 130.061 89.8904 129.595C90.0778 129.361 90.2717 129.123 90.4721 128.881C90.4803 128.87 90.4889 128.859 90.4981 128.848L90.5557 128.777L97.7653 131.012L99.8744 131.837L100.397 133.289L100.383 133.647C100.385 133.647 100.385 133.647 100.383 133.649L100.347 134.625L100.347 134.626L100.3 135.916L100.313 135.916L104.467 136.038L108.747 136.163L111.047 136.232C111.58 136.247 112.104 136.372 112.59 136.6C113.076 136.827 113.514 137.153 113.877 137.558C114.257 137.978 114.552 138.472 114.746 139.011C114.94 139.55 115.029 140.124 115.007 140.7C115.004 140.816 114.995 140.936 114.982 141.052L116.31 146.631C117.105 149.967 117.41 153.409 117.215 156.84L117.985 162.269L117.76 162.254L114.408 162.03L113.522 161.971L112.046 158.744C111.877 158.377 111.722 158.001 111.581 157.619C111.35 156.995 111.156 156.357 111.003 155.708L108.414 144.76C108.084 144.764 107.758 144.766 107.435 144.766C105.941 144.772 104.512 144.742 103.149 144.676C98.7148 144.465 94.9362 143.884 91.6431 142.903C90.7181 142.629 89.8304 142.322 88.9799 141.983C88.6678 141.86 88.3608 141.732 88.0588 141.599C87.9876 141.569 87.9179 141.539 87.8484 141.507C87.2243 141.226 86.678 140.787 86.2597 140.23C85.8414 139.673 85.5643 139.016 85.4539 138.319C85.3185 137.51 85.4085 136.677 85.7133 135.92Z" fill="#2F2E41"/>
<path d="M116.017 167.798L118.512 167.025L118.903 166.903L119.259 168.48L123.173 170.073C123.367 170.152 123.531 170.293 123.642 170.475C123.753 170.658 123.805 170.872 123.79 171.088C123.775 171.303 123.695 171.508 123.56 171.672C123.425 171.836 123.243 171.951 123.041 172L118.821 173.027L117.743 171.645L117.811 173.273L116.221 173.661L115.41 167.986L116.017 167.798Z" fill="#2F2E41"/>
<path d="M102.116 163.173L101.908 163.538L102.056 163.562L102.116 163.173Z" fill="#2F2E41"/>
<path d="M102.846 163.778L105.143 165.052L105.503 165.251L104.687 166.631L106.389 170.622C106.473 170.82 106.494 171.04 106.449 171.25C106.405 171.461 106.296 171.652 106.14 171.794C105.983 171.936 105.787 172.022 105.58 172.04C105.373 172.059 105.166 172.008 104.988 171.895L101.294 169.543L101.464 167.773L100.409 168.979L99.0176 168.093L102.287 163.469L102.846 163.778Z" fill="#2F2E41"/>
<path d="M118.914 132.843C118.669 132.92 118.412 132.941 118.159 132.904C117.906 132.867 117.663 132.773 117.449 132.629C117.235 132.484 117.054 132.293 116.919 132.068C116.784 131.843 116.698 131.589 116.667 131.326L110.598 129.961L112.905 127.618L118.314 129.274C118.744 129.25 119.167 129.39 119.504 129.668C119.84 129.946 120.067 130.342 120.141 130.782C120.215 131.222 120.131 131.675 119.904 132.054C119.678 132.434 119.326 132.715 118.914 132.843Z" fill="#FFB6B6"/>
<path d="M101.071 129.899L89.8678 119.96C88.9806 119.171 88.431 118.049 88.3397 116.84C88.2484 115.631 88.6227 114.434 89.3806 113.511C89.8008 113.001 90.3241 112.593 90.9132 112.316C91.5024 112.039 92.1431 111.901 92.7898 111.91C93.4365 111.919 94.0733 112.075 94.655 112.369C95.2368 112.662 95.7492 113.085 96.1559 113.607L104.383 124.168L115.419 127.261L115.133 131.045L101.071 129.899Z" fill="#F50057"/>
<path d="M88.0129 119.696L87.7756 128.717C84.5102 134.444 84.1388 137.225 85.0427 138.708L100.198 133.417L100.424 132.856L99.3971 129.024L100.668 124.866C100.892 124.431 103.931 121.761 101.082 116.697L95.3516 108.683L93.2797 108.51C92.5227 110.527 91.3684 111.527 90.0045 111.993C86.9203 114.927 87.3734 115.405 88.0129 119.696Z" fill="#F50057"/>
<path d="M99.5934 98.1966C99.5137 98.4308 99.3883 98.6454 99.2251 98.8271C99.0619 99.0088 98.8644 99.1535 98.6449 99.2524C98.2947 98.9094 97.9159 98.5992 97.513 98.3256C97.6881 98.6947 97.8316 99.079 97.9418 99.4742C97.9339 99.4758 97.9275 99.4758 97.9195 99.4775C97.1926 99.5784 96.4624 99.3914 95.7514 99.2061L95.8503 99.3004C95.8564 99.8921 95.6997 100.473 95.3987 100.976C95.0976 101.478 94.6648 101.881 94.1509 102.137C93.5818 102.408 92.8309 102.597 92.6906 103.229C92.5663 103.789 93.0334 104.29 93.4829 104.623C93.9325 104.955 94.4586 105.319 94.5319 105.889C94.6499 106.815 93.5052 107.403 93.3108 108.315C93.1418 109.096 93.7236 109.841 94.3629 110.287C95.0022 110.734 95.7546 111.042 96.2488 111.658C97.124 112.748 96.8418 114.488 95.9395 115.555C95.8419 115.671 95.7376 115.781 95.6271 115.884C95.38 115.56 95.1098 115.256 94.8188 114.974C94.4687 114.631 94.0899 114.321 93.687 114.047C93.8621 114.416 94.0056 114.801 94.1158 115.196C94.2598 115.703 94.3512 116.224 94.3884 116.752C93.7386 117.072 93.057 117.318 92.3558 117.485C90.5906 117.933 88.7742 118.127 86.958 118.061C86.1283 118.047 85.3036 117.926 84.503 117.7C84.8695 116.498 84.9767 115.226 84.817 113.976C84.3629 115.075 83.6602 116.043 82.7685 116.8C82.0208 116.189 81.466 115.323 81.3736 114.349C81.2604 113.15 81.8407 112.005 82.4847 111.004C83.1304 110.003 83.8733 109.026 84.157 107.86C84.5715 106.158 83.9386 104.389 83.8573 102.637C83.8058 101.535 83.9741 100.433 84.3516 99.4018C84.7291 98.3703 85.3077 97.4308 86.0512 96.6422C86.7947 95.8536 87.687 95.2329 88.6723 94.8189C89.6576 94.4049 90.7146 94.2066 91.7772 94.2363C92.735 94.2945 93.6855 94.4452 94.6164 94.6865C95.1217 94.799 95.6255 94.9132 96.1308 95.0257C96.7557 95.146 97.3684 95.3266 97.961 95.5652C98.4775 95.7745 98.9313 96.1223 99.2761 96.5731C99.4457 96.8001 99.5625 97.0647 99.6176 97.3463C99.6726 97.6279 99.6643 97.9188 99.5934 98.1966Z" fill="#2F2E41"/>
<path d="M166.125 131.275H79.5293V131.175C79.5305 130.096 79.9441 129.061 80.6793 128.297C81.4146 127.534 82.4115 127.105 83.4513 127.104H162.203C163.243 127.105 164.24 127.534 164.975 128.297C165.711 129.061 166.124 130.096 166.125 131.175V131.275Z" fill="#CCCCCC"/>
<path d="M172.539 173.138L171.204 173.707L160.332 130.647L161.667 130.078L172.539 173.138Z" fill="#CCCCCC"/>
<path d="M152.842 173.138L154.177 173.707L165.049 130.647L163.714 130.078L152.842 173.138Z" fill="#CCCCCC"/>
<path d="M92.6755 173.138L91.3407 173.707L80.4688 130.647L81.8036 130.078L92.6755 173.138Z" fill="#CCCCCC"/>
<path d="M72.9707 173.139L74.3055 173.708L85.1774 130.648L83.8426 130.079L72.9707 173.139Z" fill="#CCCCCC"/>
<path d="M132.712 123.953C132.737 123.872 132.746 123.786 132.738 123.701C132.729 123.616 132.703 123.534 132.661 123.461C132.619 123.387 132.563 123.324 132.496 123.275C132.428 123.226 132.352 123.193 132.271 123.177C132.241 123.17 132.21 123.166 132.18 123.165L128.494 123.066C128.412 123.066 128.33 123.083 128.254 123.117C128.178 123.151 128.11 123.201 128.054 123.264C128.002 123.252 127.949 123.247 127.897 123.247C127.782 123.244 127.668 123.264 127.56 123.307C127.453 123.35 127.355 123.414 127.272 123.496C127.189 123.578 127.122 123.677 127.075 123.785C127.029 123.894 127.003 124.012 127 124.131C126.997 124.25 127.017 124.369 127.058 124.48C127.1 124.591 127.162 124.693 127.241 124.779C127.32 124.865 127.415 124.935 127.52 124.983C127.625 125.031 127.738 125.058 127.853 125.061C127.985 125.063 128.116 125.035 128.236 124.979L128.575 128.742C128.608 128.866 128.678 128.976 128.775 129.054C128.873 129.133 128.992 129.177 129.116 129.18L131.512 129.244C131.635 129.246 131.755 129.208 131.855 129.135C131.956 129.062 132.031 128.957 132.071 128.837L132.712 123.953ZM127.86 124.801C127.695 124.796 127.538 124.724 127.424 124.6C127.31 124.475 127.248 124.309 127.252 124.137C127.256 123.965 127.325 123.802 127.445 123.684C127.564 123.565 127.724 123.5 127.89 123.504C127.901 123.504 127.912 123.509 127.923 123.509C127.897 123.613 127.898 123.723 127.925 123.826L128.166 124.723C128.073 124.778 127.967 124.804 127.86 124.801Z" fill="#F50057"/>
<path d="M132.265 123.177C132.187 123.643 131.304 123.971 130.243 123.914C129.267 123.867 128.468 123.511 128.322 123.09C128.376 123.073 128.433 123.065 128.489 123.067L132.175 123.165C132.205 123.167 132.236 123.17 132.265 123.177Z" fill="white"/>
<path d="M120.44 122.464C120.466 122.383 120.475 122.297 120.466 122.212C120.458 122.127 120.432 122.045 120.39 121.972C120.348 121.898 120.292 121.835 120.224 121.786C120.157 121.737 120.08 121.703 120 121.688C119.97 121.681 119.939 121.677 119.909 121.676L116.223 121.577C116.14 121.576 116.059 121.593 115.983 121.627C115.907 121.661 115.838 121.712 115.782 121.775C115.731 121.763 115.678 121.757 115.625 121.758C115.394 121.752 115.17 121.842 115.002 122.008C114.834 122.173 114.737 122.401 114.731 122.642C114.725 122.882 114.811 123.115 114.971 123.289C115.13 123.464 115.35 123.565 115.581 123.571C115.713 123.574 115.844 123.546 115.965 123.489L116.304 127.253C116.336 127.377 116.407 127.486 116.504 127.565C116.602 127.644 116.721 127.688 116.845 127.69L119.241 127.754C119.363 127.757 119.483 127.719 119.584 127.645C119.684 127.572 119.76 127.468 119.8 127.348L120.44 122.464ZM115.589 123.312C115.424 123.307 115.267 123.235 115.153 123.11C115.039 122.986 114.977 122.82 114.981 122.648C114.985 122.476 115.054 122.313 115.173 122.194C115.293 122.076 115.453 122.011 115.618 122.014C115.63 122.014 115.64 122.02 115.652 122.02C115.626 122.124 115.626 122.233 115.654 122.337L115.895 123.234C115.802 123.288 115.696 123.315 115.589 123.312Z" fill="#F50057"/>
<path d="M120.006 121.688C119.927 122.154 119.044 122.482 117.983 122.425C117.007 122.378 116.209 122.022 116.062 121.6C116.117 121.584 116.173 121.576 116.229 121.577L119.915 121.676C119.945 121.677 119.976 121.681 120.006 121.688Z" fill="white"/>
<path d="M118.63 128.808C118.395 128.912 118.141 128.961 117.885 128.952C117.63 128.943 117.38 128.875 117.152 128.755C116.924 128.635 116.725 128.464 116.568 128.255C116.411 128.046 116.299 127.803 116.242 127.545L110.068 126.849L112.125 124.268L117.673 125.324C118.098 125.253 118.533 125.346 118.895 125.586C119.258 125.826 119.524 126.195 119.642 126.625C119.76 127.054 119.722 127.514 119.535 127.916C119.349 128.318 119.027 128.636 118.63 128.808Z" fill="#FFB6B6"/>
<path d="M100.617 127.825L88.4699 119.162C87.5078 118.474 86.8477 117.418 86.6346 116.226C86.4215 115.034 86.6726 113.803 87.333 112.802C87.6992 112.249 88.1783 111.786 88.7362 111.446C89.2941 111.107 89.9172 110.899 90.5613 110.838C91.2053 110.776 91.8544 110.863 92.4626 111.091C93.0708 111.319 93.6232 111.684 94.0804 112.158L103.331 121.764L114.618 123.637L114.716 127.431L100.617 127.825Z" fill="#F50057"/>
<path d="M190.858 173.986L39.2222 174.047C39.1679 174.047 39.1158 174.022 39.0775 173.977C39.0391 173.933 39.0176 173.872 39.0176 173.809C39.0176 173.747 39.0391 173.686 39.0775 173.642C39.1158 173.597 39.1679 173.572 39.2222 173.572L190.858 173.511C190.912 173.511 190.964 173.536 191.003 173.58C191.041 173.625 191.063 173.685 191.063 173.748C191.063 173.811 191.041 173.871 191.003 173.916C190.964 173.961 190.912 173.986 190.858 173.986Z" fill="#CACACA"/>
<path d="M78.214 35.6616C78.2428 35.5717 78.2527 35.4765 78.243 35.3823C78.2334 35.2881 78.2044 35.1971 78.1581 35.1155C78.1117 35.0339 78.0491 34.9636 77.9744 34.9092C77.8996 34.8549 77.8146 34.8178 77.7248 34.8004C77.6916 34.7931 77.6579 34.7887 77.624 34.7874L73.5336 34.6778C73.4418 34.6768 73.3509 34.6958 73.2666 34.7336C73.1824 34.7713 73.1066 34.8269 73.0444 34.8969C72.9871 34.8842 72.9287 34.8779 72.8701 34.8781C72.7427 34.8747 72.6159 34.8973 72.4969 34.9447C72.378 34.9922 72.2692 35.0635 72.1768 35.1546C72.0844 35.2457 72.0102 35.3549 71.9585 35.4758C71.9068 35.5967 71.8785 35.727 71.8753 35.8592C71.8721 35.9915 71.894 36.1231 71.9399 36.2465C71.9857 36.37 72.0545 36.4828 72.1424 36.5786C72.2302 36.6744 72.3354 36.7513 72.452 36.8049C72.5685 36.8585 72.694 36.8877 72.8214 36.8909C72.9679 36.894 73.1133 36.863 73.2468 36.8002L73.6231 40.9773C73.6593 41.1146 73.7373 41.2361 73.8455 41.3236C73.9537 41.4111 74.0863 41.4598 74.2234 41.4626L76.8826 41.5336C77.0187 41.5361 77.1521 41.4938 77.2636 41.4128C77.3751 41.3317 77.459 41.216 77.5032 41.0823L78.214 35.6616ZM72.8299 36.6028C72.6463 36.5978 72.4722 36.5174 72.3456 36.3793C72.219 36.2412 72.1503 36.0567 72.1546 35.8661C72.1589 35.6755 72.2359 35.4945 72.3685 35.3627C72.5012 35.2309 72.6788 35.1591 72.8624 35.163C72.8754 35.1631 72.8868 35.1695 72.8998 35.1695C72.8707 35.2849 72.8714 35.4062 72.9019 35.5211L73.1696 36.5166C73.066 36.5768 72.9486 36.6067 72.8299 36.6028Z" fill="#F50057"/>
<path d="M54.4521 21.5909C54.3636 21.8509 54.2245 22.0891 54.0433 22.2907C53.8622 22.4924 53.643 22.6531 53.3993 22.7628C53.0107 22.3821 52.5903 22.0379 52.1431 21.7342C52.3375 22.1438 52.4967 22.5703 52.6191 23.0089C52.6102 23.0107 52.6031 23.0107 52.5943 23.0126C51.7875 23.1246 50.9771 22.9171 50.188 22.7113L50.2977 22.816C50.3045 23.4727 50.1306 24.1177 49.7965 24.6754C49.4624 25.233 48.982 25.6801 48.4116 25.9642C47.78 26.2654 46.9467 26.4748 46.791 27.1765C46.6529 27.7973 47.1713 28.3538 47.6703 28.723C48.1692 29.0922 48.7531 29.4963 48.8345 30.1281C48.9654 31.1567 47.6951 31.8087 47.4792 32.8208C47.2917 33.6877 47.9375 34.5142 48.647 35.0101C49.3565 35.5061 50.1916 35.8477 50.7401 36.531C51.7114 37.7414 51.3982 39.6718 50.3968 40.8565C50.2884 40.9855 50.1726 41.1075 50.05 41.222C49.7758 40.8624 49.4759 40.5247 49.153 40.2118C48.7643 39.8311 48.3439 39.4869 47.8968 39.1832C48.0911 39.5928 48.2504 40.0193 48.3727 40.4579C48.5325 41.0206 48.6339 41.5994 48.6753 42.1844C47.954 42.5399 47.1976 42.8128 46.4194 42.9981C44.4602 43.4959 42.4443 43.711 40.4285 43.6373C39.5077 43.6224 38.5924 43.4879 37.7038 43.2369C38.1106 41.9026 38.2296 40.4917 38.0523 39.1042C37.5483 40.3234 36.7684 41.3983 35.7788 42.2377C34.949 41.56 34.3332 40.5993 34.2306 39.5175C34.105 38.1877 34.749 36.9167 35.4638 35.8055C36.1804 34.6942 37.0049 33.6105 37.3198 32.3156C37.7799 30.4275 37.0774 28.464 36.9872 26.5189C36.9301 25.2957 37.1168 24.0734 37.5358 22.9286C37.9548 21.7837 38.597 20.7411 39.4221 19.8658C40.2473 18.9906 41.2377 18.3017 42.3312 17.8422C43.4247 17.3827 44.5979 17.1626 45.7771 17.1956C46.8402 17.2602 47.8951 17.4275 48.9283 17.6952C49.4891 17.8201 50.0482 17.9468 50.6091 18.0717C51.3026 18.2052 51.9827 18.4057 52.6403 18.6705C53.2136 18.9028 53.7172 19.2888 54.1 19.7891C54.2882 20.0411 54.4178 20.3348 54.4789 20.6473C54.54 20.9598 54.5308 21.2827 54.4521 21.5909Z" fill="#2F2E41"/>
<path d="M153.141 43.7927C158.16 43.7927 162.229 42.7922 162.229 41.558C162.229 40.3238 158.16 39.3232 153.141 39.3232C148.122 39.3232 144.053 40.3238 144.053 41.558C144.053 42.7922 148.122 43.7927 153.141 43.7927Z" fill="#F2F2F2"/>
<path d="M153.127 43.3901C157.241 43.3901 160.576 42.57 160.576 41.5583C160.576 40.5467 157.241 39.7266 153.127 39.7266C149.013 39.7266 145.678 40.5467 145.678 41.5583C145.678 42.57 149.013 43.3901 153.127 43.3901Z" fill="#D0CDE1"/>
<path d="M153.082 41.4004C155.475 41.4004 157.415 41.0941 157.415 40.7163C157.415 40.3385 155.475 40.0322 153.082 40.0322C150.69 40.0322 148.75 40.3385 148.75 40.7163C148.75 41.0941 150.69 41.4004 153.082 41.4004Z" fill="#9F616A"/>
<path d="M150.755 40.4597C151.51 40.4597 152.123 40.1279 152.123 39.7186C152.123 39.3093 151.51 38.9775 150.755 38.9775C149.999 38.9775 149.387 39.3093 149.387 39.7186C149.387 40.1279 149.999 40.4597 150.755 40.4597Z" fill="#F50057"/>
<path d="M150.257 40.4597C151.012 40.4597 151.625 40.1279 151.625 39.7186C151.625 39.3093 151.012 38.9775 150.257 38.9775C149.501 38.9775 148.889 39.3093 148.889 39.7186C148.889 40.1279 149.501 40.4597 150.257 40.4597Z" fill="#F50057"/>
<path d="M156.243 40.6306C156.999 40.6306 157.611 40.2988 157.611 39.8895C157.611 39.4802 156.999 39.1484 156.243 39.1484C155.488 39.1484 154.875 39.4802 154.875 39.8895C154.875 40.2988 155.488 40.6306 156.243 40.6306Z" fill="#F50057"/>
<path d="M153.099 40.4597C153.854 40.4597 154.467 40.1279 154.467 39.7186C154.467 39.3093 153.854 38.9775 153.099 38.9775C152.343 38.9775 151.73 39.3093 151.73 39.7186C151.73 40.1279 152.343 40.4597 153.099 40.4597Z" fill="#F50057"/>
<path d="M155.442 40.4597C156.198 40.4597 156.811 40.1279 156.811 39.7186C156.811 39.3093 156.198 38.9775 155.442 38.9775C154.687 38.9775 154.074 39.3093 154.074 39.7186C154.074 40.1279 154.687 40.4597 155.442 40.4597Z" fill="#F50057"/>
<path d="M157.212 39.2626C154.739 40.1016 151.965 40.1016 148.889 39.2626V39.1471C148.888 38.2748 149.223 37.4356 149.824 36.8032C150.425 36.1708 151.246 35.7936 152.117 35.7496C152.85 35.7127 153.585 35.7137 154.318 35.7525C155.102 35.7981 155.839 36.1422 156.377 36.7139C156.915 37.2857 157.214 38.0418 157.212 38.827V39.2626Z" fill="#FFBC73"/>
<path d="M155.993 42.404C154.165 42.5885 152.324 42.5885 150.497 42.404C150.063 42.3615 149.661 42.1593 149.368 41.8369C149.075 41.5145 148.913 41.0947 148.912 40.6592H157.577C157.576 41.0947 157.414 41.5145 157.121 41.8369C156.828 42.1593 156.426 42.3615 155.993 42.404Z" fill="#FFBC73"/>
<path d="M151.906 36.811C151.708 36.8937 151.495 36.9364 151.279 36.9364C151.064 36.9364 150.851 36.8937 150.652 36.811C150.851 36.7282 151.064 36.6855 151.279 36.6855C151.495 36.6855 151.708 36.7282 151.906 36.811Z" fill="#D0CDE1"/>
<path d="M153.164 37.3246C152.966 37.4074 152.752 37.45 152.537 37.45C152.322 37.45 152.109 37.4074 151.91 37.3246C152.109 37.2418 152.322 37.1992 152.537 37.1992C152.752 37.1992 152.966 37.2418 153.164 37.3246Z" fill="#D0CDE1"/>
<path d="M153.27 36.4125C153.071 36.4953 152.858 36.5379 152.643 36.5379C152.427 36.5379 152.214 36.4953 152.016 36.4125C152.214 36.3297 152.427 36.2871 152.643 36.2871C152.858 36.2871 153.071 36.3297 153.27 36.4125Z" fill="#D0CDE1"/>
<path d="M155.614 36.4125C155.415 36.4953 155.202 36.5379 154.986 36.5379C154.771 36.5379 154.558 36.4953 154.359 36.4125C154.558 36.3297 154.771 36.2871 154.986 36.2871C155.202 36.2871 155.415 36.3297 155.614 36.4125Z" fill="#D0CDE1"/>
<path d="M154.985 36.9252C154.786 37.008 154.573 37.0506 154.358 37.0506C154.142 37.0506 153.929 37.008 153.73 36.9252C153.929 36.8424 154.142 36.7998 154.358 36.7998C154.573 36.7998 154.786 36.8424 154.985 36.9252Z" fill="#D0CDE1"/>
<path d="M161.556 41.1016L161.577 41.563L161.604 42.1616C161.604 42.1616 158.855 42.3169 158.301 42.9021C158.288 42.9147 158.277 42.9283 158.266 42.9427L157.165 42.7017L157.162 42.1593C157.162 42.1593 157.177 42.1508 157.207 42.1349C157.214 42.1314 157.222 42.1269 157.23 42.1224C158.578 41.4626 160.056 41.1138 161.556 41.1016Z" fill="#F50057"/>
<path opacity="0.1" d="M161.561 41.1016L161.581 41.563C160.362 41.6007 158.055 42.3274 158.055 42.3274L157.211 42.1349C158.564 41.4664 160.051 41.1131 161.561 41.1016Z" fill="black"/>
<path opacity="0.1" d="M157.23 42.1221L158.051 42.327L158.301 42.9018C158.288 42.9143 158.277 42.9279 158.266 42.9424L157.165 42.7013L157.162 42.1589C157.162 42.1589 157.177 42.1505 157.207 42.1345C157.214 42.131 157.222 42.1265 157.23 42.1221Z" fill="white"/>
</svg>
