<svg width="200" height="182" viewBox="0 0 200 182" fill="none" xmlns="http://www.w3.org/2000/svg">
<g clip-path="url(#clip0_649_16515)">
<rect x="5" y="29" width="190" height="130" rx="8" fill="#454545"/>
<path d="M99.9963 64.6533C103.64 64.6533 107.248 65.37 110.614 66.7623C113.981 68.1547 117.039 70.1955 119.616 72.7683C122.192 75.341 124.236 78.3953 125.631 81.7568C127.025 85.1183 127.743 88.7211 127.743 92.3595V158.741H72.25V92.3595C72.25 88.7211 72.9677 85.1183 74.3621 81.7568C75.7564 78.3953 77.8002 75.341 80.3767 72.7683C82.9532 70.1955 86.0119 68.1547 89.3782 66.7623C92.7446 65.37 96.3526 64.6533 99.9963 64.6533Z" fill="#E6E6E6"/>
<path d="M90.3736 97.9629H85.3906V114.474H90.3736V97.9629Z" fill="white"/>
<path d="M108.269 115.831H91.7344V130.758H108.269V115.831Z" fill="white"/>
<path d="M108.269 97.9629H91.7344V114.474H108.269V97.9629Z" fill="white"/>
<path d="M109.625 96.6068H114.608V96.2674C114.61 94.1898 114.166 92.136 113.307 90.244C112.447 88.3521 111.192 86.6659 109.625 85.2988V96.6068Z" fill="white"/>
<path d="M91.7344 96.6063H108.269V84.2405C105.838 82.5682 102.954 81.6747 100.002 81.6787C97.0493 81.6747 94.1657 82.5682 91.7344 84.2405V96.6063Z" fill="white"/>
<path d="M90.3736 115.831H85.3906V127.14C85.3906 128.099 85.7724 129.02 86.4521 129.698C87.1317 130.377 88.0535 130.758 89.0146 130.758H90.3736V115.831Z" fill="white"/>
<path d="M109.625 115.831V130.758H110.984C111.945 130.758 112.867 130.377 113.547 129.698C114.226 129.02 114.608 128.099 114.608 127.14V115.831H109.625Z" fill="white"/>
<path d="M90.3736 96.6068V85.2988C88.807 86.6659 87.5516 88.3521 86.6921 90.244C85.8326 92.136 85.3888 94.1898 85.3906 96.2674V96.6068H90.3736Z" fill="white"/>
<path d="M114.608 97.9629H109.625V114.474H114.608V97.9629Z" fill="white"/>
<path d="M123.78 119.902C125.407 119.902 126.725 118.586 126.725 116.962C126.725 115.338 125.407 114.021 123.78 114.021C122.154 114.021 120.836 115.338 120.836 116.962C120.836 118.586 122.154 119.902 123.78 119.902Z" fill="#8F8DAD"/>
<path d="M30.9501 88.7432H27.0391V101.702H30.9501V88.7432Z" fill="#F2F2F2"/>
<path d="M44.9932 88.7432H32.0156V101.702H44.9932V88.7432Z" fill="#F2F2F2"/>
<path d="M49.9736 88.7432H46.0625V101.702H49.9736V88.7432Z" fill="#F2F2F2"/>
<path d="M46.0625 87.6781H49.9736V87.4117C49.975 85.7811 49.6267 84.1691 48.952 82.6841C48.2774 81.1992 47.2921 79.8757 46.0625 78.8027V87.6781Z" fill="#F2F2F2"/>
<path d="M44.9932 102.767H32.0156V114.483H44.9932V102.767Z" fill="#F2F2F2"/>
<path d="M30.9501 102.767H27.0391V111.642C27.0391 112.396 27.3387 113.118 27.8722 113.651C28.4056 114.183 29.1291 114.483 29.8835 114.483H30.9501L30.9501 102.767Z" fill="#F2F2F2"/>
<path d="M46.0625 102.767V114.483H47.1291C47.5027 114.483 47.8726 114.409 48.2177 114.266C48.5628 114.124 48.8763 113.915 49.1405 113.651C49.4046 113.387 49.6141 113.074 49.757 112.729C49.9 112.385 49.9736 112.015 49.9735 111.642V102.767H46.0625Z" fill="#F2F2F2"/>
<path d="M30.9501 87.6781V78.8027C29.7205 79.8757 28.7352 81.1992 28.0606 82.6841C27.386 84.1691 27.0377 85.7811 27.0391 87.4117V87.6781H30.9501Z" fill="#F2F2F2"/>
<path d="M32.0156 87.6782H44.9932V77.9726C43.0849 76.66 40.8216 75.9587 38.5044 75.9619C36.1872 75.9587 33.9239 76.6601 32.0156 77.9726V87.6782Z" fill="#F2F2F2"/>
<path d="M55.0849 115.899H22.0187C21.8066 115.899 21.6033 115.814 21.4533 115.665C21.3033 115.515 21.219 115.312 21.2188 115.1V112.97C21.219 112.758 21.3033 112.555 21.4533 112.405C21.6033 112.255 21.8066 112.171 22.0187 112.171H55.0849C55.297 112.171 55.5003 112.255 55.6503 112.405C55.8003 112.555 55.8846 112.758 55.8849 112.97V115.1C55.8846 115.312 55.8003 115.515 55.6503 115.665C55.5003 115.814 55.297 115.899 55.0849 115.899Z" fill="#E6E6E6"/>
<path d="M153.942 88.7432H150.031V101.702H153.942V88.7432Z" fill="#F2F2F2"/>
<path d="M167.985 88.7432H155.008V101.702H167.985V88.7432Z" fill="#F2F2F2"/>
<path d="M172.966 88.7432H169.055V101.702H172.966V88.7432Z" fill="#F2F2F2"/>
<path d="M169.055 87.6781H172.966V87.4117C172.967 85.7811 172.619 84.1691 171.944 82.6841C171.27 81.1992 170.284 79.8757 169.055 78.8027V87.6781Z" fill="#F2F2F2"/>
<path d="M167.985 102.767H155.008V114.483H167.985V102.767Z" fill="#F2F2F2"/>
<path d="M153.942 102.767H150.031V111.642C150.031 112.396 150.331 113.118 150.864 113.651C151.398 114.183 152.121 114.483 152.876 114.483H153.942L153.942 102.767Z" fill="#F2F2F2"/>
<path d="M169.055 102.767V114.483H170.121C170.495 114.483 170.865 114.409 171.21 114.266C171.555 114.124 171.869 113.915 172.133 113.651C172.397 113.387 172.606 113.074 172.749 112.729C172.892 112.385 172.966 112.015 172.966 111.642V102.767H169.055Z" fill="#F2F2F2"/>
<path d="M153.942 87.6781V78.8027C152.713 79.8757 151.727 81.1992 151.053 82.6841C150.378 84.1691 150.03 85.7811 150.031 87.4117V87.6781H153.942Z" fill="#F2F2F2"/>
<path d="M155.008 87.6782H167.985V77.9726C166.077 76.66 163.814 75.9587 161.497 75.9619C159.179 75.9587 156.916 76.6601 155.008 77.9726V87.6782Z" fill="#F2F2F2"/>
<path d="M178.069 115.899H145.003C144.791 115.899 144.588 115.814 144.438 115.665C144.288 115.515 144.203 115.312 144.203 115.1V112.97C144.203 112.758 144.288 112.555 144.438 112.405C144.588 112.255 144.791 112.171 145.003 112.171H178.069C178.281 112.171 178.485 112.255 178.635 112.405C178.785 112.555 178.869 112.758 178.869 112.97V115.1C178.869 115.312 178.785 115.515 178.635 115.665C178.485 115.814 178.281 115.899 178.069 115.899Z" fill="#E6E6E6"/>
<path d="M187.88 158.967H12.1151C10.1335 158.965 8.23359 158.178 6.83233 156.778C5.43107 155.379 4.64286 153.482 4.64062 151.503V37.7381C4.64286 35.7593 5.43107 33.8622 6.83233 32.463C8.23359 31.0637 10.1335 30.2766 12.1151 30.2744H187.88C189.861 30.2766 191.761 31.0637 193.162 32.463C194.564 33.8622 195.352 35.7593 195.354 37.7381V151.503C195.352 153.482 194.564 155.379 193.162 156.778C191.761 158.178 189.861 158.965 187.88 158.967ZM12.1151 30.7268C10.2536 30.7289 8.46884 31.4682 7.15251 32.7827C5.83618 34.0971 5.09574 35.8792 5.09363 37.7381V151.503C5.09574 153.362 5.83618 155.144 7.15251 156.459C8.46884 157.773 10.2536 158.512 12.1151 158.515H187.88C189.741 158.512 191.526 157.773 192.842 156.459C194.159 155.144 194.899 153.362 194.901 151.503V37.7381C194.899 35.8792 194.159 34.0971 192.842 32.7827C191.526 31.4682 189.741 30.7289 187.88 30.7268H12.1151Z" fill="#CCCCCC"/>
<path d="M7.48547 45.1499C5.60385 45.1485 3.79169 44.44 2.40926 43.1654C1.02683 41.8908 0.175393 40.1433 0.024228 38.2705C-0.126937 36.3977 0.43324 34.5367 1.59339 33.0574C2.75354 31.5781 4.42868 30.589 6.28578 30.2867L98.1441 0.148898C99.3377 -0.0481392 100.556 -0.0496315 101.75 0.144481L193.73 30.2917C195.689 30.6143 197.439 31.7002 198.596 33.3108C199.753 34.9213 200.223 36.9247 199.902 38.8808C199.581 40.8369 198.495 42.5857 196.883 43.7429C195.272 44.9001 193.266 45.371 191.306 45.0522C190.316 44.9108 100.814 32.1498 99.9982 32.1163C99.1851 32.1498 9.59686 44.9233 8.69201 45.0524C8.29312 45.1173 7.88962 45.1499 7.48547 45.1499Z" fill="#F50057"/>
<path d="M70.625 43.3125C70.6354 43.3125 70.6719 43.3177 70.7344 43.3281C70.7969 43.3385 70.8646 43.349 70.9375 43.3594C71.0104 43.3594 71.0781 43.3646 71.1406 43.375C71.2135 43.3854 71.2552 43.3906 71.2656 43.3906C71.3177 43.3906 71.3958 43.401 71.5 43.4219C71.6042 43.4323 71.6562 43.4896 71.6562 43.5938V44.9688C71.8333 44.9271 72.0365 44.8333 72.2656 44.6875C72.4948 44.5312 72.7656 44.375 73.0781 44.2188C73.3906 44.0625 73.7396 43.9323 74.125 43.8281C74.5104 43.724 74.9531 43.6979 75.4531 43.75C76.224 43.9062 76.7812 44.0938 77.125 44.3125C77.4688 44.5208 77.651 44.7552 77.6719 45.0156C77.6927 45.2656 77.5833 45.5365 77.3438 45.8281C77.1146 46.1198 76.8073 46.4219 76.4219 46.7344C76.0365 47.0365 75.6042 47.3385 75.125 47.6406C74.6562 47.9427 74.1927 48.2396 73.7344 48.5312C73.2865 48.8125 72.875 49.0781 72.5 49.3281C72.125 49.5781 71.8438 49.8021 71.6562 50C71.8229 50.0729 72.0625 50.1927 72.375 50.3594C72.6979 50.5156 73.0469 50.6927 73.4219 50.8906C73.8073 51.0781 74.2031 51.2812 74.6094 51.5C75.026 51.7188 75.4167 51.9219 75.7812 52.1094C76.1458 52.2865 76.474 52.4479 76.7656 52.5938C77.0573 52.7292 77.2656 52.8177 77.3906 52.8594C77.4948 52.9115 77.5938 52.9583 77.6875 53C77.7604 53.0521 77.8281 53.099 77.8906 53.1406C77.9635 53.1823 78 53.224 78 53.2656C78 53.3073 77.9844 53.3646 77.9531 53.4375C77.9323 53.5104 77.8958 53.5781 77.8438 53.6406C77.7917 53.7031 77.7344 53.7604 77.6719 53.8125C77.6198 53.8542 77.5677 53.875 77.5156 53.875C77.4948 53.875 77.4688 53.875 77.4375 53.875C77.4167 53.8646 77.401 53.8594 77.3906 53.8594C77.3698 53.849 77.2969 53.8177 77.1719 53.7656C77.0573 53.7031 76.9323 53.6354 76.7969 53.5625C76.6719 53.4896 76.5469 53.4271 76.4219 53.375C76.3073 53.3125 76.2344 53.276 76.2031 53.2656C76.0885 53.224 75.901 53.1458 75.6406 53.0312C75.3906 52.9062 75.1042 52.7708 74.7812 52.625C74.4688 52.4688 74.1354 52.3021 73.7812 52.125C73.4271 51.9479 73.0885 51.7812 72.7656 51.625C72.4531 51.4688 72.1667 51.3333 71.9062 51.2188C71.6562 51.1042 71.474 51.0365 71.3594 51.0156V55.7969H70.6562L70.625 43.3125ZM71.6562 46C71.6354 46.1875 71.6146 46.4062 71.5938 46.6562C71.5729 46.9062 71.5469 47.1667 71.5156 47.4375C71.4948 47.7083 71.474 47.9792 71.4531 48.25C71.4427 48.5208 71.4375 48.7708 71.4375 49C71.4792 48.9479 71.625 48.8594 71.875 48.7344C72.125 48.6094 72.4271 48.4531 72.7812 48.2656C73.1354 48.0781 73.5156 47.8698 73.9219 47.6406C74.3385 47.4115 74.7292 47.1771 75.0938 46.9375C75.4583 46.6875 75.776 46.4427 76.0469 46.2031C76.3281 45.9635 76.5052 45.7448 76.5781 45.5469C76.6615 45.3385 76.6198 45.151 76.4531 44.9844C76.2969 44.8177 75.9635 44.6875 75.4531 44.5938C75.1719 44.5729 74.849 44.5885 74.4844 44.6406C74.1302 44.6927 73.7708 44.7812 73.4062 44.9062C73.0521 45.0312 72.7188 45.1875 72.4062 45.375C72.0938 45.5521 71.8438 45.7604 71.6562 46ZM78.9219 52.625C78.8698 52.6354 78.7917 52.651 78.6875 52.6719C78.5833 52.6927 78.474 52.6979 78.3594 52.6875C78.2448 52.6771 78.1458 52.6458 78.0625 52.5938C77.9688 52.5417 77.9219 52.4531 77.9219 52.3281C77.9219 52.2552 77.9375 52.2031 77.9688 52.1719C78 52.1406 78.0521 52.0938 78.125 52.0312C78.3542 51.8438 78.5469 51.6042 78.7031 51.3125C78.8698 51.0104 79.0208 50.6927 79.1562 50.3594C79.2917 50.0156 79.4323 49.6771 79.5781 49.3438C79.7344 49 79.9115 48.6927 80.1094 48.4219C80.3073 48.151 80.5521 47.9323 80.8438 47.7656C81.1354 47.599 81.4948 47.5208 81.9219 47.5312C82.099 47.5312 82.2969 47.5729 82.5156 47.6562C82.7344 47.7396 82.9375 47.8542 83.125 48C83.3125 48.1354 83.4688 48.3021 83.5938 48.5C83.7188 48.6979 83.7812 48.9167 83.7812 49.1562C83.8333 49.2396 83.7812 49.3594 83.625 49.5156C83.4792 49.6719 83.276 49.8438 83.0156 50.0312C82.7552 50.2083 82.4583 50.3958 82.125 50.5938C81.8021 50.7812 81.4896 50.9583 81.1875 51.125C80.8854 51.2917 80.6198 51.4375 80.3906 51.5625C80.1615 51.6875 80.0104 51.7812 79.9375 51.8438C79.8854 51.9479 79.8438 52.0677 79.8125 52.2031C79.7812 52.3385 79.7552 52.4688 79.7344 52.5938C79.724 52.7083 79.7135 52.8177 79.7031 52.9219C79.7031 53.0156 79.7031 53.0885 79.7031 53.1406C79.7031 53.3385 79.6927 53.5573 79.6719 53.7969C79.6615 54.0365 79.6719 54.2656 79.7031 54.4844C79.7448 54.6927 79.8333 54.8698 79.9688 55.0156C80.1042 55.151 80.3333 55.2188 80.6562 55.2188C81 55.2188 81.3229 55.1354 81.625 54.9688C81.9271 54.7917 82.2083 54.5781 82.4688 54.3281C82.7292 54.0781 82.9635 53.8073 83.1719 53.5156C83.3906 53.224 83.5833 52.9531 83.75 52.7031C83.9271 52.4427 84.0833 52.2292 84.2188 52.0625C84.3542 51.8958 84.4688 51.8125 84.5625 51.8125C84.6667 51.8125 84.776 51.8333 84.8906 51.875C85.0156 51.9062 85.0781 51.9896 85.0781 52.125C85.0781 52.3125 85 52.5365 84.8438 52.7969C84.6979 53.0573 84.5 53.3333 84.25 53.625C84.0104 53.9167 83.7292 54.2083 83.4062 54.5C83.0938 54.7812 82.776 55.0365 82.4531 55.2656C82.1302 55.4844 81.8125 55.6667 81.5 55.8125C81.1875 55.9479 80.9115 56.0156 80.6719 56.0156C80.2031 56.0156 79.849 55.901 79.6094 55.6719C79.3698 55.4427 79.1979 55.1562 79.0938 54.8125C79 54.4688 78.9479 54.1042 78.9375 53.7188C78.9375 53.3229 78.9323 52.9583 78.9219 52.625ZM81.7969 48.4062C81.6198 48.4062 81.4323 48.4948 81.2344 48.6719C81.0365 48.8385 80.849 49.0469 80.6719 49.2969C80.5052 49.5365 80.3646 49.7865 80.25 50.0469C80.1458 50.2969 80.0938 50.5052 80.0938 50.6719C80.25 50.6719 80.474 50.6146 80.7656 50.5C81.0677 50.375 81.3646 50.224 81.6562 50.0469C81.9479 49.8698 82.2031 49.6823 82.4219 49.4844C82.6406 49.2865 82.75 49.099 82.75 48.9219C82.75 48.8281 82.7135 48.75 82.6406 48.6875C82.5677 48.625 82.4792 48.5729 82.375 48.5312C82.2812 48.4896 82.1823 48.4583 82.0781 48.4375C81.974 48.4167 81.8802 48.4062 81.7969 48.4062ZM87.0938 55.7656C87.0938 55.776 87.2031 55.7135 87.4219 55.5781C87.651 55.4427 87.9167 55.2656 88.2188 55.0469C88.5312 54.8177 88.849 54.5729 89.1719 54.3125C89.4948 54.0417 89.7604 53.7865 89.9688 53.5469C90.1771 53.3073 90.2865 53.1042 90.2969 52.9375C90.3177 52.7604 90.1771 52.6458 89.875 52.5938C89.5 52.5417 89.1823 52.5469 88.9219 52.6094C88.6719 52.6719 88.4427 52.7448 88.2344 52.8281C88.026 52.9115 87.8281 52.9896 87.6406 53.0625C87.4635 53.1354 87.2656 53.1615 87.0469 53.1406C86.5885 53.1406 86.2708 53 86.0938 52.7188C85.9271 52.4271 85.8438 52.0365 85.8438 51.5469C85.8438 51.0573 85.9531 50.5938 86.1719 50.1562C86.3906 49.7083 86.6719 49.3229 87.0156 49C87.3594 48.6771 87.7552 48.4219 88.2031 48.2344C88.651 48.0365 89.1094 47.9375 89.5781 47.9375C89.7656 47.9375 89.9271 47.9531 90.0625 47.9844C90.1979 48.0156 90.2656 48.1354 90.2656 48.3438C90.2656 48.4896 90.2031 48.6302 90.0781 48.7656C89.9531 48.8906 89.8125 48.9531 89.6562 48.9531C89.6458 48.9531 89.6198 48.9479 89.5781 48.9375C89.5365 48.9167 89.4948 48.8906 89.4531 48.8594C89.4115 48.8281 89.3698 48.8073 89.3281 48.7969C89.2865 48.776 89.2604 48.7656 89.25 48.7656C88.9167 48.6719 88.5938 48.7188 88.2812 48.9062C87.9688 49.0938 87.6875 49.349 87.4375 49.6719C87.1979 49.9844 87.0052 50.3281 86.8594 50.7031C86.7135 51.0677 86.6406 51.3958 86.6406 51.6875C86.6406 51.8021 86.6615 51.8958 86.7031 51.9688C86.7552 52.0312 86.8177 52.0781 86.8906 52.1094C86.974 52.1406 87.0625 52.1615 87.1562 52.1719C87.2604 52.1719 87.3646 52.1719 87.4688 52.1719C87.6771 52.1719 87.8854 52.1406 88.0938 52.0781C88.3125 52.0156 88.5208 51.9427 88.7188 51.8594C88.9271 51.776 89.1354 51.7031 89.3438 51.6406C89.5625 51.5781 89.7865 51.5469 90.0156 51.5469C90.1198 51.5469 90.2344 51.5781 90.3594 51.6406C90.4844 51.6927 90.599 51.776 90.7031 51.8906C90.8073 51.9948 90.8958 52.1198 90.9688 52.2656C91.0417 52.401 91.0833 52.5521 91.0938 52.7188C91.1562 52.8646 91.1354 53.0573 91.0312 53.2969C90.9375 53.5365 90.7917 53.7917 90.5938 54.0625C90.3958 54.3333 90.1562 54.6094 89.875 54.8906C89.5938 55.1615 89.3125 55.4115 89.0312 55.6406C88.75 55.8594 88.474 56.0365 88.2031 56.1719C87.9323 56.3177 87.7031 56.3854 87.5156 56.375C87.3073 56.375 87.1823 56.3125 87.1406 56.1875C87.1094 56.0625 87.0938 55.9219 87.0938 55.7656ZM92.1406 49.3281C92.0365 49.3802 91.9375 49.4375 91.8438 49.5C91.7604 49.5521 91.6771 49.6042 91.5938 49.6562C91.5104 49.6979 91.4271 49.7292 91.3438 49.75C91.2604 49.7708 91.1719 49.7708 91.0781 49.75C91.0156 49.75 90.9635 49.7135 90.9219 49.6406C90.8802 49.5573 90.849 49.4688 90.8281 49.375C90.7969 49.2708 90.776 49.1719 90.7656 49.0781C90.7552 48.974 90.7552 48.8958 90.7656 48.8438L92.2656 47.9844L92.3594 43.9844C92.3802 43.849 92.4635 43.7969 92.6094 43.8281C92.7552 43.849 92.9062 43.8802 93.0625 43.9219C93.0833 43.9219 93.1146 43.9323 93.1562 43.9531C93.2083 43.9635 93.2448 43.974 93.2656 43.9844C93.2448 44.2656 93.2188 44.5729 93.1875 44.9062C93.1667 45.2292 93.1458 45.5573 93.125 45.8906C93.1042 46.2135 93.0885 46.5312 93.0781 46.8438C93.0781 47.1562 93.0938 47.4375 93.125 47.6875L95.4688 47.0312C95.5104 47.0208 95.5417 47.0521 95.5625 47.125C95.5938 47.1875 95.6198 47.2656 95.6406 47.3594C95.6719 47.4531 95.6927 47.5469 95.7031 47.6406C95.7135 47.7344 95.7188 47.7812 95.7188 47.7812L93.0625 48.9062C93.0625 49 93.0677 49.224 93.0781 49.5781C93.099 49.9323 93.1198 50.3542 93.1406 50.8438C93.1615 51.3229 93.1823 51.8438 93.2031 52.4062C93.224 52.9583 93.2448 53.474 93.2656 53.9531C93.2865 54.4323 93.3021 54.8542 93.3125 55.2188C93.3229 55.5729 93.3281 55.7969 93.3281 55.8906C93.3073 56.2031 93.2135 56.3594 93.0469 56.3594C92.8906 56.3594 92.7188 56.2812 92.5312 56.125L92.1406 49.3281ZM100.453 55.5938C100.401 55.3229 100.354 55 100.312 54.625C100.281 54.2396 100.245 53.8542 100.203 53.4688C100.161 53.0729 100.109 52.7031 100.047 52.3594C99.9948 52.0156 99.9115 51.7344 99.7969 51.5156C99.2656 52.599 98.7969 53.4531 98.3906 54.0781C97.9844 54.6927 97.625 55.1354 97.3125 55.4062C97.0104 55.6667 96.7552 55.7917 96.5469 55.7812C96.3385 55.7708 96.1667 55.6771 96.0312 55.5C95.8958 55.3229 95.7969 55.099 95.7344 54.8281C95.6823 54.5469 95.6458 54.2865 95.625 54.0469C95.625 53.8177 95.6771 53.4948 95.7812 53.0781C95.8854 52.6615 96.026 52.2083 96.2031 51.7188C96.3802 51.2188 96.5885 50.7135 96.8281 50.2031C97.0781 49.6927 97.3438 49.2292 97.625 48.8125C97.9062 48.3958 98.1979 48.0521 98.5 47.7812C98.8021 47.5104 99.1042 47.375 99.4062 47.375C99.8542 47.3021 100.182 47.401 100.391 47.6719C100.609 47.9323 100.651 48.375 100.516 49C100.516 49.6875 100.542 50.276 100.594 50.7656C100.656 51.2552 100.719 51.724 100.781 52.1719C100.854 52.6198 100.917 53.0885 100.969 53.5781C101.031 54.0677 101.062 54.6562 101.062 55.3438C101.062 55.4688 101.047 55.5781 101.016 55.6719C100.995 55.7552 100.87 55.7969 100.641 55.7969C100.609 55.7969 100.568 55.7708 100.516 55.7188C100.474 55.6667 100.453 55.625 100.453 55.5938ZM99.6094 48.6094C99.4948 48.4427 99.3385 48.4271 99.1406 48.5625C98.9427 48.6979 98.7344 48.9219 98.5156 49.2344C98.2969 49.5469 98.0729 49.9219 97.8438 50.3594C97.6146 50.7969 97.401 51.2396 97.2031 51.6875C97.0052 52.1354 96.8333 52.5625 96.6875 52.9688C96.5417 53.3646 96.4427 53.6927 96.3906 53.9531C96.3906 54.3281 96.4479 54.5417 96.5625 54.5938C96.6771 54.6354 96.8177 54.5729 96.9844 54.4062C97.151 54.2396 97.3385 54 97.5469 53.6875C97.7656 53.375 97.974 53.0417 98.1719 52.6875C98.3802 52.3333 98.5729 51.9896 98.75 51.6562C98.9375 51.3229 99.0833 51.0521 99.1875 50.8438C99.2812 50.625 99.3542 50.4219 99.4062 50.2344C99.4583 50.0469 99.5 49.8698 99.5312 49.7031C99.5729 49.526 99.5938 49.349 99.5938 49.1719C99.6042 48.9948 99.6094 48.8073 99.6094 48.6094ZM105.844 54.1875C105.802 54.3125 105.698 54.4844 105.531 54.7031C105.375 54.9115 105.188 55.125 104.969 55.3438C104.75 55.5521 104.521 55.7396 104.281 55.9062C104.052 56.0625 103.849 56.1406 103.672 56.1406C103.339 56.1406 103.062 55.9844 102.844 55.6719C102.635 55.3594 102.474 54.9583 102.359 54.4688C102.245 53.9792 102.167 53.4375 102.125 52.8438C102.083 52.2396 102.057 51.651 102.047 51.0781C102.036 50.5052 102.031 49.9844 102.031 49.5156C102.031 49.0469 102.016 48.6927 101.984 48.4531C102.026 48.349 102.078 48.2865 102.141 48.2656C102.214 48.2448 102.297 48.2344 102.391 48.2344C102.474 48.2344 102.547 48.2448 102.609 48.2656C102.682 48.2865 102.745 48.349 102.797 48.4531C102.797 48.5677 102.797 48.7604 102.797 49.0312C102.807 49.3021 102.823 49.6094 102.844 49.9531C102.865 50.2865 102.885 50.6406 102.906 51.0156C102.927 51.3802 102.943 51.7292 102.953 52.0625C102.974 52.3958 102.99 52.6979 103 52.9688C103.021 53.2292 103.036 53.4219 103.047 53.5469C103.057 53.6198 103.068 53.7396 103.078 53.9062C103.099 54.0729 103.125 54.25 103.156 54.4375C103.198 54.6146 103.245 54.776 103.297 54.9219C103.359 55.0677 103.438 55.1458 103.531 55.1562C103.688 55.1562 103.844 55.0885 104 54.9531C104.167 54.8177 104.328 54.6458 104.484 54.4375C104.641 54.2292 104.786 54 104.922 53.75C105.057 53.5 105.177 53.2604 105.281 53.0312C105.396 52.7917 105.479 52.5781 105.531 52.3906C105.594 52.2031 105.63 52.0677 105.641 51.9844C105.661 51.8073 105.682 51.5573 105.703 51.2344C105.724 50.901 105.74 50.5469 105.75 50.1719C105.76 49.7969 105.766 49.4427 105.766 49.1094C105.776 48.776 105.781 48.5208 105.781 48.3438L106.641 48.3906C106.651 49.2344 106.646 50 106.625 50.6875C106.604 51.3646 106.599 52.0052 106.609 52.6094C106.62 53.2031 106.667 53.7812 106.75 54.3438C106.833 54.9062 106.984 55.4896 107.203 56.0938C107.172 56.125 107.109 56.1667 107.016 56.2188C106.922 56.2812 106.854 56.3125 106.812 56.3125C106.552 56.3125 106.375 56.224 106.281 56.0469C106.198 55.8802 106.141 55.6823 106.109 55.4531C106.089 55.2135 106.068 54.9792 106.047 54.75C106.036 54.5104 105.969 54.3229 105.844 54.1875ZM108.078 48.4688V48.3438C108.078 48.2396 108.115 48.1667 108.188 48.125C108.271 48.0833 108.365 48.0625 108.469 48.0625C108.552 48.0625 108.63 48.0729 108.703 48.0938C108.776 48.1042 108.833 48.1615 108.875 48.2656C108.906 48.4219 108.938 48.6406 108.969 48.9219C109 49.1927 109.036 49.4948 109.078 49.8281C109.12 50.1615 109.161 50.5156 109.203 50.8906C109.255 51.2552 109.302 51.6042 109.344 51.9375C109.396 52.2604 109.448 52.5521 109.5 52.8125C109.552 53.0729 109.609 53.2708 109.672 53.4062C109.641 52.4062 109.672 51.5417 109.766 50.8125C109.859 50.0729 110.036 49.474 110.297 49.0156C110.568 48.5469 110.932 48.224 111.391 48.0469C111.859 47.8594 112.443 47.8177 113.141 47.9219C113.464 47.9219 113.625 48.0938 113.625 48.4375C113.625 48.5729 113.536 48.6667 113.359 48.7188C113.182 48.7604 112.984 48.7917 112.766 48.8125C112.547 48.8229 112.333 48.8385 112.125 48.8594C111.917 48.8802 111.766 48.9323 111.672 49.0156C111.297 49.224 111.031 49.5469 110.875 49.9844C110.729 50.4219 110.625 50.9375 110.562 51.5312C110.5 52.125 110.453 52.776 110.422 53.4844C110.401 54.1823 110.333 54.901 110.219 55.6406C110.219 55.7448 110.177 55.8229 110.094 55.875C110.01 55.9271 109.906 55.9531 109.781 55.9531C109.667 55.9531 109.552 55.9271 109.438 55.875C109.333 55.8229 109.25 55.7448 109.188 55.6406L108.078 48.4688ZM118.859 55.5938C118.807 55.3229 118.76 55 118.719 54.625C118.688 54.2396 118.651 53.8542 118.609 53.4688C118.568 53.0729 118.516 52.7031 118.453 52.3594C118.401 52.0156 118.318 51.7344 118.203 51.5156C117.672 52.599 117.203 53.4531 116.797 54.0781C116.391 54.6927 116.031 55.1354 115.719 55.4062C115.417 55.6667 115.161 55.7917 114.953 55.7812C114.745 55.7708 114.573 55.6771 114.438 55.5C114.302 55.3229 114.203 55.099 114.141 54.8281C114.089 54.5469 114.052 54.2865 114.031 54.0469C114.031 53.8177 114.083 53.4948 114.188 53.0781C114.292 52.6615 114.432 52.2083 114.609 51.7188C114.786 51.2188 114.995 50.7135 115.234 50.2031C115.484 49.6927 115.75 49.2292 116.031 48.8125C116.312 48.3958 116.604 48.0521 116.906 47.7812C117.208 47.5104 117.51 47.375 117.812 47.375C118.26 47.3021 118.589 47.401 118.797 47.6719C119.016 47.9323 119.057 48.375 118.922 49C118.922 49.6875 118.948 50.276 119 50.7656C119.062 51.2552 119.125 51.724 119.188 52.1719C119.26 52.6198 119.323 53.0885 119.375 53.5781C119.438 54.0677 119.469 54.6562 119.469 55.3438C119.469 55.4688 119.453 55.5781 119.422 55.6719C119.401 55.7552 119.276 55.7969 119.047 55.7969C119.016 55.7969 118.974 55.7708 118.922 55.7188C118.88 55.6667 118.859 55.625 118.859 55.5938ZM118.016 48.6094C117.901 48.4427 117.745 48.4271 117.547 48.5625C117.349 48.6979 117.141 48.9219 116.922 49.2344C116.703 49.5469 116.479 49.9219 116.25 50.3594C116.021 50.7969 115.807 51.2396 115.609 51.6875C115.411 52.1354 115.24 52.5625 115.094 52.9688C114.948 53.3646 114.849 53.6927 114.797 53.9531C114.797 54.3281 114.854 54.5417 114.969 54.5938C115.083 54.6354 115.224 54.5729 115.391 54.4062C115.557 54.2396 115.745 54 115.953 53.6875C116.172 53.375 116.38 53.0417 116.578 52.6875C116.786 52.3333 116.979 51.9896 117.156 51.6562C117.344 51.3229 117.49 51.0521 117.594 50.8438C117.688 50.625 117.76 50.4219 117.812 50.2344C117.865 50.0469 117.906 49.8698 117.938 49.7031C117.979 49.526 118 49.349 118 49.1719C118.01 48.9948 118.016 48.8073 118.016 48.6094ZM120.938 55.7969C120.823 54.3906 120.719 52.9844 120.625 51.5781C120.542 50.1615 120.448 48.6927 120.344 47.1719C120.344 46.9219 120.479 46.7969 120.75 46.7969H120.875C120.906 46.7969 120.943 46.8385 120.984 46.9219C121.026 47.0052 121.068 47.1615 121.109 47.3906C121.161 47.6094 121.214 47.9479 121.266 48.4062C121.328 48.8542 121.401 49.4427 121.484 50.1719C121.568 50.901 121.661 51.8125 121.766 52.9062C121.984 52.1979 122.156 51.5104 122.281 50.8438C122.406 50.1771 122.568 49.5729 122.766 49.0312C122.964 48.4792 123.24 47.9948 123.594 47.5781C123.958 47.1615 124.479 46.8542 125.156 46.6562C125.531 46.7188 125.833 46.9479 126.062 47.3438C126.292 47.7292 126.474 48.2083 126.609 48.7812C126.745 49.3542 126.839 49.9792 126.891 50.6562C126.943 51.3229 126.974 51.9635 126.984 52.5781C126.995 53.1927 127 53.7448 127 54.2344C127 54.7135 127.01 55.0573 127.031 55.2656C127 55.349 126.953 55.4219 126.891 55.4844C126.828 55.5469 126.755 55.5938 126.672 55.625C126.599 55.6458 126.526 55.651 126.453 55.6406C126.38 55.6198 126.312 55.5625 126.25 55.4688C126.25 55.3542 126.24 55.1198 126.219 54.7656C126.198 54.4115 126.172 54 126.141 53.5312C126.109 53.0521 126.073 52.5469 126.031 52.0156C126 51.474 125.969 50.9688 125.938 50.5C125.917 50.0208 125.896 49.6042 125.875 49.25C125.854 48.8958 125.839 48.6615 125.828 48.5469C125.609 48.1615 125.391 47.9427 125.172 47.8906C124.964 47.8385 124.75 47.9062 124.531 48.0938C124.323 48.2812 124.12 48.5677 123.922 48.9531C123.724 49.3385 123.536 49.776 123.359 50.2656C123.182 50.7448 123.016 51.25 122.859 51.7812C122.703 52.3125 122.568 52.8281 122.453 53.3281C122.339 53.8177 122.24 54.2656 122.156 54.6719C122.083 55.0677 122.036 55.375 122.016 55.5938C121.984 55.6667 121.917 55.7396 121.812 55.8125C121.719 55.875 121.615 55.9219 121.5 55.9531C121.396 55.9844 121.286 55.9948 121.172 55.9844C121.068 55.9635 120.99 55.901 120.938 55.7969ZM128.438 49.3281C128.333 49.3802 128.234 49.4375 128.141 49.5C128.057 49.5521 127.974 49.6042 127.891 49.6562C127.807 49.6979 127.724 49.7292 127.641 49.75C127.557 49.7708 127.469 49.7708 127.375 49.75C127.312 49.75 127.26 49.7135 127.219 49.6406C127.177 49.5573 127.146 49.4688 127.125 49.375C127.094 49.2708 127.073 49.1719 127.062 49.0781C127.052 48.974 127.052 48.8958 127.062 48.8438L128.562 47.9844L128.656 43.9844C128.677 43.849 128.76 43.7969 128.906 43.8281C129.052 43.849 129.203 43.8802 129.359 43.9219C129.38 43.9219 129.411 43.9323 129.453 43.9531C129.505 43.9635 129.542 43.974 129.562 43.9844C129.542 44.2656 129.516 44.5729 129.484 44.9062C129.464 45.2292 129.443 45.5573 129.422 45.8906C129.401 46.2135 129.385 46.5312 129.375 46.8438C129.375 47.1562 129.391 47.4375 129.422 47.6875L131.766 47.0312C131.807 47.0208 131.839 47.0521 131.859 47.125C131.891 47.1875 131.917 47.2656 131.938 47.3594C131.969 47.4531 131.99 47.5469 132 47.6406C132.01 47.7344 132.016 47.7812 132.016 47.7812L129.359 48.9062C129.359 49 129.365 49.224 129.375 49.5781C129.396 49.9323 129.417 50.3542 129.438 50.8438C129.458 51.3229 129.479 51.8438 129.5 52.4062C129.521 52.9583 129.542 53.474 129.562 53.9531C129.583 54.4323 129.599 54.8542 129.609 55.2188C129.62 55.5729 129.625 55.7969 129.625 55.8906C129.604 56.2031 129.51 56.3594 129.344 56.3594C129.188 56.3594 129.016 56.2812 128.828 56.125L128.438 49.3281Z" fill="white"/>
<g clip-path="url(#clip1_649_16515)">
<path d="M70.3573 105.839C73.959 105.839 76.8788 102.924 76.8788 99.3277C76.8788 95.7316 73.959 92.8164 70.3573 92.8164C66.7557 92.8164 63.8359 95.7316 63.8359 99.3277C63.8359 102.924 66.7557 105.839 70.3573 105.839Z" fill="#FFB6B6"/>
<path d="M73.8152 107.213L65.2313 109.662L64.005 112.416L61.2459 125.578V146.393C61.2459 146.393 57.8737 153.739 59.7131 160.167C61.6792 167.038 68.6036 158.928 73.8152 159.854C79.0269 160.779 87.3042 161.697 87.3042 161.697L82.3991 139.353L81.1729 112.11L73.8152 107.213Z" fill="#E6E6E6"/>
<path d="M72.1951 101.46L70.8693 100.798C70.8693 100.798 70.5378 97.8192 69.8749 97.1573C69.2119 96.4954 69.2119 96.1645 69.2119 96.1645L70.2063 94.8406C70.2063 94.8406 65.2343 97.4883 64.2399 95.8335C63.2455 94.1787 64.5714 93.5168 64.5714 93.5168L62.9141 92.193C62.9141 92.193 64.9029 93.5168 65.2343 92.524C65.5658 91.5311 67.5546 90.8575 67.5546 90.8575C67.5546 90.8575 71.8976 91.8386 71.5492 90.8575C71.2007 89.8764 72.5266 90.8692 72.8581 91.2002C73.1895 91.5311 76.1727 94.8406 76.5042 94.5097C76.8357 94.1787 78.493 95.1716 78.1615 95.5026C77.8301 95.8335 77.8301 96.1645 78.1615 96.4954C78.493 96.8264 80.4818 100.467 78.8245 101.791C77.1671 103.114 74.8469 104.769 75.1783 106.093C75.5098 107.417 75.1783 101.791 72.1951 101.46Z" fill="#2F2E41"/>
<path d="M40.0446 117.853C38.3708 116.413 37.7585 114.383 38.6769 113.319C39.5954 112.256 41.6964 112.562 43.3707 114.003C44.0473 114.57 44.5783 115.29 44.9191 116.104L51.9339 122.297L48.9528 125.522L42.3539 119.074C41.4976 118.857 40.7057 118.439 40.0446 117.853Z" fill="#FFB6B6"/>
<path d="M64.0706 112.522L68.6913 112.103L72.7435 131.399C73.5157 135.076 71.1017 138.665 67.401 139.344L64.0706 139.954L42.8438 121.293L45.945 116.132L61.5988 125.936L64.0706 112.522Z" fill="#E6E6E6"/>
<path d="M48.3487 150.766C48.3487 150.766 46.4726 158.253 46.6619 157.935C46.8511 157.618 51.5511 158.044 51.5511 158.044L52.4123 150.813L48.3487 150.766Z" fill="#FFB6B6"/>
<path d="M80.9825 149.506C72.7002 150.668 65.2194 149.655 59.1239 144.883C59.1239 144.883 54.6736 159.781 62.7888 161.349C70.904 162.918 79.9354 160.222 80.9825 157.608C82.0296 154.995 80.9825 149.506 80.9825 149.506Z" fill="#2F2E41"/>
<path d="M65.5402 154.211L56.5088 175.464L52.3203 200.033L57.8177 201.34L67.6509 178.731L80.9852 157.086L65.5402 154.211Z" fill="#2F2E41"/>
<path d="M64.3661 148.15C64.3661 148.15 62.2718 131.945 58.3451 130.9C56.4309 130.39 54.641 130.439 53.3092 130.624C51.9669 130.81 50.8968 131.834 50.6621 133.166L47.0938 153.427H52.1397L53.764 147.938L58.0834 155.469L64.3661 148.15Z" fill="#2F2E41"/>
<path d="M51.5349 155.991L46.5457 155.468L45.7758 158.343C45.7758 158.343 37.6606 165.662 41.8491 166.185C46.0376 166.707 49.9643 163.832 49.9643 163.832L55.726 160.532C55.726 160.532 53.4983 154.603 51.9276 154.603C50.3569 154.603 51.5349 155.991 51.5349 155.991Z" fill="#2F2E41"/>
<path d="M79.4145 165.431C78.8129 167.491 77.2608 168.851 75.9478 168.468C74.6348 168.086 74.0585 166.106 74.6605 164.045C74.8897 163.219 75.3138 162.459 75.8973 161.83L78.5566 153.134L82.6171 154.467L79.5645 162.898C79.7178 163.742 79.6664 164.611 79.4145 165.431Z" fill="#FFB6B6"/>
<path d="M82.2274 112.148L80.1101 111.552C78.1136 115.518 77.2551 119.958 77.6296 124.382L78.6746 136.724L75.2266 158.417L81.9847 160.163L87.3104 132.939L82.2274 112.148Z" fill="#E6E6E6"/>
<path d="M40.9987 146.065C40.906 145.782 40.2033 145.907 40.1358 145.653C40.0686 145.401 40.7429 145.189 41.2601 144.478C41.3534 144.349 41.9411 143.541 41.7157 143.201C41.2884 142.556 38.3156 144.162 37.6021 143.261C37.4455 143.063 37.381 142.723 36.9145 142.092C36.7289 141.84 36.6098 141.719 36.4676 141.723C36.2657 141.728 36.1935 141.98 35.8762 142.437C35.4004 143.122 35.2287 143.036 34.9152 143.597C34.6825 144.014 34.655 144.28 34.4872 144.295C34.2497 144.318 34.1516 143.799 33.8615 143.779C33.5654 143.758 33.2691 144.271 33.1222 144.671C32.8466 145.423 33.0173 145.997 33.0551 146.57C33.0963 147.192 32.9997 148.102 32.3227 149.271L25.9375 159.429C27.3088 157.358 31.2014 151.711 32.7697 149.64C33.2224 149.042 33.709 148.442 34.4578 148.329C35.1788 148.22 36.056 148.576 37.2804 148.556C37.4234 148.553 37.8214 148.541 37.9182 148.331C37.9982 148.157 37.7995 148.005 37.8718 147.842C37.9688 147.622 38.405 147.716 38.9995 147.57C39.4187 147.468 39.7035 147.298 39.9484 147.152C40.0222 147.108 41.1222 146.442 40.9987 146.065Z" fill="#F2F2F2"/>
<path d="M24.2778 148.437C24.1118 148.401 23.9704 148.781 23.8263 148.741C23.6828 148.701 23.7733 148.309 23.5728 147.851C23.5366 147.768 23.3088 147.247 23.0765 147.259C22.6364 147.282 22.5679 149.202 21.9191 149.292C21.7767 149.312 21.5913 149.245 21.1461 149.292C20.969 149.31 20.8751 149.334 20.8358 149.404C20.78 149.505 20.8831 149.613 21.0161 149.9C21.2155 150.331 21.1237 150.39 21.3092 150.706C21.4468 150.94 21.5697 151.03 21.529 151.117C21.4714 151.24 21.1881 151.138 21.0945 151.275C20.999 151.414 21.1655 151.707 21.32 151.894C21.6098 152.246 21.9414 152.328 22.2337 152.475C22.5514 152.634 22.9712 152.944 23.3504 153.613L26.5012 159.673C25.8789 158.404 24.2264 154.867 23.6608 153.501C23.4975 153.107 23.3427 152.695 23.5033 152.295C23.6578 151.911 24.086 151.584 24.4291 150.978C24.4692 150.907 24.5782 150.708 24.5026 150.6C24.4401 150.511 24.3084 150.564 24.2488 150.482C24.1688 150.371 24.341 150.184 24.4409 149.851C24.5113 149.616 24.5099 149.427 24.5088 149.265C24.5085 149.216 24.4988 148.485 24.2778 148.437Z" fill="#F2F2F2"/>
<path d="M27.4219 149.916L27.5209 149.003L27.5817 148.945C27.8627 148.68 28.0385 148.399 28.1044 148.11C28.1149 148.064 28.1231 148.018 28.1314 147.97C28.1643 147.783 28.2051 147.549 28.3858 147.307C28.487 147.172 28.7546 146.867 29.0306 146.973C29.1051 147.001 29.1553 147.049 29.1903 147.101C29.199 147.092 29.208 147.083 29.2176 147.073C29.3368 146.958 29.4202 146.915 29.5006 146.874C29.5623 146.843 29.626 146.811 29.7339 146.725C29.7812 146.687 29.8191 146.653 29.851 146.624C29.9479 146.538 30.0717 146.437 30.2414 146.477C30.4212 146.526 30.4829 146.697 30.5238 146.811C30.5969 147.013 30.6194 147.152 30.6343 147.244C30.6396 147.278 30.6459 147.316 30.6506 147.328C30.6899 147.427 31.1841 147.453 31.37 147.464C31.788 147.486 32.1496 147.506 32.2366 147.792C32.299 147.996 32.169 148.219 31.8389 148.472C31.7361 148.551 31.6333 148.605 31.5437 148.645C31.5988 148.697 31.6427 148.768 31.6454 148.864C31.6514 149.092 31.4172 149.267 30.9493 149.385C30.8331 149.415 30.6767 149.454 30.472 149.444C30.3756 149.439 30.2912 149.425 30.2192 149.411C30.2085 149.452 30.1888 149.494 30.1533 149.535C30.0492 149.654 29.881 149.684 29.6527 149.617C29.4007 149.547 29.2016 149.452 29.0259 149.368C28.8724 149.295 28.74 149.232 28.629 149.215C28.4225 149.186 28.2299 149.314 27.9994 149.483L27.4219 149.916Z" fill="#F2F2F2"/>
<path d="M29.0703 144.716L28.1607 144.852L28.0897 144.808C27.7615 144.604 27.4448 144.505 27.1479 144.515C27.1007 144.516 27.0536 144.52 27.0056 144.524C26.8154 144.54 26.579 144.56 26.2983 144.447C26.1418 144.383 25.7783 144.202 25.8116 143.909C25.8197 143.83 25.8536 143.769 25.8943 143.722C25.8835 143.716 25.8726 143.709 25.8609 143.703C25.7186 143.617 25.6564 143.547 25.5965 143.48C25.5504 143.428 25.503 143.375 25.3921 143.292C25.3435 143.256 25.301 143.228 25.2652 143.205C25.157 143.133 25.0277 143.039 25.0234 142.865C25.0254 142.679 25.1757 142.576 25.2752 142.508C25.4526 142.386 25.5816 142.329 25.6673 142.291C25.6985 142.277 25.7337 142.262 25.7445 142.254C25.8305 142.191 25.73 141.707 25.6932 141.525C25.6091 141.115 25.5363 140.761 25.7911 140.605C25.9733 140.493 26.2223 140.562 26.5511 140.816C26.6534 140.896 26.732 140.981 26.7941 141.057C26.8305 140.991 26.8878 140.931 26.9805 140.904C27.1998 140.84 27.4287 141.022 27.6616 141.444C27.7198 141.548 27.7975 141.69 27.8398 141.89C27.8596 141.984 27.8668 142.069 27.8717 142.142C27.9141 142.142 27.9603 142.15 28.0085 142.174C28.1502 142.245 28.2222 142.4 28.2151 142.637C28.2111 142.898 28.1692 143.115 28.1326 143.306C28.1008 143.473 28.0738 143.616 28.0855 143.728C28.1099 143.935 28.2821 144.088 28.5048 144.268L29.0703 144.716Z" fill="#F2F2F2"/>
<path d="M29.1875 141.989L29.2865 141.076L29.3473 141.019C29.6283 140.754 29.8041 140.473 29.8701 140.183C29.8806 140.137 29.8887 140.091 29.897 140.044C29.9299 139.856 29.9707 139.623 30.1515 139.38C30.2526 139.245 30.5202 138.94 30.7962 139.047C30.8707 139.074 30.921 139.123 30.9559 139.174C30.9646 139.165 30.9736 139.156 30.9832 139.146C31.1024 139.031 31.1858 138.988 31.2662 138.948C31.3279 138.916 31.3916 138.884 31.4995 138.798C31.5468 138.76 31.5847 138.726 31.6167 138.697C31.7135 138.611 31.8374 138.51 32.007 138.55C32.1869 138.599 32.2485 138.77 32.2895 138.884C32.3625 139.086 32.385 139.225 32.3999 139.317C32.4053 139.351 32.4115 139.389 32.4162 139.401C32.4556 139.501 32.9497 139.526 33.1357 139.537C33.5536 139.559 33.9153 139.579 34.0022 139.865C34.0646 140.069 33.9346 140.292 33.6045 140.545C33.5017 140.624 33.3989 140.678 33.3094 140.719C33.3644 140.771 33.4083 140.841 33.411 140.938C33.4171 141.166 33.1829 141.341 32.715 141.459C32.5987 141.488 32.4423 141.527 32.2376 141.517C32.1413 141.513 32.0568 141.498 31.9848 141.484C31.9741 141.525 31.9544 141.568 31.9189 141.608C31.8148 141.727 31.6466 141.757 31.4183 141.69C31.1663 141.62 30.9672 141.525 30.7915 141.441C30.638 141.368 30.5057 141.306 30.3946 141.289C30.1881 141.26 29.9955 141.387 29.765 141.556L29.1875 141.989Z" fill="#F2F2F2"/>
<path d="M26.2446 159.481L26.0837 159.322L25.8602 159.298C25.8613 159.277 25.8598 159.228 25.8582 159.152C25.8496 158.732 25.8229 157.453 26.0011 155.49C26.1256 154.119 26.3336 152.727 26.6194 151.353C26.9056 149.976 27.2027 148.952 27.4413 148.129C27.6213 147.508 27.8031 146.919 27.9805 146.346C28.454 144.813 28.901 143.365 29.1779 141.714C29.2398 141.346 29.3685 140.578 29.1051 139.673C28.9522 139.147 28.6905 138.653 28.327 138.204L28.6789 137.92C29.08 138.416 29.3694 138.964 29.5392 139.547C29.8312 140.551 29.6911 141.387 29.6237 141.789C29.3419 143.469 28.8904 144.931 28.4123 146.478C28.2358 147.05 28.0546 147.636 27.8753 148.254C27.6389 149.07 27.3445 150.085 27.062 151.444C26.7795 152.802 26.5741 154.177 26.451 155.53C26.2751 157.469 26.3016 158.729 26.3102 159.142C26.3147 159.363 26.3156 159.409 26.2446 159.481Z" fill="#F2F2F2"/>
<path d="M27.3586 138.724C27.3405 138.72 27.3223 138.715 27.304 138.71C26.933 138.606 26.6353 138.304 26.4191 137.812C26.3178 137.581 26.294 137.338 26.2463 136.853C26.2388 136.778 26.2058 136.4 26.2464 135.898C26.2728 135.57 26.3081 135.439 26.3975 135.335C26.4967 135.22 26.6303 135.154 26.7716 135.121C26.7754 135.078 26.7896 135.035 26.8178 134.995C26.934 134.828 27.1285 134.897 27.234 134.932C27.2872 134.951 27.3534 134.976 27.4279 134.988C27.5451 135.008 27.615 134.988 27.7209 134.957C27.8221 134.928 27.9481 134.891 28.1222 134.894C28.4657 134.899 28.7199 135.053 28.8038 135.104C29.2454 135.369 29.3979 135.792 29.5743 136.281C29.6094 136.379 29.7257 136.734 29.7528 137.19C29.7724 137.52 29.7292 137.655 29.6796 137.751C29.5783 137.949 29.4233 138.041 29.0385 138.234C28.6365 138.437 28.4348 138.538 28.2694 138.591C27.8845 138.711 27.6429 138.787 27.3586 138.724Z" fill="#F2F2F2"/>
<path d="M130.56 100.51C130.56 100.51 133.056 101.972 132.237 103.417C131.419 104.863 130.277 106.832 131.051 107.452C131.826 108.072 133.104 110.807 133.104 110.807C133.104 110.807 138.561 110.046 138.049 114.278C137.537 118.51 134.973 119.087 137.17 120.949C139.368 122.811 134.887 125.038 134.887 125.038C134.887 125.038 131.793 124.075 131.087 121.116C130.382 118.156 131.717 123.379 131.269 123.753C130.821 124.128 129.083 126.596 127.853 123.314C126.623 120.032 127.841 118.76 126.215 116.823C124.59 114.886 123.485 111.753 123.534 111.205C123.582 110.658 121.674 105.66 124.611 103.711C127.547 101.762 130.56 100.51 130.56 100.51Z" fill="#2F2E41"/>
<path d="M155.153 146.431C156.602 147.628 158.396 147.852 159.159 146.931C159.923 146.01 159.366 144.293 157.916 143.095C157.343 142.608 156.662 142.266 155.93 142.096L149.724 137.099L147.438 140.056L153.798 144.669C154.102 145.356 154.567 145.96 155.153 146.431Z" fill="#FFB6B6"/>
<path d="M136.554 119.175C136.554 119.175 131.684 115.924 130.09 117.518C128.495 119.113 128.876 123.095 128.876 123.095L141.647 137.956L151.774 144.383L154.489 140.138L145.975 132.552L136.554 119.175Z" fill="#8F8DAD"/>
<path d="M129.416 112.132L131.183 118.403H121.484L124.678 110.676L129.416 112.132Z" fill="#FFB6B6"/>
<path opacity="0.1" d="M129.416 112.132L131.183 118.403H121.484L124.678 110.676L129.416 112.132Z" fill="black"/>
<path d="M108.27 158.432C108.145 160.306 109.012 161.89 110.207 161.969C111.401 162.049 112.471 160.593 112.596 158.718C112.656 157.97 112.536 157.218 112.246 156.526L112.676 148.577L108.935 148.455L108.909 156.304C108.529 156.952 108.31 157.682 108.27 158.432Z" fill="#FFB6B6"/>
<path d="M119.528 127.428C119.528 127.428 119.321 121.582 117.093 121.223C114.865 120.864 111.852 123.502 111.852 123.502L107.25 142.537L107.952 154.497L112.989 154.213L114.171 142.882L119.528 127.428Z" fill="#8F8DAD"/>
<path d="M146.532 149.72C146.532 149.72 148.408 157.207 148.219 156.89C148.03 156.572 143.33 156.998 143.33 156.998L142.469 149.768L146.532 149.72Z" fill="#FFB6B6"/>
<path d="M131.966 116.312H122.816L112.856 123.107L109.977 146.892L111.547 151.597L114.427 157.086C114.427 157.086 111.547 145.063 118.615 149.767C125.683 154.472 126.207 155.256 126.207 155.256L135.631 150.551L139.165 131.079L136.547 120.363L131.966 116.312Z" fill="#8F8DAD"/>
<path d="M113.903 148.461C122.185 149.623 129.666 148.61 135.762 143.838C135.762 143.838 140.212 158.736 132.097 160.304C123.981 161.873 114.95 159.177 113.903 156.564C112.856 153.95 113.903 148.461 113.903 148.461Z" fill="#2F2E41"/>
<path d="M129.343 153.165L138.375 174.418L142.563 198.987L137.066 200.294L127.233 177.685L113.898 156.04L129.343 153.165Z" fill="#2F2E41"/>
<path d="M130.523 147.104C130.523 147.104 132.618 130.899 136.544 129.854C138.459 129.344 140.249 129.393 141.58 129.578C142.923 129.764 143.993 130.788 144.227 132.12L147.796 152.381H142.75L141.126 146.892L136.806 154.423L130.523 147.104Z" fill="#2F2E41"/>
<path d="M143.355 154.946L148.344 154.423L149.114 157.299C149.114 157.299 157.229 164.617 153.041 165.14C148.853 165.662 144.926 162.787 144.926 162.787L139.164 159.487C139.164 159.487 141.392 153.558 142.962 153.558C144.533 153.558 143.355 154.946 143.355 154.946Z" fill="#2F2E41"/>
<path d="M127.106 113.495C130.332 113.495 132.947 110.884 132.947 107.663C132.947 104.443 130.332 101.832 127.106 101.832C123.881 101.832 121.266 104.443 121.266 107.663C121.266 110.884 123.881 113.495 127.106 113.495Z" fill="#FFB6B6"/>
<path d="M129.344 101.152C129.344 101.152 130.317 103.873 128.76 104.456C127.202 105.039 125.061 105.817 125.256 106.789C125.45 107.76 124.672 110.676 124.672 110.676C124.672 110.676 129.344 113.592 126.229 116.508C123.114 119.423 120.778 118.222 121.265 121.058C121.751 123.894 116.884 122.728 116.884 122.728C116.884 122.728 115.132 120.006 116.495 117.285C117.858 114.564 115.522 119.423 114.937 119.423C114.353 119.423 111.433 120.201 112.601 116.896C113.769 113.592 115.522 113.397 115.522 110.871C115.522 108.344 116.69 105.233 117.079 104.845C117.468 104.456 119.22 99.4021 122.725 99.7908C126.229 100.18 129.344 101.152 129.344 101.152Z" fill="#2F2E41"/>
<path d="M105.522 148.461C97.2393 149.623 89.7584 148.61 83.6629 143.838C83.6629 143.838 79.2127 158.736 87.3279 160.304C95.4431 161.873 104.474 159.177 105.522 156.564C106.569 153.95 105.522 148.461 105.522 148.461Z" fill="#2F2E41"/>
<path d="M90.0793 153.165L81.0479 174.418L76.8594 198.987L82.3568 200.294L92.19 177.685L105.524 156.04L90.0793 153.165Z" fill="#2F2E41"/>
<path d="M84.1491 148.113L82.125 171.112L85.7323 195.773L91.3653 195.322L93.7332 170.787L99.7291 146.091L84.1491 148.113Z" fill="#2F2E41"/>
<path d="M88.8671 100.51C88.8671 100.51 86.3705 101.972 87.1893 103.417C88.0081 104.863 89.1495 106.832 88.3751 107.452C87.6008 108.072 86.3223 110.807 86.3223 110.807C86.3223 110.807 80.8654 110.046 81.3777 114.278C81.89 118.51 84.4536 119.087 82.2563 120.949C80.059 122.811 84.5399 125.038 84.5399 125.038C84.5399 125.038 87.6334 124.075 88.3391 121.116C89.0449 118.156 87.71 123.379 88.1577 123.753C88.6054 124.128 90.3437 126.596 91.5738 123.314C92.8039 120.032 91.5858 118.76 93.2111 116.823C94.8365 114.886 95.9415 111.753 95.8931 111.205C95.8447 110.658 97.7523 105.66 94.8161 103.711C91.8799 101.762 88.8671 100.51 88.8671 100.51Z" fill="#2F2E41"/>
<path d="M90.017 112.132L88.25 118.403H97.9482L94.7547 110.676L90.017 112.132Z" fill="#A0616A"/>
<path opacity="0.1" d="M90.017 112.132L88.25 118.403H97.9482L94.7547 110.676L90.017 112.132Z" fill="black"/>
<path d="M111.164 158.432C111.289 160.306 110.422 161.89 109.227 161.969C108.032 162.049 106.962 160.593 106.837 158.718C106.777 157.97 106.897 157.218 107.188 156.526L106.758 148.577L110.498 148.455L110.525 156.304C110.905 156.952 111.124 157.682 111.164 158.432Z" fill="#A0616A"/>
<path d="M99.9062 127.428C99.9062 127.428 100.113 121.582 102.341 121.223C104.569 120.864 107.582 123.502 107.582 123.502L112.184 142.537L111.482 154.497L106.445 154.213L105.263 142.882L99.9062 127.428Z" fill="#F50057"/>
<path d="M87.4582 116.312H96.6081L106.568 123.107L109.448 146.892L107.877 151.597L104.997 157.086C104.997 157.086 107.877 145.063 100.809 149.767C100.738 149.814 100.668 149.861 100.599 149.907C96.0491 152.942 90.0455 152.63 85.8339 149.143L82.4844 146.37L84.3168 137.221L82.877 120.363L87.4582 116.312Z" fill="#F50057"/>
<path d="M64.5672 146.089C63.0996 147.265 61.3026 147.462 60.5534 146.529C59.8042 145.597 60.3866 143.888 61.8549 142.712C62.4349 142.234 63.1211 141.902 63.856 141.744L70.1371 136.841L72.3785 139.833L65.9486 144.348C65.634 145.031 65.1603 145.627 64.5672 146.089Z" fill="#A0616A"/>
<path d="M83.5799 119.12C83.5799 119.12 88.4988 115.942 90.0691 117.561C91.6395 119.18 91.198 123.156 91.198 123.156L78.2022 137.821L67.9787 144.094L65.3281 139.808L73.9564 132.352L83.5799 119.12Z" fill="#F50057"/>
<path d="M92.317 113.495C95.5427 113.495 98.1575 110.884 98.1575 107.663C98.1575 104.443 95.5427 101.832 92.317 101.832C89.0914 101.832 86.4766 104.443 86.4766 107.663C86.4766 110.884 89.0914 113.495 92.317 113.495Z" fill="#A0616A"/>
<path d="M89.4094 103.754C89.4094 103.754 88.549 100.891 89.983 100.891C91.4171 100.891 97.1534 101.177 97.727 101.75C98.3006 102.322 105.088 108.071 101.073 112.652C97.0576 117.234 101.073 119.448 101.073 119.448C101.073 119.448 104.037 126.377 101.169 126.95C98.3006 127.523 86.5358 124.248 89.4094 118.932C92.5278 113.163 93.9787 104.057 89.4094 103.754Z" fill="#2F2E41"/>
<path d="M184.975 146.326C184.883 146.043 184.18 146.167 184.112 145.914C184.045 145.662 184.719 145.45 185.237 144.738C185.33 144.61 185.918 143.802 185.692 143.461C185.265 142.817 182.292 144.422 181.579 143.521C181.422 143.324 181.358 142.984 180.891 142.353C180.705 142.101 180.586 141.98 180.444 141.983C180.242 141.989 180.17 142.241 179.853 142.697C179.377 143.382 179.205 143.296 178.892 143.858C178.659 144.274 178.632 144.541 178.464 144.556C178.226 144.578 178.128 144.06 177.838 144.04C177.542 144.019 177.246 144.532 177.099 144.932C176.823 145.684 176.994 146.258 177.032 146.83C177.073 147.452 176.976 148.363 176.299 149.532L169.914 159.689C171.285 157.619 175.178 151.972 176.746 149.901C177.199 149.303 177.686 148.703 178.434 148.59C179.155 148.481 180.033 148.837 181.257 148.816C181.4 148.814 181.798 148.802 181.895 148.591C181.975 148.417 181.776 148.266 181.848 148.102C181.945 147.883 182.382 147.977 182.976 147.831C183.395 147.728 183.68 147.559 183.925 147.412C183.999 147.368 185.099 146.703 184.975 146.326Z" fill="#F2F2F2"/>
<path d="M168.254 148.698C168.088 148.661 167.947 149.042 167.803 149.002C167.659 148.962 167.75 148.57 167.549 148.111C167.513 148.029 167.285 147.507 167.053 147.52C166.613 147.543 166.544 149.463 165.896 149.553C165.753 149.573 165.568 149.506 165.123 149.553C164.946 149.571 164.852 149.594 164.812 149.665C164.757 149.766 164.86 149.874 164.993 150.161C165.192 150.592 165.1 150.651 165.286 150.967C165.423 151.201 165.546 151.291 165.506 151.378C165.448 151.501 165.165 151.399 165.071 151.535C164.976 151.675 165.142 151.968 165.297 152.155C165.586 152.507 165.918 152.589 166.21 152.736C166.528 152.895 166.948 153.205 167.327 153.874L170.478 159.934C169.855 158.665 168.203 155.128 167.637 153.762C167.474 153.367 167.319 152.956 167.48 152.556C167.634 152.171 168.063 151.844 168.406 151.238C168.446 151.167 168.555 150.969 168.479 150.861C168.417 150.771 168.285 150.825 168.225 150.742C168.145 150.632 168.318 150.445 168.417 150.112C168.488 149.877 168.487 149.688 168.485 149.526C168.485 149.477 168.475 148.746 168.254 148.698Z" fill="#F2F2F2"/>
<path d="M171.398 150.177L171.497 149.264L171.558 149.206C171.839 148.941 172.015 148.66 172.081 148.371C172.091 148.325 172.1 148.278 172.108 148.231C172.141 148.043 172.182 147.81 172.362 147.568C172.464 147.433 172.731 147.127 173.007 147.234C173.082 147.262 173.132 147.31 173.167 147.361C173.176 147.352 173.185 147.344 173.194 147.334C173.313 147.218 173.397 147.176 173.477 147.135C173.539 147.104 173.603 147.071 173.71 146.985C173.758 146.947 173.796 146.913 173.828 146.885C173.924 146.799 174.048 146.698 174.218 146.738C174.398 146.787 174.459 146.958 174.5 147.071C174.573 147.274 174.596 147.413 174.611 147.505C174.616 147.539 174.622 147.577 174.627 147.589C174.666 147.688 175.161 147.714 175.347 147.724C175.765 147.747 176.126 147.767 176.213 148.052C176.276 148.257 176.146 148.48 175.815 148.733C175.713 148.811 175.61 148.866 175.52 148.906C175.575 148.958 175.619 149.029 175.622 149.125C175.628 149.353 175.394 149.528 174.926 149.646C174.81 149.676 174.653 149.715 174.449 149.705C174.352 149.7 174.268 149.685 174.196 149.672C174.185 149.713 174.165 149.755 174.13 149.796C174.026 149.915 173.858 149.945 173.629 149.878C173.377 149.808 173.178 149.712 173.002 149.629C172.849 149.556 172.717 149.493 172.606 149.476C172.399 149.447 172.206 149.575 171.976 149.744L171.398 150.177Z" fill="#F2F2F2"/>
<path d="M173.047 144.977L172.137 145.113L172.066 145.068C171.738 144.864 171.421 144.766 171.124 144.775C171.077 144.777 171.03 144.781 170.982 144.785C170.792 144.801 170.556 144.82 170.275 144.707C170.118 144.644 169.755 144.463 169.788 144.169C169.796 144.09 169.83 144.03 169.871 143.983C169.86 143.977 169.849 143.97 169.837 143.963C169.695 143.878 169.633 143.808 169.573 143.741C169.527 143.689 169.48 143.635 169.369 143.553C169.32 143.517 169.278 143.489 169.242 143.465C169.134 143.394 169.004 143.3 169 143.126C169.002 142.94 169.152 142.837 169.252 142.768C169.429 142.647 169.558 142.59 169.644 142.552C169.675 142.538 169.71 142.522 169.721 142.515C169.807 142.452 169.707 141.968 169.67 141.786C169.586 141.376 169.513 141.022 169.768 140.865C169.95 140.753 170.199 140.822 170.528 141.077C170.63 141.156 170.709 141.242 170.771 141.318C170.807 141.252 170.864 141.191 170.957 141.164C171.176 141.101 171.405 141.282 171.638 141.704C171.696 141.809 171.774 141.95 171.816 142.15C171.836 142.245 171.843 142.33 171.848 142.403C171.891 142.403 171.937 142.411 171.985 142.435C172.127 142.506 172.199 142.66 172.192 142.898C172.188 143.159 172.146 143.376 172.109 143.567C172.077 143.733 172.05 143.877 172.062 143.988C172.086 144.195 172.259 144.349 172.481 144.529L173.047 144.977Z" fill="#F2F2F2"/>
<path d="M173.164 142.249L173.263 141.336L173.324 141.278C173.605 141.013 173.781 140.732 173.847 140.443C173.857 140.397 173.865 140.351 173.874 140.303C173.906 140.116 173.947 139.882 174.128 139.64C174.229 139.505 174.497 139.2 174.773 139.306C174.847 139.334 174.898 139.382 174.932 139.434C174.941 139.425 174.95 139.416 174.96 139.406C175.079 139.291 175.162 139.248 175.243 139.207C175.304 139.176 175.368 139.144 175.476 139.058C175.523 139.02 175.561 138.986 175.593 138.957C175.69 138.871 175.814 138.77 175.984 138.81C176.163 138.859 176.225 139.03 176.266 139.144C176.339 139.346 176.362 139.485 176.376 139.577C176.382 139.611 176.388 139.649 176.393 139.661C176.432 139.76 176.926 139.786 177.112 139.797C177.53 139.819 177.892 139.839 177.979 140.125C178.041 140.329 177.911 140.552 177.581 140.805C177.478 140.884 177.375 140.938 177.286 140.978C177.341 141.03 177.385 141.101 177.388 141.197C177.394 141.425 177.159 141.6 176.692 141.718C176.575 141.748 176.419 141.787 176.214 141.777C176.118 141.772 176.033 141.758 175.961 141.744C175.951 141.785 175.931 141.828 175.896 141.868C175.791 141.987 175.623 142.017 175.395 141.95C175.143 141.88 174.944 141.785 174.768 141.701C174.615 141.628 174.482 141.565 174.371 141.548C174.165 141.519 173.972 141.647 173.742 141.816L173.164 142.249Z" fill="#F2F2F2"/>
<path d="M170.221 159.741L170.06 159.583L169.837 159.559C169.838 159.538 169.836 159.489 169.835 159.412C169.826 158.992 169.799 157.714 169.978 155.75C170.102 154.379 170.31 152.988 170.596 151.613C170.882 150.237 171.179 149.213 171.418 148.39C171.598 147.769 171.78 147.18 171.957 146.606C172.431 145.074 172.878 143.626 173.154 141.975C173.216 141.606 173.345 140.839 173.082 139.933C172.929 139.408 172.667 138.914 172.304 138.464L172.655 138.181C173.057 138.677 173.346 139.225 173.516 139.808C173.808 140.812 173.668 141.648 173.6 142.05C173.318 143.73 172.867 145.192 172.389 146.739C172.212 147.311 172.031 147.897 171.852 148.515C171.615 149.331 171.321 150.346 171.039 151.705C170.756 153.063 170.551 154.437 170.428 155.791C170.252 157.73 170.278 158.989 170.287 159.403C170.291 159.624 170.292 159.67 170.221 159.741Z" fill="#F2F2F2"/>
<path d="M171.335 138.984C171.317 138.98 171.299 138.976 171.281 138.97C170.91 138.867 170.612 138.565 170.396 138.073C170.294 137.842 170.271 137.599 170.223 137.114C170.215 137.039 170.182 136.66 170.223 136.159C170.249 135.831 170.285 135.699 170.374 135.596C170.473 135.481 170.607 135.415 170.748 135.382C170.752 135.338 170.766 135.296 170.794 135.256C170.911 135.089 171.105 135.157 171.211 135.193C171.264 135.212 171.33 135.236 171.405 135.249C171.522 135.269 171.592 135.249 171.697 135.218C171.799 135.189 171.925 135.152 172.099 135.155C172.442 135.16 172.697 135.314 172.78 135.365C173.222 135.63 173.374 136.052 173.551 136.542C173.586 136.64 173.702 136.995 173.729 137.451C173.749 137.781 173.706 137.915 173.656 138.012C173.555 138.21 173.4 138.302 173.015 138.495C172.613 138.698 172.411 138.799 172.246 138.851C171.861 138.972 171.619 139.048 171.335 138.984Z" fill="#F2F2F2"/>
<path d="M57.3738 143.936L57.0784 134.633C57.0736 134.482 57.133 134.335 57.2415 134.23C57.3501 134.124 57.499 134.069 57.6502 134.078L65.0439 134.521C65.1933 134.53 65.3334 134.601 65.4284 134.716C65.5235 134.832 65.5665 134.983 65.5465 135.131L64.2957 144.377C64.2578 144.657 64.0073 144.862 63.7252 144.843L57.8776 144.457C57.8183 144.453 57.7618 144.44 57.7094 144.418C57.5163 144.34 57.3807 144.155 57.3738 143.936Z" fill="#F50057"/>
<path d="M57.0878 133.763C57.1912 133.752 57.3298 133.739 57.4961 133.725C57.4517 133.642 57.4335 133.544 57.4525 133.444L57.5845 132.747C57.6188 132.566 57.7647 132.428 57.9475 132.403C59.0361 132.258 62.7806 131.864 65.1385 132.932C65.286 132.998 65.3809 133.145 65.3856 133.307L65.4071 134.05C65.4098 134.142 65.3831 134.227 65.3362 134.298C65.5322 134.351 65.7276 134.406 65.9214 134.467C66.0428 134.505 66.1298 134.612 66.1444 134.738L66.181 135.055C66.2042 135.256 66.0393 135.429 65.8371 135.415L56.9978 134.819C56.7966 134.805 56.6565 134.614 56.7049 134.418L56.8068 134.007C56.8396 133.875 56.9519 133.777 57.0878 133.763Z" fill="#8F8DAD"/>
<path d="M35.1238 117.538L34.8284 108.235C34.8236 108.084 34.883 107.937 34.9915 107.831C35.1001 107.726 35.249 107.671 35.4002 107.68L42.7939 108.122C42.9433 108.131 43.0834 108.203 43.1784 108.318C43.2735 108.433 43.3165 108.584 43.2965 108.732L42.0457 117.979C42.0078 118.259 41.7573 118.463 41.4752 118.444L35.6276 118.058C35.5683 118.054 35.5118 118.041 35.4594 118.02C35.2663 117.942 35.1307 117.757 35.1238 117.538Z" fill="#F50057"/>
<path d="M34.8378 107.365C34.9412 107.354 35.0798 107.34 35.2461 107.326C35.2017 107.244 35.1835 107.146 35.2025 107.046L35.3345 106.349C35.3688 106.168 35.5147 106.029 35.6975 106.005C36.7861 105.859 40.5306 105.465 42.8885 106.533C43.036 106.6 43.1309 106.747 43.1356 106.908L43.1572 107.652C43.1598 107.744 43.1331 107.829 43.0862 107.9C43.2822 107.952 43.4776 108.008 43.6714 108.068C43.7928 108.106 43.8798 108.214 43.8944 108.34L43.931 108.656C43.9542 108.857 43.7893 109.03 43.5871 109.016L34.7478 108.42C34.5466 108.407 34.4065 108.215 34.4549 108.02L34.5568 107.609C34.5896 107.476 34.7019 107.379 34.8378 107.365Z" fill="#8F8DAD"/>
<path d="M151.093 146.289L150.797 136.986C150.792 136.835 150.852 136.688 150.96 136.582C151.069 136.477 151.218 136.422 151.369 136.431L158.763 136.873C158.912 136.882 159.052 136.954 159.147 137.069C159.242 137.184 159.285 137.335 159.265 137.483L158.014 146.73C157.977 147.01 157.726 147.214 157.444 147.195L151.596 146.809C151.537 146.805 151.481 146.792 151.428 146.771C151.235 146.693 151.099 146.508 151.093 146.289Z" fill="#F50057"/>
<path d="M150.807 136.115C150.91 136.105 151.049 136.091 151.215 136.077C151.17 135.995 151.152 135.897 151.171 135.796L151.303 135.1C151.338 134.919 151.483 134.78 151.666 134.756C152.755 134.61 156.499 134.216 158.857 135.284C159.005 135.351 159.1 135.498 159.104 135.659L159.126 136.403C159.129 136.495 159.102 136.58 159.055 136.65C159.251 136.703 159.446 136.759 159.64 136.819C159.762 136.857 159.849 136.964 159.863 137.091L159.9 137.407C159.923 137.608 159.758 137.781 159.556 137.767L150.717 137.171C150.515 137.158 150.375 136.966 150.424 136.771L150.526 136.36C150.558 136.227 150.671 136.13 150.807 136.115Z" fill="#8F8DAD"/>
</g>
<path d="M49.6019 50.3849L46.7755 57.687L43.271 66.742L35.4879 63.9602L39.058 53.1596L40.9922 47.3076L49.6019 50.3849Z" fill="#E6E6E6"/>
<path d="M47.2192 45.1117L46.1172 44.7178L40.89 59.2971L41.992 59.691L47.2192 45.1117Z" fill="#F50057"/>
<path d="M47.0646 55.7399L43.1014 66.1378L36.0072 63.6021L40.1621 51.2453C40.8655 51.2945 41.5512 51.4878 42.1765 51.8132C42.8018 52.1386 43.3533 52.5891 43.7966 53.1366C44.7309 54.2602 45.9274 55.1129 47.0646 55.7399Z" fill="#FFB6B6"/>
<path d="M41.0972 54.9366L40.0859 54.5752L39.7239 55.5848L40.7352 55.9463L41.0972 54.9366Z" fill="#E6E6E6"/>
<path d="M42.519 53.1192L41.5078 52.7578L41.1458 53.7675L42.157 54.1289L42.519 53.1192Z" fill="#E6E6E6"/>
<path d="M44.1825 55.3234L43.5859 54.4316L42.6928 55.0273L43.2894 55.919L44.1825 55.3234Z" fill="#E6E6E6"/>
<path d="M45.37 57.7658L44.7734 56.874L43.8803 57.4697L44.4769 58.3614L45.37 57.7658Z" fill="#E6E6E6"/>
<path d="M41.9013 57.6896L41.3047 56.7979L40.4115 57.3935L41.0081 58.2853L41.9013 57.6896Z" fill="#E6E6E6"/>
<path d="M45.9415 53.8859C46.0556 53.9267 46.1813 53.8674 46.2221 53.7534C46.263 53.6395 46.2036 53.5141 46.0894 53.4733C45.9753 53.4325 45.8497 53.4918 45.8088 53.6057C45.768 53.7197 45.8274 53.8451 45.9415 53.8859Z" fill="#FFB6B6"/>
<path d="M42.2306 51.008C42.3447 51.0488 42.4703 50.9894 42.5112 50.8755C42.552 50.7616 42.4926 50.6361 42.3785 50.5953C42.2644 50.5546 42.1388 50.6139 42.0979 50.7278C42.0571 50.8417 42.1164 50.9672 42.2306 51.008Z" fill="#FFB6B6"/>
<path d="M46.2618 50.8205C46.3759 50.8612 46.5016 50.8019 46.5424 50.688C46.5833 50.5741 46.5239 50.4486 46.4098 50.4078C46.2956 50.3671 46.17 50.4264 46.1292 50.5403C46.0883 50.6542 46.1477 50.7797 46.2618 50.8205Z" fill="#FFB6B6"/>
<path d="M21.326 62.3813C25.3546 61.1803 28.4665 59.6919 28.2766 59.0568C28.0867 58.4216 24.6669 58.8804 20.6382 60.0813C16.6096 61.2823 13.4977 62.7707 13.6876 63.4058C13.8775 64.0409 17.2974 63.5822 21.326 62.3813Z" fill="#9F616A"/>
<path d="M16.9627 61.9592C18.2349 61.58 19.0994 60.7148 18.8936 60.0267C18.6879 59.3387 17.4898 59.0884 16.2176 59.4676C14.9454 59.8469 14.0809 60.7121 14.2866 61.4001C14.4923 62.0881 15.6905 62.3385 16.9627 61.9592Z" fill="#F50057"/>
<path d="M16.1033 62.217C17.3755 61.8378 18.24 60.9726 18.0343 60.2845C17.8285 59.5965 16.6304 59.3462 15.3582 59.7254C14.086 60.1047 13.2215 60.9699 13.4272 61.6579C13.633 62.346 14.8311 62.5963 16.1033 62.217Z" fill="#F50057"/>
<path d="M26.2673 59.4992C27.5395 59.12 28.4041 58.2548 28.1983 57.5668C27.9926 56.8787 26.7945 56.6284 25.5223 57.0076C24.2501 57.3869 23.3855 58.2521 23.5913 58.9401C23.797 59.6282 24.9951 59.8785 26.2673 59.4992Z" fill="#F50057"/>
<path d="M20.9002 60.7864C22.1724 60.4071 23.0369 59.5419 22.8311 58.8539C22.6254 58.1658 21.4273 57.9155 20.1551 58.2948C18.8829 58.674 18.0184 59.5392 18.2241 60.2272C18.4298 60.9153 19.628 61.1656 20.9002 60.7864Z" fill="#F50057"/>
<path d="M24.8377 59.6125C26.1099 59.2333 26.9744 58.3681 26.7686 57.68C26.5629 56.992 25.3648 56.7417 24.0926 57.1209C22.8204 57.5002 21.9559 58.3654 22.1616 59.0534C22.3673 59.7415 23.5655 59.9918 24.8377 59.6125Z" fill="#F50057"/>
<path d="M27.2066 56.7139C23.4653 59.3655 18.7943 60.7579 13.1936 60.8913L13.1355 60.6972C12.6961 59.2309 12.838 57.6522 13.5319 56.2875C14.2257 54.9228 15.4184 53.8767 16.8632 53.3654C18.0792 52.9354 19.3166 52.5682 20.5705 52.2654C21.9132 51.9487 23.3264 52.1574 24.5198 52.8485C25.7132 53.5396 26.5963 54.6607 26.9877 55.9816L27.2066 56.7139Z" fill="#FFECCF"/>
<path d="M26.7436 62.603C23.7597 63.8304 20.6596 64.7546 17.4902 65.3615C16.739 65.5076 15.9602 65.3697 15.3051 64.9746C14.6501 64.5795 14.1654 63.9555 13.9453 63.2236L28.5343 58.8746C28.7521 59.6071 28.6894 60.3943 28.3585 61.0833C28.0276 61.7723 27.4521 62.3139 26.7436 62.603Z" fill="#FFECCF"/>
<path d="M17.0496 55.2542C16.7567 55.4931 16.4193 55.6717 16.0569 55.7798C15.6944 55.8878 15.3142 55.9231 14.938 55.8837C15.231 55.6448 15.5684 55.4662 15.9308 55.3581C16.2932 55.2501 16.6734 55.2148 17.0496 55.2542Z" fill="#D0CDE1"/>
<path d="M19.4168 55.4866C19.1239 55.7255 18.7865 55.9042 18.4241 56.0122C18.0617 56.1202 17.6814 56.1555 17.3052 56.1161C17.5982 55.8772 17.9356 55.6986 18.298 55.5905C18.6604 55.4825 19.0406 55.4472 19.4168 55.4866Z" fill="#D0CDE1"/>
<path d="M19.1512 53.8958C18.8582 54.1347 18.5208 54.3133 18.1584 54.4214C17.796 54.5294 17.4158 54.5647 17.0396 54.5253C17.3325 54.2864 17.6699 54.1078 18.0323 53.9997C18.3948 53.8917 18.775 53.8564 19.1512 53.8958Z" fill="#D0CDE1"/>
<path d="M23.0887 52.723C22.7958 52.9619 22.4584 53.1405 22.0959 53.2485C21.7335 53.3566 21.3533 53.3919 20.9771 53.3524C21.27 53.1135 21.6074 52.9349 21.9699 52.8269C22.3323 52.7188 22.7125 52.6835 23.0887 52.723Z" fill="#D0CDE1"/>
<path d="M22.2918 53.9007C21.9989 54.1396 21.6615 54.3182 21.2991 54.4263C20.9366 54.5343 20.5564 54.5696 20.1802 54.5302C20.4732 54.2913 20.8105 54.1126 21.173 54.0046C21.5354 53.8966 21.9156 53.8612 22.2918 53.9007Z" fill="#D0CDE1"/>
</g>
<defs>
<clipPath id="clip0_649_16515">
<rect width="200" height="181.132" fill="white"/>
</clipPath>
<clipPath id="clip1_649_16515">
<rect width="190.576" height="124.937" fill="white" transform="translate(4.71094 90.4355)"/>
</clipPath>
</defs>
</svg>
