<svg width="200" height="139" viewBox="0 0 200 139" fill="none" xmlns="http://www.w3.org/2000/svg">
<g clip-path="url(#clip0_649_16667)">
<path d="M174.363 102.705L176.35 87.2991C183.689 84.0892 191.683 82.7593 199.639 83.4249C187.917 91.6013 187.787 109.357 179.322 121C176.654 124.611 173.226 127.562 169.291 129.634C165.357 131.706 161.016 132.847 156.592 132.971L146.946 137.891C146.298 130.616 147.2 123.285 149.59 116.401C151.98 109.517 155.801 103.245 160.791 98.0166C163.618 95.1118 166.792 92.5825 170.238 90.4886C171.929 96.5967 174.363 102.705 174.363 102.705Z" fill="#F2F2F2"/>
<path d="M153.09 8.99224C153.603 7.78218 154.38 6.70867 155.363 5.8546C156.345 5.00053 157.507 4.38874 158.757 4.06648C161.534 3.32812 165.6 4.45289 167.687 6.06784C171.505 9.02193 172.437 19.1703 169.814 22.3773C169.292 22.3558 167.492 22.34 166.964 22.3246L166.216 20.3917V22.3056C162.094 22.2067 157.803 22.2686 153.509 22.3326C153.124 20.062 152.208 11.1764 153.09 8.99224Z" fill="#2F2E41"/>
<path d="M153.791 131.365L150.031 131.365L148.242 116.539L153.791 116.539L153.791 131.365Z" fill="#9E616A"/>
<path d="M186.707 128.974L183.068 129.944L177.68 116.059L183.049 114.628L186.707 128.974Z" fill="#9E616A"/>
<path d="M158.838 19.9295C162.126 19.9295 164.792 17.2039 164.792 13.8417C164.792 10.4795 162.126 7.75391 158.838 7.75391C155.549 7.75391 152.883 10.4795 152.883 13.8417C152.883 17.2039 155.549 19.9295 158.838 19.9295Z" fill="#9E616A"/>
<path d="M154.739 5.91447C155.883 5.20136 157.194 4.8156 158.534 4.79754C159.873 4.77948 161.194 5.12978 162.356 5.81181C163.518 6.49384 164.479 7.48255 165.14 8.67456C165.8 9.86657 166.136 11.2181 166.11 12.5878C162.864 13.436 159.405 13.7907 155.74 12.7921L154.902 10.6955L154.408 12.7936C153.286 13.6001 152.204 13.5987 151.16 12.7893C151.116 11.4234 151.423 10.0696 152.051 8.86318C152.679 7.65675 153.606 6.63997 154.739 5.91447Z" fill="#2F2E41"/>
<path d="M155.475 138.663H152.807L152.331 136.088L151.112 138.663H144.036C143.697 138.663 143.367 138.552 143.093 138.346C142.82 138.141 142.618 137.851 142.517 137.52C142.416 137.189 142.422 136.834 142.532 136.506C142.643 136.178 142.853 135.895 143.132 135.698L148.783 131.709V129.105L154.726 129.468L155.475 138.663Z" fill="#2F2E41"/>
<path d="M190.468 135.515L187.886 136.203L186.79 133.834L186.245 136.641L179.398 138.465C179.07 138.553 178.723 138.531 178.408 138.402C178.093 138.274 177.826 138.046 177.647 137.752C177.467 137.457 177.385 137.112 177.411 136.766C177.437 136.421 177.571 136.093 177.792 135.83L182.276 130.512L181.633 127.993L187.474 126.812L190.468 135.515Z" fill="#2F2E41"/>
<path d="M186.251 119.651C183.95 110.906 181.391 102.354 175.23 96.4942L173.534 71.048C175.92 66.5191 169.726 54.5659 169.726 54.5659L167.563 51.3457L152.566 54.0065C149.056 63.7932 147.345 66.2062 147.547 84.5831C147.748 102.96 148.238 122.048 148.238 122.048H148.021C147.661 122.048 147.316 122.194 147.062 122.454C146.807 122.714 146.664 123.067 146.664 123.435C146.664 123.803 146.807 124.156 147.062 124.416C147.316 124.677 147.661 124.823 148.021 124.823H154.807C155.167 124.823 155.512 124.677 155.767 124.416C156.021 124.156 156.164 123.803 156.164 123.435C156.164 123.067 156.021 122.714 155.767 122.454C155.512 122.194 155.167 122.048 154.807 122.048H154.632C158.615 110.602 159.327 92.997 159.503 74.386L165.168 97.906L178.856 119.562C178.507 119.589 178.182 119.755 177.949 120.022C177.716 120.29 177.594 120.639 177.608 120.997C177.622 121.355 177.772 121.693 178.024 121.941C178.277 122.188 178.614 122.326 178.965 122.325H185.75C186.066 122.326 186.372 122.213 186.615 122.008C186.858 121.803 187.024 121.517 187.083 121.2C187.143 120.883 187.092 120.555 186.94 120.272C186.788 119.989 186.544 119.769 186.251 119.651Z" fill="#2F2E41"/>
<path d="M171.267 56.9381C171.21 56.7117 171.085 56.5093 170.91 56.36C170.734 56.2108 170.516 56.1222 170.288 56.107C168.442 54.1909 167.058 37.1857 168.511 36.0104L168.508 35.9894L168.076 26.5385C168.06 26.1952 167.921 25.8699 167.686 25.6247C167.45 25.3795 167.135 25.2316 166.799 25.2092L164.514 25.0564C164.482 25.0553 164.453 25.0418 164.431 25.0188C164.409 24.9957 164.397 24.9649 164.397 24.9328C164.397 24.6748 164.347 24.4193 164.25 24.1808C164.154 23.9424 164.012 23.7258 163.834 23.5433C163.655 23.3609 163.443 23.2161 163.21 23.1174C162.977 23.0186 162.727 22.9678 162.475 22.9678H155.707C155.269 22.968 154.846 23.1317 154.517 23.4282C154.189 23.7247 153.977 24.1337 153.923 24.5783C153.92 24.6089 153.905 24.6373 153.883 24.6576C153.86 24.678 153.831 24.6889 153.801 24.6882L153.8 24.6882C153.031 24.672 152.282 24.9382 151.689 25.4384C151.095 25.9386 150.697 26.6397 150.566 27.4144C149.641 32.9175 150.078 44.4022 150.994 51.3458C151.314 53.763 148.878 58.4035 148.757 60.426C148.745 60.6214 148.771 60.8174 148.833 61.0026C148.895 61.1878 148.992 61.3586 149.119 61.5053C148.85 61.5849 148.62 61.7684 148.48 62.0173C148.34 62.2662 148.3 62.5609 148.369 62.8394C148.439 63.1249 148.617 63.3701 148.865 63.521C149.112 63.672 149.407 63.7164 149.687 63.6444L170.479 58.2857C170.759 58.2138 170.998 58.0314 171.146 57.7786C171.294 57.5259 171.337 57.2235 171.267 56.9381Z" fill="#F50057"/>
<path d="M126.547 33.629C126.907 33.4849 127.295 33.4235 127.681 33.449C128.068 33.4745 128.444 33.5863 128.784 33.7766C129.123 33.9669 129.418 34.231 129.647 34.5504C129.876 34.8697 130.034 35.2365 130.109 35.6249L151.003 40.2186L147.772 43.975L127.844 38.8721C127.197 38.9582 126.542 38.7989 126.003 38.4243C125.463 38.0497 125.077 37.4858 124.917 36.8396C124.757 36.1933 124.835 35.5095 125.135 34.9178C125.435 34.326 125.938 33.8675 126.547 33.629Z" fill="#9E616A"/>
<path d="M154.054 45.398C150.828 47.1242 131.341 40.371 130.49 40.0745L130.273 39.9991L134.281 36.233L149.698 38.5412L150.165 29.3123C150.218 28.2939 150.578 27.3172 151.195 26.5158C151.811 25.7144 152.656 25.1276 153.611 24.8357C154.458 24.5783 155.357 24.5632 156.211 24.7919C157.066 25.0207 157.842 25.4845 158.457 26.1331C159.071 26.7816 159.5 27.5899 159.696 28.4701C159.892 29.3504 159.849 30.2688 159.57 31.1255L155.755 42.853C155.461 43.7533 154.959 44.5677 154.291 45.2272C154.221 45.2954 154.14 45.353 154.054 45.398Z" fill="#F50057"/>
<path d="M136.233 138.48H15.6261L15.5962 138.383L15.5663 138.286C15.172 137.004 14.8114 135.705 14.4869 134.397C14.1623 133.09 13.8738 131.773 13.6236 130.458C13.2835 128.672 13.011 126.868 12.8075 125.057C12.604 123.247 12.4695 121.43 12.4053 119.62C12.2939 116.412 12.8168 113.214 13.9427 110.218C15.0686 107.221 16.7743 104.488 18.9578 102.181C21.1413 99.8741 23.7576 98.0415 26.6501 96.7927C29.5427 95.5439 32.652 94.9046 35.7918 94.9132H118.353C121.637 94.9073 124.884 95.609 127.884 96.9725C130.884 98.3359 133.57 100.331 135.765 102.826C137.961 105.322 139.617 108.263 140.626 111.457C141.635 114.651 141.974 118.027 141.622 121.364C141.386 123.521 140.991 125.658 140.44 127.754C139.87 129.923 139.151 132.048 138.287 134.113C137.994 134.816 137.681 135.521 137.35 136.228C137.019 136.933 136.673 137.635 136.309 138.333L136.271 138.407L136.233 138.48Z" fill="#FFEFEF"/>
<path d="M119.241 103.654H32.6539C30.7462 103.654 28.9166 102.879 27.5677 101.5C26.2188 100.121 25.4609 98.2503 25.4609 96.2999C25.4609 94.3496 26.2188 92.4792 27.5677 91.1001C28.9166 89.721 30.7462 88.9463 32.6539 88.9463H119.241C121.148 88.9463 122.978 89.721 124.327 91.1001C125.676 92.4792 126.434 94.3496 126.434 96.2999C126.434 98.2503 125.676 100.121 124.327 101.5C122.978 102.879 121.148 103.654 119.241 103.654Z" fill="#F50057"/>
<path d="M120.336 98.5682H32.2004L32.1408 98.3739C30.7772 93.9517 30.0001 89.3625 29.8302 84.7291C29.7521 82.3783 30.1379 80.0355 30.9645 77.8405C31.7911 75.6454 33.0416 73.643 34.6415 71.9526C36.2414 70.2623 38.1579 68.9186 40.2766 68.0018C42.3954 67.085 44.673 66.6138 46.9738 66.6162H107.241C109.648 66.6137 112.027 67.1292 114.226 68.1294C116.424 69.1295 118.392 70.5918 120.001 72.421C121.61 74.2502 122.825 76.4053 123.565 78.7461C124.305 81.0869 124.555 83.5608 124.298 86.0068C123.854 90.1492 122.547 94.326 120.413 98.421L120.336 98.5682Z" fill="#FFEFEF"/>
<path d="M108.386 75.9046H44.5992C42.6915 75.9046 40.862 75.1298 39.513 73.7507C38.1641 72.3717 37.4062 70.5012 37.4062 68.5509C37.4062 66.6006 38.1641 64.7302 39.513 63.3511C40.862 61.972 42.6915 61.1973 44.5992 61.1973H108.386C110.293 61.1973 112.123 61.972 113.472 63.3511C114.821 64.7302 115.579 66.6006 115.579 68.5509C115.579 70.5012 114.821 72.3717 113.472 73.7507C112.123 75.1298 110.293 75.9046 108.386 75.9046Z" fill="#F50057"/>
<path d="M112.632 50.0385C111.295 48.515 109.659 47.2963 107.831 46.4615C106.003 45.6268 104.024 45.1947 102.022 45.1934H52.1894C50.2811 45.1914 48.3919 45.5824 46.6345 46.3429C44.8772 47.1034 43.2876 48.2178 41.9605 49.6199C40.6335 51.0219 39.5961 52.6827 38.9104 54.5034C38.2246 56.324 37.9045 58.2672 37.9691 60.217C38.1092 64.0531 38.7519 67.8526 39.88 71.5139L39.9397 71.7082H112.876L112.952 71.5611C114.656 68.3741 115.748 64.8834 116.169 61.2771C116.384 59.2549 116.18 57.2091 115.571 55.2727C114.962 53.3364 113.96 51.5529 112.632 50.0385Z" fill="#FFEFEF"/>
<path d="M101.117 45.1934H54.0455C53.6958 46.2969 53.6064 47.4693 53.7846 48.6149C53.9628 49.7605 54.4035 50.8468 55.0708 51.7849C55.7381 52.7231 56.613 53.4866 57.6241 54.0131C58.6351 54.5396 59.7536 54.8141 60.8883 54.8142H94.2744C95.4091 54.8141 96.5276 54.5396 97.5386 54.0131C98.5497 53.4866 99.4246 52.7231 100.092 51.7849C100.759 50.8468 101.2 49.7605 101.378 48.6149C101.556 47.4693 101.467 46.2969 101.117 45.1934Z" fill="#F50057"/>
<path d="M138.038 134.004C137.452 135.408 136.796 136.808 136.07 138.203H15.8259C15.0381 135.643 14.3919 133.039 13.8906 130.405C14.1148 130.227 14.374 130.1 14.6504 130.034C14.9268 129.968 15.2139 129.964 15.4921 130.022C16.0651 130.208 16.5603 130.585 16.8981 131.093C17.9105 132.436 18.334 134.137 18.733 135.786C19.1591 134.814 19.6016 133.818 20.3453 133.069C20.6413 132.755 20.9977 132.508 21.392 132.342C21.7863 132.176 22.21 132.096 22.6362 132.106C22.9374 131.555 23.3673 131.089 23.8875 130.749C24.6176 130.305 25.6138 130.244 26.2788 130.78C26.7251 131.191 27.0225 131.744 27.123 132.35C27.4948 134.004 27.1854 135.73 26.8759 137.401C27.6604 136.696 28.4693 135.98 29.4491 135.616C29.8926 135.45 30.3647 135.38 30.8361 135.408C30.9284 134.485 31.1667 133.584 31.5419 132.739C31.8592 131.929 32.4078 131.236 33.1162 130.749C33.8463 130.305 34.8425 130.244 35.5075 130.78C35.9538 131.191 36.2512 131.744 36.3516 132.35C36.7235 134.004 36.4141 135.73 36.1046 137.401C36.8891 136.696 37.698 135.98 38.6778 135.616C39.1213 135.45 39.5934 135.38 40.0648 135.408C40.1571 134.485 40.3954 133.584 40.7706 132.739C41.0879 131.929 41.6365 131.236 42.3449 130.749C43.075 130.305 44.0712 130.244 44.7362 130.78C45.1825 131.191 45.4799 131.744 45.5803 132.35C45.9522 134.004 45.6428 135.73 45.3333 137.401C46.1178 136.696 46.9267 135.98 47.9065 135.616C48.35 135.45 48.8221 135.38 49.2935 135.408C49.3858 134.485 49.6241 133.584 49.9993 132.739C50.3166 131.929 50.8652 131.236 51.5736 130.749C52.3037 130.305 53.2999 130.244 53.9649 130.78C54.4112 131.191 54.7086 131.744 54.809 132.35C55.1809 134.004 54.8715 135.73 54.562 137.401C55.3465 136.696 56.1554 135.98 57.1352 135.616C57.5787 135.45 58.0508 135.38 58.5222 135.408C58.6145 134.485 58.8528 133.584 59.228 132.739C59.5453 131.929 60.0939 131.236 60.8023 130.749C61.5324 130.305 62.5286 130.244 63.1936 130.78C63.6399 131.191 63.9373 131.744 64.0377 132.35C64.4096 134.004 64.1002 135.73 63.7907 137.401C64.5752 136.696 65.3841 135.98 66.3639 135.616C66.8074 135.45 67.2795 135.38 67.7509 135.408C67.8432 134.485 68.0815 133.584 68.4567 132.739C68.774 131.929 69.3226 131.236 70.031 130.749C70.7611 130.305 71.7573 130.244 72.4223 130.78C72.8686 131.191 73.166 131.744 73.2664 132.35C73.6383 134.004 73.3289 135.73 73.0194 137.401C73.8039 136.696 74.6127 135.98 75.5926 135.616C76.0361 135.45 76.5082 135.38 76.9796 135.408C77.0719 134.485 77.3102 133.584 77.6854 132.739C78.0027 131.929 78.5513 131.236 79.2597 130.749C79.9898 130.305 80.986 130.244 81.651 130.78C82.0973 131.191 82.3947 131.744 82.4951 132.35C82.867 134.004 82.5576 135.73 82.2481 137.401C83.0326 136.696 83.8414 135.98 84.8213 135.616C85.2648 135.45 85.7369 135.38 86.2083 135.408C86.3006 134.485 86.5389 133.584 86.9141 132.739C87.2314 131.929 87.78 131.236 88.4884 130.749C89.2185 130.305 90.2147 130.244 90.8797 130.78C91.326 131.191 91.6234 131.744 91.7238 132.35C92.0957 134.004 91.7863 135.73 91.4768 137.401C92.2613 136.696 93.0701 135.98 94.05 135.616C94.4935 135.45 94.9656 135.38 95.437 135.408C95.5293 134.485 95.7676 133.584 96.1428 132.739C96.4601 131.929 97.0087 131.236 97.7171 130.749C98.4472 130.305 99.4434 130.244 100.108 130.78C100.555 131.191 100.852 131.744 100.953 132.35C101.324 134.004 101.015 135.73 100.706 137.401C101.49 136.696 102.299 135.98 103.279 135.616C103.722 135.45 104.194 135.38 104.666 135.408C104.758 134.485 104.996 133.584 105.371 132.739C105.689 131.929 106.237 131.236 106.946 130.749C107.676 130.305 108.672 130.244 109.337 130.78C109.783 131.191 110.081 131.744 110.181 132.35C110.553 134.004 110.244 135.73 109.934 137.401C110.719 136.696 111.528 135.98 112.507 135.616C112.951 135.45 113.423 135.38 113.894 135.408C113.987 134.485 114.225 133.584 114.6 132.739C114.917 131.929 115.466 131.236 116.174 130.749C116.905 130.305 117.901 130.244 118.566 130.78C119.012 131.191 119.309 131.744 119.41 132.35C119.782 134.004 119.472 135.73 119.163 137.401C119.947 136.696 120.756 135.98 121.736 135.616C122.18 135.45 122.652 135.38 123.123 135.408C123.215 134.485 123.454 133.584 123.829 132.739C124.146 131.929 124.695 131.236 125.403 130.749C126.133 130.305 127.129 130.244 127.794 130.78C128.241 131.191 128.538 131.744 128.639 132.35C129.01 134.004 128.701 135.73 128.392 137.401C129.176 136.696 129.985 135.98 130.965 135.616C131.408 135.45 131.88 135.38 132.352 135.408C132.444 134.485 132.682 133.584 133.058 132.739C133.375 131.929 133.923 131.236 134.632 130.749C135.362 130.305 136.358 130.244 137.023 130.78C137.469 131.191 137.767 131.744 137.867 132.35C137.985 132.893 138.043 133.448 138.038 134.004Z" fill="#CCCCCC"/>
<path d="M39.811 54.2202C41.7155 53.3611 44.0124 53.6867 45.7125 54.8725C47.5027 56.1211 48.3361 58.3197 48.1184 60.4893C47.9978 61.7342 47.5042 62.9107 46.7052 63.8581L46.9931 63.7362C46.1066 63.7252 45.6211 62.6646 45.7558 61.8635C45.9382 60.7789 47.15 60.2175 48.113 60.1361C49.4239 60.0253 50.6844 60.6064 51.8665 61.108C53.1352 61.6504 54.4348 62.1141 55.7582 62.4965C58.4497 63.2647 61.2241 63.6877 64.0177 63.7557C65.3949 63.7897 66.7727 63.7346 68.1431 63.5909C69.3953 63.4592 70.6791 63.2966 71.8538 62.8093C73.0412 62.3168 74.0668 61.5067 74.5741 60.2755C74.824 59.7303 74.9252 59.1262 74.8669 58.5271C74.8086 57.9279 74.593 57.356 74.243 56.8718C74.1924 56.821 74.1297 56.7844 74.061 56.7658C73.9924 56.7472 73.9202 56.7472 73.8516 56.7657C73.783 56.7842 73.7202 56.8207 73.6695 56.8715C73.6189 56.9223 73.582 56.9857 73.5625 57.0555C73.3746 58.0055 73.3824 58.985 73.5854 59.9317C73.7885 60.8784 74.1823 61.7714 74.7418 62.5538C75.3363 63.3885 76.1072 64.0755 76.9972 64.5636C77.8872 65.0517 78.8734 65.3284 79.8825 65.373C82.1863 65.5002 84.4394 64.5874 86.44 63.5061C88.5308 62.3761 90.4382 60.9286 92.564 59.8612C94.6145 58.8316 96.9767 58.0734 99.2579 58.6911C101.076 59.1834 102.998 60.8071 102.398 62.9412C102.166 63.7656 101.52 64.4596 100.641 64.457C99.896 64.4548 99.0359 63.9729 98.9459 63.1488C98.838 62.161 99.7634 61.3854 100.587 61.0941C101.766 60.6767 103.081 60.9894 104.287 61.0942C106.268 61.2755 108.244 60.7042 109.839 59.4894C111.376 58.3453 112.497 56.7094 113.022 54.8408C113.146 54.3648 113.226 53.8781 113.262 53.3869C113.304 52.8529 112.489 52.8557 112.448 53.3869C112.347 54.3887 112.053 55.3601 111.583 56.245C111.113 57.1299 110.476 57.9107 109.709 58.5423C108.946 59.1938 108.064 59.6855 107.115 59.9892C106.084 60.2903 105.003 60.3716 103.94 60.2281C102.717 60.1007 101.402 59.8723 100.221 60.3477C99.3159 60.7118 98.4425 61.4344 98.1945 62.4367C97.7119 64.3874 99.8953 65.8006 101.569 65.1097C103.447 64.3344 103.736 61.7444 102.736 60.1583C101.534 58.2519 99.1353 57.5104 97.0164 57.6523C91.9818 57.9895 88.3289 62.1143 83.7858 63.8314C81.6419 64.6417 79.166 64.9549 77.1162 63.7002C76.2863 63.1726 75.5919 62.4495 75.0911 61.5914C74.5904 60.7333 74.2978 59.7651 74.2379 58.7678C74.2101 58.268 74.247 57.7667 74.3477 57.2768L73.6672 57.4605C74.1746 58.1314 74.1534 59.0475 73.8829 59.8115C73.5543 60.667 72.925 61.3662 72.1184 61.7721C71.2316 62.2152 70.2771 62.4999 69.2963 62.6138C68.2092 62.7749 67.1142 62.8738 66.0163 62.9099C61.5986 63.0754 57.1938 62.327 53.0659 60.7094C51.2058 59.979 49.2347 58.8518 47.1866 59.4732C45.6429 59.9416 44.4593 61.4512 45.1047 63.1191C45.2228 63.4673 45.4247 63.7795 45.6919 64.027C45.959 64.2745 46.2828 64.4492 46.6334 64.5351C46.819 64.5922 47.018 64.584 47.1986 64.5119C47.3639 64.38 47.5039 64.2178 47.6115 64.0337C47.8852 63.6667 48.1188 63.2703 48.3082 62.8514C49.0292 61.2481 49.1627 59.4333 48.6843 57.7377C47.5501 53.8012 43.0113 51.8725 39.4 53.5014C38.9215 53.7172 39.3355 54.4347 39.811 54.2202Z" fill="#3F3D56"/>
<path d="M30.9067 79.0204C32.0724 81.8912 33.8474 84.4615 36.1035 86.5453C38.3596 88.6291 41.0403 90.1745 43.9519 91.0697C44.944 91.3778 45.9613 91.5937 46.9913 91.7147C47.9724 91.8229 49.049 91.7598 49.8612 91.1235C51.031 90.2072 51.0058 87.5874 49.1532 87.6066C48.2374 87.6162 47.471 88.4738 47.3571 89.3647C47.2243 90.4044 47.8565 91.376 48.6142 92.0043C50.2766 93.3829 52.5572 93.5531 54.5838 93.1215C56.9112 92.6259 58.9509 91.281 60.9917 90.1022C63.3285 88.7525 66.1055 87.397 68.854 88.1201C70.9385 88.6685 72.8393 90.9054 72.1597 93.1891L72.7578 92.9403C71.8529 92.521 71.6329 91.3617 71.9882 90.4749C72.433 89.3647 73.7333 88.95 74.8121 88.9508C76.2343 88.9519 77.5481 89.6265 78.8105 90.2214C79.9722 90.7803 81.1792 91.2352 82.4178 91.5807C87.303 92.8789 92.4771 92.4097 97.0626 90.2526C98.188 89.7318 99.2593 89.0962 100.26 88.3556C101.052 87.7586 101.966 86.7141 101.328 85.6661C101.211 85.4618 101.046 85.2903 100.848 85.1665C100.651 85.0426 100.427 84.9704 100.195 84.9561C99.6383 84.953 99.3938 85.3489 99.2198 85.8317C98.8761 86.8596 98.8724 87.9744 99.2091 89.0047C99.9159 91.2877 101.8 92.8635 104.034 93.4388C106.506 94.075 109.166 93.6411 111.555 92.8551C116.124 91.3371 120.059 88.2907 122.726 84.207C123.06 83.6939 123.368 83.165 123.655 82.6239C123.906 82.1531 123.203 81.7324 122.952 82.2038C120.761 86.2878 117.304 89.5113 113.125 91.367C109.29 93.0699 102.94 94.3237 100.432 89.8019C99.9127 88.9103 99.6931 87.8695 99.8068 86.8383C99.8522 86.5118 99.9548 85.5672 100.423 85.8755C100.954 86.2246 100.665 86.8413 100.328 87.2101C99.5675 88.041 98.4178 88.6244 97.4379 89.141C96.3874 89.6933 95.2912 90.1498 94.1623 90.5052C89.5885 91.964 84.6629 91.7682 80.2138 89.9506C77.8531 88.9622 75.1586 87.2077 72.5991 88.6579C72.1354 88.9084 71.7447 89.2799 71.4668 89.7347C71.1889 90.1895 71.0336 90.7113 71.0167 91.2473C70.9884 92.2305 71.4421 93.2399 72.3468 93.6592C72.401 93.6899 72.4612 93.7078 72.523 93.7116C72.5848 93.7154 72.6467 93.705 72.7041 93.6812C72.7615 93.6573 72.8129 93.6206 72.8546 93.5737C72.8962 93.5269 72.9271 93.4711 72.9449 93.4104C73.4542 91.6989 72.7492 89.9078 71.5134 88.7148C70.0599 87.3115 68.0808 86.9097 66.1407 87.1835C61.7335 87.8055 58.5383 91.5004 54.2245 92.3481C52.3636 92.7138 50.0675 92.5084 48.7287 90.9711C48.1306 90.2842 47.7929 88.8933 48.9111 88.4887C49.7316 88.1919 49.9882 89.1866 49.8053 89.7986C49.2401 91.6893 46.1169 90.7948 44.8209 90.4521C43.0385 89.9775 41.3319 89.2442 39.7529 88.2747C36.14 86.0834 33.3135 82.7609 31.6919 78.7991C31.4965 78.3096 30.7084 78.5238 30.9067 79.0204Z" fill="#CCCCCC"/>
<path d="M13.4946 114.328C19.737 113.126 27.4121 111.914 32.0946 117.458C33.0234 118.534 33.6652 119.837 33.958 121.241C34.0819 121.872 34.2372 122.573 33.6104 122.963C33.3691 123.105 33.0965 123.183 32.8179 123.189C32.5393 123.195 32.2637 123.129 32.0168 122.997C30.6492 122.221 31.4111 120.157 32.4405 119.481C33.8423 118.56 35.6456 118.954 37.0844 119.553C38.6452 120.203 40.1216 121.034 41.701 121.647C43.1939 122.226 44.7246 122.696 46.2819 123.056C49.5076 123.803 52.8195 124.087 56.1218 123.898C59.3242 123.748 62.487 123.112 65.5061 122.01C66.6615 121.57 67.8637 120.933 68.5673 119.856C68.8908 119.378 69.0567 118.806 69.0408 118.225C69.025 117.643 68.8282 117.082 68.4791 116.623C68.1119 116.118 67.5832 115.761 66.9851 115.614C66.387 115.467 65.7574 115.54 65.206 115.819C64.696 116.1 64.2816 116.533 64.0176 117.061C63.8009 117.495 63.5182 118.354 63.7948 118.812C63.9353 119.045 64.2792 119.137 64.5042 119.25C64.8811 119.439 65.2611 119.621 65.6442 119.797C66.3141 120.105 66.992 120.394 67.6779 120.664C69.1795 121.253 70.7153 121.747 72.2765 122.143C78.4191 123.696 84.8293 123.777 91.0076 122.38C92.5438 122.032 94.058 121.589 95.5418 121.054C96.9446 120.547 98.4256 120.005 99.7154 119.238C100.732 118.633 101.924 117.593 101.829 116.263C101.79 115.776 101.568 115.325 101.209 115.003C100.849 114.682 100.382 114.517 99.905 114.543C99.4156 114.544 98.9362 114.685 98.5206 114.949C98.105 115.213 97.7695 115.591 97.5517 116.039C96.9992 117.32 97.552 118.78 98.3582 119.802C100.099 122.011 103.069 122.805 105.733 122.778C108.821 122.746 111.748 121.749 114.612 120.665C117.819 119.451 121.167 118.103 124.651 118.318C127.791 118.512 130.749 120.411 133.937 120.017C136.705 119.675 138.329 117.411 139.047 114.833C139.372 113.576 139.593 112.294 139.71 111C139.768 110.468 138.954 110.472 138.896 111C138.619 113.53 138.198 116.739 136.01 118.346C133.356 120.295 129.9 118.577 127.118 117.885C123.909 117.087 120.759 117.631 117.666 118.667C114.618 119.688 111.685 121.083 108.51 121.666C105.753 122.172 102.702 122.115 100.297 120.473C99.1152 119.666 97.706 118.079 98.2497 116.49C98.5603 115.582 100.178 114.839 100.835 115.792C101.803 117.195 99.3702 118.524 98.4358 118.964C97.0052 119.634 95.5343 120.212 94.0321 120.692C84.2009 123.827 73.564 122.95 64.3519 118.243L64.5535 118.602C64.3969 117.165 65.8254 115.816 67.189 116.572C68.4876 117.292 68.479 118.874 67.51 119.865C66.5555 120.842 65.1867 121.277 63.9272 121.663C62.5372 122.09 61.1217 122.425 59.6896 122.666C53.6754 123.667 47.509 123.025 41.8159 120.804C39.266 119.806 36.6255 117.777 33.7671 118.155C32.6269 118.305 31.5243 118.871 30.9317 119.913C30.4094 120.831 30.2971 122.038 30.8523 122.967C31.7383 124.451 34.8416 124.383 34.8952 122.301C34.9563 119.93 33.4929 117.563 31.8582 116.01C26.7673 111.172 19.5036 112.326 13.2781 113.525C12.7638 113.625 12.9816 114.427 13.4946 114.328Z" fill="#CCCCCC"/>
<path d="M92.4326 33.5167C94.4128 33.1712 95.2617 30.7288 94.7965 28.9303C94.494 27.7609 93.7842 26.7573 92.9954 25.8776C92.0801 24.8568 91.0649 23.9247 90.0896 22.9649C88.8971 21.7913 87.7046 20.6177 86.5121 19.4441C86.4613 19.3936 86.3986 19.3574 86.3301 19.339C86.2615 19.3206 86.1895 19.3206 86.121 19.3391C86.0525 19.3576 85.9898 19.3939 85.9391 19.4445C85.8884 19.4951 85.8513 19.5582 85.8316 19.6278C85.3158 23.0635 86.1248 26.5698 88.0881 29.4077C88.5897 30.1166 89.1544 30.7764 89.7752 31.3787C90.381 31.974 91.0305 32.5666 91.4068 33.3497L92.502 34.1707C92.4657 33.9506 92.4113 33.7341 92.3394 33.5233C92.3706 33.5243 92.4018 33.5221 92.4326 33.5167Z" fill="#FD6584"/>
<path d="M92.3668 33.3086H91.5525C91.9801 34.1986 91.8054 35.5528 91.746 36.5175C91.6795 37.596 91.5885 38.6733 91.5086 39.7508C91.3291 42.1737 91.1496 44.5967 90.9701 47.0197C90.9306 47.554 91.745 47.5514 91.7844 47.0197L92.262 40.5737C92.3432 39.4765 92.4245 38.3793 92.5058 37.2821C92.5717 35.956 92.5251 34.6265 92.3668 33.3086Z" fill="#3F3D56"/>
<path d="M92.4279 33.4026C92.5997 32.884 92.661 32.3339 92.6078 31.7891C92.5545 31.2443 92.3879 30.7175 92.1192 30.244C92.0627 30.1526 91.9738 30.0873 91.8712 30.0617C91.7686 30.0361 91.6602 30.0522 91.569 30.1067C91.4778 30.1612 91.4109 30.2498 91.3823 30.3538C91.3538 30.4578 91.3659 30.5691 91.416 30.6641C91.6314 31.0413 91.7632 31.4621 91.8024 31.897C91.8416 32.3319 91.787 32.7702 91.6427 33.1813C91.6141 33.2877 91.6281 33.4013 91.6814 33.4972C91.7348 33.5931 91.8232 33.6634 91.9272 33.6928C92.0312 33.7221 92.1424 33.708 92.2363 33.6536C92.3301 33.5992 92.3991 33.5089 92.4279 33.4026Z" fill="#3F3D56"/>
<path d="M60.6748 32.6837C62.655 32.3382 63.5039 29.8958 63.0386 28.0972C62.7361 26.9279 62.0264 25.9243 61.2376 25.0446C60.3223 24.0238 59.3071 23.0917 58.3318 22.1319C57.1393 20.9583 55.9468 19.7847 54.7543 18.6111C54.7035 18.5606 54.6408 18.5244 54.5722 18.506C54.5037 18.4876 54.4317 18.4876 54.3632 18.5061C54.2946 18.5246 54.232 18.5609 54.1813 18.6115C54.1306 18.6621 54.0935 18.7252 54.0738 18.7948C53.558 22.2305 54.367 25.7368 56.3303 28.5747C56.8319 29.2836 57.3966 29.9434 58.0174 30.5457C58.6232 31.141 59.2726 31.7336 59.6489 32.5167L60.7442 33.3377C60.7079 33.1176 60.6535 32.9011 60.5816 32.6903C60.6128 32.6913 60.644 32.6891 60.6748 32.6837Z" fill="#FD6584"/>
<path d="M60.609 32.4766H59.7947C60.2223 33.3666 60.0476 34.7208 59.9881 35.6855C59.9217 36.7639 59.8306 37.8413 59.7508 38.9188C59.5713 41.3417 59.3918 43.7647 59.2123 46.1877C59.1727 46.722 59.9872 46.7194 60.0266 46.1877L60.5042 39.7417C60.5854 38.6445 60.6667 37.5473 60.748 36.4501C60.8138 35.124 60.7673 33.7945 60.609 32.4766Z" fill="#3F3D56"/>
<path d="M60.6701 32.5705C60.8419 32.052 60.9032 31.5019 60.85 30.9571C60.7967 30.4123 60.6301 29.8855 60.3613 29.4119C60.3049 29.3206 60.216 29.2552 60.1134 29.2296C60.0108 29.204 59.9024 29.2202 59.8112 29.2747C59.72 29.3292 59.6531 29.4178 59.6245 29.5218C59.596 29.6258 59.6081 29.737 59.6582 29.8321C59.8735 30.2093 60.0054 30.6301 60.0446 31.065C60.0837 31.4998 60.0292 31.9382 59.8849 32.3492C59.8563 32.4556 59.8703 32.5693 59.9236 32.6652C59.9769 32.7611 60.0653 32.8314 60.1694 32.8607C60.2734 32.8901 60.3846 32.876 60.4785 32.8216C60.5724 32.7671 60.6413 32.6769 60.6701 32.5705Z" fill="#3F3D56"/>
<path d="M75.6045 31.297C77.5847 30.9515 78.4336 28.509 77.9683 26.7105C77.6658 25.5412 76.9561 24.5376 76.1673 23.6578C75.252 22.6371 74.2367 21.7049 73.2615 20.7452C72.069 19.5716 70.8765 18.398 69.6839 17.2244C69.6332 17.1739 69.5705 17.1377 69.5019 17.1192C69.4334 17.1008 69.3614 17.1009 69.2928 17.1194C69.2243 17.1379 69.1617 17.1742 69.111 17.2248C69.0602 17.2754 69.0232 17.3385 69.0034 17.4081C68.4877 20.8438 69.2967 24.3501 71.26 27.188C71.7615 27.8969 72.3263 28.5567 72.947 29.159C73.5529 29.7543 74.2023 30.3469 74.5786 31.13L75.6739 31.951C75.6376 31.7309 75.5832 31.5143 75.5113 31.3036C75.5425 31.3046 75.5737 31.3024 75.6045 31.297Z" fill="#FD6584"/>
<path d="M75.5387 31.0889H74.7244C75.152 31.9789 74.9772 33.3331 74.9178 34.2978C74.8514 35.3762 74.7603 36.4536 74.6805 37.5311C74.501 39.954 74.3215 42.377 74.142 44.8C74.1024 45.3343 74.9169 45.3317 74.9563 44.8L75.4338 38.354C75.5151 37.2568 75.5964 36.1596 75.6777 35.0624C75.7435 33.7363 75.697 32.4068 75.5387 31.0889Z" fill="#3F3D56"/>
<path d="M75.5998 31.1828C75.7716 30.6643 75.8329 30.1142 75.7797 29.5694C75.7264 29.0246 75.5598 28.4978 75.291 28.0242C75.2346 27.9329 75.1457 27.8676 75.0431 27.8419C74.9405 27.8163 74.8321 27.8325 74.7409 27.887C74.6497 27.9415 74.5828 28.0301 74.5542 28.1341C74.5257 28.2381 74.5378 28.3494 74.5879 28.4444C74.8032 28.8216 74.9351 29.2424 74.9743 29.6773C75.0134 30.1121 74.9589 30.5505 74.8145 30.9615C74.786 31.0679 74.7999 31.1816 74.8533 31.2775C74.9066 31.3734 74.995 31.4437 75.0991 31.473C75.2031 31.5024 75.3143 31.4883 75.4081 31.4339C75.502 31.3794 75.5709 31.2892 75.5998 31.1828Z" fill="#3F3D56"/>
<path d="M87.0588 80.8259C86.8579 80.0421 86.0909 79.3802 85.3111 79.5249C84.6844 79.6412 84.2225 80.2286 84.0493 80.8552C83.9147 81.4932 83.8971 82.1513 83.9975 82.7959C83.2982 82.044 82.5707 81.2718 81.6347 80.8707C81.3054 80.7052 80.931 80.6582 80.5723 80.7375C80.3282 80.8286 80.1158 80.9911 79.9615 81.2048C79.8072 81.4184 79.7178 81.6738 79.7044 81.9391C79.6878 82.472 79.8284 82.9977 80.1079 83.4478C80.4985 84.1371 81.0346 84.7287 81.6771 85.1793C82.3196 85.63 83.0524 85.9285 83.8221 86.0529L83.5699 85.7164C84.8511 85.2596 85.9304 84.3495 86.6129 83.1505C87.0089 82.4487 87.2597 81.6097 87.0588 80.8259Z" fill="#F50057"/>
<path d="M50.1369 113.57C49.936 112.786 49.169 112.124 48.3892 112.269C47.7625 112.385 47.3007 112.973 47.1275 113.599C46.9928 114.237 46.9752 114.895 47.0756 115.54C46.3763 114.788 45.6488 114.016 44.7128 113.615C44.3835 113.449 44.0091 113.402 43.6504 113.482C43.4064 113.573 43.1939 113.735 43.0396 113.949C42.8853 114.163 42.7959 114.418 42.7826 114.683C42.766 115.216 42.9065 115.742 43.186 116.192C43.5766 116.881 44.1127 117.473 44.7552 117.923C45.3978 118.374 46.1306 118.673 46.9002 118.797L46.648 118.46C47.9293 118.004 49.0086 117.094 49.691 115.895C50.0871 115.193 50.3378 114.354 50.1369 113.57Z" fill="#F50057"/>
<path d="M56.6604 64.7312C56.4594 63.9473 55.6925 63.2854 54.9126 63.4302C54.286 63.5464 53.8241 64.1338 53.6509 64.7604C53.5163 65.3985 53.4987 66.0566 53.599 66.7012C52.8998 65.9493 52.1722 65.177 51.2363 64.776C50.907 64.6104 50.5326 64.5635 50.1739 64.6428C49.9298 64.7339 49.7174 64.8964 49.563 65.11C49.4087 65.3237 49.3193 65.5791 49.306 65.8444C49.2894 66.3773 49.43 66.9029 49.7094 67.3531C50.1 68.0424 50.6361 68.6339 51.2787 69.0846C51.9212 69.5353 52.654 69.8337 53.4236 69.9582L53.1715 69.6216C54.4527 69.1649 55.532 68.2548 56.2145 67.0558C56.6105 66.3539 56.8613 65.515 56.6604 64.7312Z" fill="#F50057"/>
<path d="M114.026 18.8842C113.355 21.9005 113.036 25.3201 114.827 28.0194C115.588 29.1774 116.705 30.0427 118.002 30.4785C119.314 30.8763 120.698 30.9632 122.048 30.7326C125.103 30.2998 127.818 28.6729 130.823 28.0413C132.149 27.7626 133.556 27.6704 134.832 28.2069C135.789 28.6088 136.796 29.4169 136.801 30.5697C136.805 31.7534 135.8 32.5391 134.8 32.9031C133.465 33.3887 132.078 33.2007 130.694 33.1395C129.203 33.0736 127.683 33.2114 126.445 34.1448C125.379 34.9948 124.562 36.1271 124.083 37.4185C123.46 38.9631 123.207 40.6237 122.809 42.2352C122.454 43.6841 121.95 45.0909 121.308 46.4325C120.047 49.0622 118.28 51.4044 116.112 53.3185C115.042 54.2593 113.743 55.2177 112.283 55.3039C111.157 55.3704 109.787 54.8866 109.353 53.7203C109.192 53.2167 109.208 52.6714 109.398 52.1784C109.588 51.6855 109.941 51.2759 110.395 51.0204C111.36 50.5225 112.411 51.2328 112.723 52.2079C112.805 52.4326 112.833 52.6739 112.806 52.9121C112.779 53.1503 112.698 53.3787 112.568 53.5784C112.275 54.0246 112.98 54.4418 113.271 53.9986C113.946 52.9696 113.593 51.5856 112.767 50.7614C112.363 50.341 111.824 50.0851 111.25 50.0413C110.675 49.9975 110.105 50.1689 109.645 50.5235C109.168 50.8954 108.807 51.4017 108.606 51.9804C108.406 52.5591 108.375 53.185 108.518 53.7812C108.865 55.0623 110.097 55.8772 111.326 56.0791C112.845 56.3284 114.306 55.7183 115.532 54.8368C116.761 53.9293 117.88 52.8734 118.862 51.692C120.859 49.344 122.36 46.5997 123.272 43.631C124.168 40.6947 124.233 36.8159 126.896 34.8329C128.267 33.8125 129.946 33.9257 131.553 34.0193C132.971 34.102 134.355 34.087 135.656 33.4305C136.73 32.8885 137.597 31.8879 137.615 30.6132C137.633 29.3264 136.74 28.2917 135.687 27.7055C132.905 26.1567 129.565 27.4058 126.832 28.4405C124.084 29.481 120.946 30.7023 118.026 29.6073C116.678 29.0718 115.593 28.0117 115.008 26.6595C114.301 25.1262 114.2 23.3865 114.364 21.7226C114.46 20.8416 114.61 19.9676 114.812 19.1055C114.928 18.5839 114.143 18.3612 114.026 18.8842Z" fill="#3F3D56"/>
<path d="M119.017 10.4233C118.212 13.1719 116.998 15.7775 115.418 18.1488C115.027 18.7315 114.616 19.2995 114.185 19.8526C113.851 19.2307 113.445 18.6513 112.978 18.1266C111.335 16.2812 109.134 15.0741 106.998 13.8642C104.862 12.6543 102.693 11.3557 101.184 9.39376C100.507 8.51061 100.022 7.48978 99.7616 6.39958C99.4196 4.92052 99.5499 3.37764 100.394 2.14278C101.621 0.347374 104.066 -0.285315 106.146 0.233603C108.228 0.752522 109.97 2.23158 111.322 3.92985C110.879 1.84308 113.032 -0.171542 115.114 0.0116053C117.196 0.197528 118.865 2.05675 119.419 4.11578C119.975 6.17202 119.614 8.37535 119.017 10.4233Z" fill="#F50057"/>
<g opacity="0.2">
<path d="M115.422 18.1486C115.031 18.7314 114.62 19.2993 114.19 19.8524C113.855 19.2305 113.449 18.6511 112.982 18.1264C111.339 16.2811 109.138 15.074 107.002 13.8641C104.866 12.6542 102.697 11.3555 101.188 9.3936C100.511 8.51045 100.026 7.48962 99.7656 6.39941C104.568 7.08002 108.98 9.47319 112.224 13.1565C113.523 14.6518 114.6 16.3337 115.422 18.1486Z" fill="black"/>
</g>
<path d="M165.214 57.5083C165.601 57.4976 165.981 57.4003 166.327 57.2231C166.674 57.046 166.978 56.7933 167.218 56.483C167.459 56.1727 167.63 55.8122 167.72 55.427C167.809 55.0417 167.815 54.6411 167.737 54.2533L175.55 49.16L171.145 46.9834L164.415 52.1622C163.786 52.3398 163.243 52.747 162.889 53.3066C162.534 53.8661 162.393 54.5391 162.492 55.1981C162.59 55.8571 162.922 56.4563 163.423 56.882C163.925 57.3078 164.562 57.5307 165.214 57.5083Z" fill="#9E616A"/>
<path d="M166.81 32.7234C166.81 32.7234 162.224 28.932 164.044 26.242C165.864 23.552 170.511 26.4812 170.511 26.4812L184.039 42.2021C184.039 42.2021 169.669 55.5365 170.115 53.5562C170.561 51.5759 167.227 50.0278 167.227 50.0278L173.64 42.6544L172.233 41.9573L172.807 41.6198L172.204 40.1742L166.81 32.7234Z" fill="#F50057"/>
<path d="M194.118 138.584C194.118 138.628 194.111 138.671 194.098 138.711C194.085 138.751 194.065 138.787 194.04 138.818C194.015 138.849 193.986 138.873 193.953 138.889C193.92 138.906 193.885 138.914 193.85 138.914L143.172 138.923L139.632 138.925L137.297 138.928H134.713L133.304 138.931L129.39 138.934L67.8048 138.973L67.3364 138.975L39.7892 138.986H39.3343L15.8859 138.998H15.4309L8.11175 139C8.04067 139 7.97251 138.966 7.92225 138.904C7.87199 138.842 7.84375 138.758 7.84375 138.67C7.84375 138.583 7.87199 138.499 7.92225 138.437C7.97251 138.375 8.04067 138.34 8.11175 138.34L15.5075 138.337H15.9624L39.4041 138.326H39.859L67.1923 138.315H67.6584L90.9492 138.304H91.2555L128.962 138.276L132.869 138.273L134.657 138.271L137.483 138.268H139.898L143.701 138.265L193.85 138.254C193.885 138.254 193.92 138.262 193.953 138.279C193.986 138.295 194.015 138.32 194.04 138.35C194.065 138.381 194.085 138.417 194.098 138.458C194.112 138.498 194.118 138.541 194.118 138.584Z" fill="#CACACA"/>
<path d="M171.002 6.51871C170.414 5.59618 169.765 4.62128 168.766 4.20909C167.767 3.79687 166.35 4.28977 166.214 5.38231C166.113 6.199 166.722 6.9005 167.181 7.577C167.64 8.2535 167.938 9.27461 167.339 9.82441L167.002 10.0022C167.324 10.4279 167.74 10.7704 168.215 11.0022C168.69 11.2341 169.212 11.3488 169.738 11.3371C170.786 11.2693 171.796 10.4742 171.973 9.41613C172.145 8.38442 171.561 7.39542 171.002 6.51871Z" fill="#2F2E41"/>
</g>
<defs>
<clipPath id="clip0_649_16667">
<rect width="200" height="139" fill="white"/>
</clipPath>
</defs>
</svg>
