<svg width="25" height="26" viewBox="0 0 25 26" fill="none" xmlns="http://www.w3.org/2000/svg">
<path d="M8.24141 0V5.15088H6.18105V3.09053H0V21.6337H2.06035V22.6639C2.06035 23.5009 2.36082 24.2199 2.96176 24.8208C3.58415 25.4432 4.31386 25.7544 5.15088 25.7544C5.9879 25.7544 6.70687 25.4432 7.30781 24.8208C7.93021 24.2199 8.24141 23.5009 8.24141 22.6639V21.6337H24.7242V5.15088H20.6035V0H8.24141ZM10.3018 2.06035H18.5432V7.21123H10.3018V2.06035ZM2.06035 5.15088H4.1207V19.5733H2.06035V5.15088ZM6.18105 7.21123H8.24141V9.27158H20.6035V7.21123H22.6639V19.5733H6.18105V7.21123ZM9.27158 11.3319V13.3923H11.3319V11.3319H9.27158ZM13.3923 11.3319V13.3923H15.4526V11.3319H13.3923ZM17.513 11.3319V13.3923H19.5733V11.3319H17.513ZM9.27158 15.4526V17.513H11.3319V15.4526H9.27158ZM13.3923 15.4526V17.513H15.4526V15.4526H13.3923ZM17.513 15.4526V17.513H19.5733V15.4526H17.513ZM4.1207 21.6337H6.18105V22.6639C6.18105 22.9429 6.07374 23.1897 5.85912 23.4043C5.66597 23.5975 5.42988 23.694 5.15088 23.694C4.87187 23.694 4.62506 23.5975 4.41044 23.4043C4.21728 23.1897 4.1207 22.9429 4.1207 22.6639V21.6337Z" fill="#EC2323"/>
</svg>
